<svg width="666" height="132" viewBox="0 0 666 132" fill="none" xmlns="http://www.w3.org/2000/svg">
<path d="M665.116 0.5L665.114 1.00195L664.629 130.617L664.627 131.115H0.5V33.8916L0.611328 33.7539L27.4082 0.685547L27.5586 0.5H665.116Z" fill="url(#paint0_linear_3036_739)" stroke="#C3CFE0"/>
<path d="M64.0877 1H27.7967L1 34.0687V60.9338" stroke="#EDC702"/>
<path d="M15.0649 130.731L1 112.85V130.731H15.0649Z" fill="#EDC702"/>
<path d="M650.548 0.999264L664.613 18.8809V0.999264H650.548Z" fill="#EDC702"/>
<path d="M601.912 130.73H638.203H665V70.7966" stroke="#EDC702"/>
<g filter="url(#filter0_i_3036_739)">
<path d="M38.8838 40.1156L53.0475 22.6367H129.194L128.938 91.4998L114.774 108.979H38.8838V40.1156Z" fill="url(#paint1_linear_3036_739)"/>
</g>
<path d="M65.3901 84.3711C64.08 84.3711 62.9588 83.905 62.0266 82.9728C61.0945 82.0406 60.6276 80.9187 60.626 79.6069V51.022C60.626 49.7118 61.0929 48.5907 62.0266 47.6585C62.9604 46.7263 64.0816 46.2594 65.3901 46.2578H103.503C104.814 46.2578 105.936 46.7247 106.869 47.6585C107.803 48.5923 108.269 49.7134 108.268 51.022V79.6069C108.268 80.9171 107.801 82.039 106.869 82.9728C105.937 83.9066 104.815 84.3727 103.503 84.3711H65.3901ZM65.3901 79.6069H103.503V51.022H65.3901V79.6069Z" fill="white"/>
<path d="M75.685 61.1839C76.6823 61.1839 77.6233 61.3981 78.5077 61.8264C79.3922 62.2547 80.1308 62.8733 80.7236 63.6821C80.7895 63.7668 80.8107 63.842 80.7874 63.9079C80.7641 63.9738 80.724 64.0302 80.6671 64.0773C80.6103 64.1243 80.5444 64.1456 80.4695 64.1411C80.3947 64.1365 80.3288 64.0965 80.272 64.0208C79.7544 63.2869 79.0888 62.7248 78.2751 62.3345C77.4614 61.9442 76.598 61.7489 75.685 61.7485C74.7719 61.7481 73.9157 61.9434 73.1162 62.3345C72.3168 62.7255 71.6535 63.2876 71.1262 64.0208C71.0697 64.1055 71.0039 64.1525 70.9286 64.162C70.8533 64.1714 70.7875 64.1525 70.731 64.1055C70.6651 64.0585 70.6251 63.9997 70.6108 63.9294C70.5965 63.859 70.6177 63.786 70.6746 63.7103C71.2579 62.9105 71.9896 62.2895 72.8695 61.8473C73.7495 61.4051 74.688 61.1839 75.685 61.1839ZM75.685 62.5106C76.9552 62.5106 78.0467 62.9341 78.9594 63.7809C79.8721 64.6277 80.3284 65.6768 80.3284 66.9283C80.3284 67.3987 80.1615 67.7917 79.8277 68.1071C79.4938 68.4224 79.0868 68.58 78.6065 68.5796C78.1263 68.5792 77.7147 68.4217 77.3718 68.1071C77.029 67.7924 76.8572 67.3995 76.8564 66.9283C76.8564 66.6178 76.7412 66.3566 76.5109 66.1447C76.2806 65.9328 76.0053 65.827 75.685 65.8274C75.3647 65.8278 75.0894 65.9337 74.859 66.1452C74.6287 66.3567 74.5135 66.6178 74.5135 66.9283C74.5135 67.841 74.7841 68.6031 75.3253 69.2147C75.8666 69.8263 76.5651 70.2544 77.421 70.4991C77.5056 70.5273 77.5621 70.5743 77.5903 70.6402C77.6186 70.7061 77.6233 70.7766 77.6044 70.8519C77.5856 70.9178 77.548 70.9742 77.4915 71.0213C77.4351 71.0683 77.3645 71.0824 77.2798 71.0636C76.3013 70.819 75.5015 70.332 74.8805 69.6026C74.2595 68.8731 73.949 67.9817 73.949 66.9283C73.949 66.4578 74.1183 66.0626 74.4571 65.7427C74.7958 65.4228 75.2051 65.2628 75.685 65.2628C76.1648 65.2628 76.5741 65.4228 76.9129 65.7427C77.2516 66.0626 77.421 66.4578 77.421 66.9283C77.421 67.2388 77.5386 67.5 77.7738 67.7119C78.009 67.9238 78.2866 68.0295 78.6065 68.0291C78.9264 68.0288 79.1993 67.923 79.4251 67.7119C79.6509 67.5007 79.7639 67.2395 79.7639 66.9283C79.7639 65.8368 79.364 64.9194 78.5642 64.1761C77.7644 63.4327 76.8094 63.0611 75.6991 63.0611C74.5888 63.0611 73.6338 63.4327 72.834 64.1761C72.0342 64.9194 71.6343 65.8321 71.6343 66.9141C71.6343 67.14 71.6556 67.4222 71.6981 67.761C71.7406 68.0997 71.8417 68.4949 72.0013 68.9465C72.0295 69.0312 72.0272 69.1065 71.9945 69.1724C71.9617 69.2382 71.9075 69.2853 71.8319 69.3135C71.7562 69.3417 71.6834 69.3395 71.6134 69.3067C71.5434 69.274 71.4939 69.2198 71.4649 69.1441C71.3238 68.7772 71.2227 68.4127 71.1618 68.0506C71.1008 67.6885 71.0701 67.3144 71.0697 66.9283C71.0697 65.6768 71.5238 64.6277 72.432 63.7809C73.3402 62.9341 74.4245 62.5106 75.685 62.5106ZM75.685 59.8008C76.2872 59.8008 76.8752 59.8736 77.4492 60.0193C78.0232 60.1649 78.5783 60.3744 79.1146 60.6476C79.1993 60.6947 79.2488 60.7511 79.2631 60.817C79.2774 60.8828 79.2702 60.9487 79.2416 61.0146C79.213 61.0804 79.166 61.1322 79.1005 61.1698C79.035 61.2075 78.955 61.2028 78.8606 61.1557C78.3619 60.9017 77.8466 60.7065 77.3148 60.5703C76.783 60.434 76.2397 60.3657 75.685 60.3653C75.1392 60.3653 74.6029 60.4289 74.076 60.5562C73.5491 60.6834 73.0457 60.8832 72.5658 61.1557C72.4905 61.2028 72.4153 61.2146 72.34 61.1913C72.2647 61.1679 72.2083 61.1184 72.1706 61.0428C72.133 60.9671 72.1236 60.899 72.1424 60.8384C72.1612 60.7778 72.2083 60.7236 72.2835 60.6758C72.8104 60.3936 73.3609 60.1771 73.9348 60.0266C74.5088 59.8761 75.0922 59.8008 75.685 59.8008ZM75.685 63.8797C76.56 63.8797 77.3128 64.1738 77.9432 64.7621C78.5736 65.3503 78.8888 66.0724 78.8888 66.9283C78.8888 67.0129 78.863 67.0813 78.8115 67.1332C78.7599 67.1851 78.6916 67.2109 78.6065 67.2105C78.5312 67.2105 78.4654 67.1848 78.4089 67.1332C78.3525 67.0816 78.3242 67.0133 78.3242 66.9283C78.3242 66.2226 78.063 65.6322 77.5406 65.1573C77.0182 64.6823 76.3997 64.4446 75.685 64.4442C74.9702 64.4439 74.3564 64.6815 73.8434 65.1573C73.3304 65.633 73.0739 66.2233 73.0739 66.9283C73.0739 67.6904 73.2056 68.3374 73.4691 68.8692C73.7325 69.401 74.1183 69.9349 74.6264 70.4708C74.6829 70.5273 74.7111 70.5932 74.7111 70.6684C74.7111 70.7437 74.6829 70.8096 74.6264 70.866C74.57 70.9225 74.5041 70.9507 74.4288 70.9507C74.3536 70.9507 74.2877 70.9225 74.2312 70.866C73.6761 70.2826 73.2504 69.6876 72.9542 69.0809C72.658 68.4742 72.5097 67.7567 72.5094 66.9283C72.5094 66.072 72.8199 65.3498 73.4409 64.7615C74.0619 64.1732 74.8099 63.8793 75.685 63.8797ZM75.6708 66.646C75.7555 66.646 75.8238 66.6742 75.8758 66.7307C75.9277 66.7871 75.9535 66.853 75.9531 66.9283C75.9531 67.634 76.2072 68.2126 76.7153 68.6643C77.2234 69.1159 77.8161 69.3417 78.4936 69.3417C78.5501 69.3417 78.63 69.337 78.7335 69.3276C78.837 69.3182 78.9453 69.3041 79.0582 69.2853C79.1428 69.2665 79.2159 69.2783 79.2772 69.3208C79.3386 69.3634 79.3785 69.4268 79.3969 69.5111C79.4157 69.5864 79.4016 69.6522 79.3546 69.7087C79.3075 69.7651 79.2464 69.8028 79.1711 69.8216C79.0017 69.8686 78.8536 69.8946 78.7268 69.8995C78.5999 69.9044 78.5222 69.9067 78.4936 69.9063C77.6562 69.9063 76.9292 69.624 76.3127 69.0595C75.6963 68.4949 75.3882 67.7845 75.3886 66.9283C75.3886 66.853 75.4145 66.7871 75.4665 66.7307C75.5184 66.6742 75.5865 66.646 75.6708 66.646Z" fill="white"/>
<path d="M92.2515 66.4804H92.8518V64.0793M95.2529 63.9292V63.0288M91.0509 68.1312C91.9514 69.0316 93.7522 69.0316 94.6526 68.1312M90.4506 63.9292V63.0288M91.291 70.8325C89.9464 70.8325 89.2741 70.8325 88.7602 70.5707C88.3085 70.3405 87.9411 69.9732 87.7109 69.5214C87.4492 69.0076 87.4492 68.3353 87.4492 66.9906M98.2543 66.9906C98.2543 68.3353 98.2543 69.0076 97.9926 69.5214C97.7624 69.9732 97.3951 70.3405 96.9433 70.5707C96.4295 70.8325 95.7572 70.8325 94.4125 70.8325M94.4125 60.0273C95.7572 60.0273 96.4295 60.0273 96.9433 60.2891C97.3951 60.5193 97.7624 60.8866 97.9926 61.3384C98.2543 61.8522 98.2543 62.5245 98.2543 63.8692M91.291 60.0273C89.9464 60.0273 89.2741 60.0273 88.7602 60.2891C88.3085 60.5193 87.9411 60.8866 87.7109 61.3384C87.4492 61.8522 87.4492 62.5245 87.4492 63.8692" stroke="white" stroke-width="0.900426" stroke-linecap="round" stroke-linejoin="round"/>
<defs>
<filter id="filter0_i_3036_739" x="38.8838" y="22.6367" width="90.3096" height="86.3418" filterUnits="userSpaceOnUse" color-interpolation-filters="sRGB">
<feFlood flood-opacity="0" result="BackgroundImageFix"/>
<feBlend mode="normal" in="SourceGraphic" in2="BackgroundImageFix" result="shape"/>
<feColorMatrix in="SourceAlpha" type="matrix" values="0 0 0 0 0 0 0 0 0 0 0 0 0 0 0 0 0 0 127 0" result="hardAlpha"/>
<feOffset/>
<feGaussianBlur stdDeviation="0.93273"/>
<feComposite in2="hardAlpha" operator="arithmetic" k2="-1" k3="1"/>
<feColorMatrix type="matrix" values="0 0 0 0 0 0 0 0 0 0 0 0 0 0 0 0 0 0 0.25 0"/>
<feBlend mode="normal" in2="shape" result="effect1_innerShadow_3036_739"/>
</filter>
<linearGradient id="paint0_linear_3036_739" x1="638.374" y1="241.73" x2="637.614" y2="-71.6324" gradientUnits="userSpaceOnUse">
<stop stop-color="#101925"/>
<stop offset="1" stop-color="#131F31"/>
</linearGradient>
<linearGradient id="paint1_linear_3036_739" x1="73.5711" y1="97.8331" x2="73.5711" y2="27.6126" gradientUnits="userSpaceOnUse">
<stop stop-color="#0A1320"/>
<stop offset="1" stop-color="#040F1F"/>
</linearGradient>
</defs>
</svg>
