<svg width="666" height="132" viewBox="0 0 666 132" fill="none" xmlns="http://www.w3.org/2000/svg">
<path d="M665.116 0.5L665.114 1.00195L664.629 130.617L664.627 131.115H0.5V33.8916L0.611328 33.7539L27.4082 0.685547L27.5586 0.5H665.116Z" fill="url(#paint0_linear_3036_727)" stroke="#C3CFE0"/>
<path d="M64.0877 1H27.7967L1 34.0687V60.9338" stroke="#EDC702"/>
<path d="M15.0649 130.731L1 112.85V130.731H15.0649Z" fill="#EDC702"/>
<path d="M650.549 0.999264L664.614 18.8809V0.999264H650.549Z" fill="#EDC702"/>
<path d="M601.912 130.73H638.203H665V70.7966" stroke="#EDC702"/>
<g filter="url(#filter0_i_3036_727)">
<path d="M38.8838 40.1156L53.0475 22.6367H129.194L128.938 91.4998L114.774 108.979H38.8838V40.1156Z" fill="url(#paint1_linear_3036_727)"/>
</g>
<path d="M63.8067 58.9805H103.915C104.226 58.9803 104.534 59.0448 104.82 59.1698C105.105 59.2947 105.361 59.4775 105.572 59.7066C105.782 59.9356 105.943 60.2059 106.044 60.5003C106.145 60.7948 106.184 61.107 106.158 61.4172L104.284 83.9172C104.237 84.4799 103.981 85.0043 103.565 85.3865C103.15 85.7687 102.606 85.9807 102.041 85.9805H65.6809C65.1167 85.9802 64.5732 85.7679 64.1582 85.3858C63.7431 85.0036 63.4868 84.4795 63.4399 83.9172L61.5634 61.4172C61.5376 61.107 61.5764 60.7948 61.6774 60.5003C61.7784 60.2059 61.9395 59.9356 62.1503 59.7066C62.3611 59.4775 62.6172 59.2947 62.9023 59.1698C63.1874 59.0448 63.4954 58.9803 63.8067 58.9805ZM67.7509 81.4805H99.9709L101.472 63.4805H66.2524L67.7509 81.4805ZM87.0424 49.9805H101.861C102.458 49.9805 103.03 50.2175 103.452 50.6395C103.874 51.0614 104.111 51.6337 104.111 52.2305V54.4805H63.6109V47.7305C63.6109 47.1337 63.848 46.5614 64.2699 46.1395C64.6919 45.7175 65.2642 45.4805 65.8609 45.4805H82.5424L87.0424 49.9805Z" fill="white"/>
<g clip-path="url(#clip0_3036_727)">
<path fill-rule="evenodd" clip-rule="evenodd" d="M91.648 69.4131C92.3258 69.1812 92.7464 69.0371 93.1863 69.0371C93.6261 69.0371 94.0467 69.1812 94.7246 69.4131L95.0658 69.5305C95.7611 69.768 96.2981 69.952 96.6821 70.1079C96.8755 70.1863 97.0421 70.2628 97.1759 70.3402C97.305 70.4153 97.4341 70.5088 97.5219 70.6341C97.6087 70.7575 97.6538 70.9096 97.6819 71.0566C97.7115 71.2087 97.7289 71.3913 97.7406 71.6011C97.7632 72.017 97.7632 72.5878 97.7632 73.3276V74.0792C97.7632 76.9432 95.6 78.3162 94.3138 78.8786L94.3011 78.8838C94.1415 78.9537 93.9913 79.019 93.819 79.0631C93.6374 79.11 93.444 79.1297 93.1863 79.1297C92.9281 79.1297 92.7356 79.11 92.5535 79.0631C92.3812 79.019 92.231 78.9537 92.0714 78.8838L92.0587 78.8786C90.7725 78.3162 88.6094 76.9432 88.6094 74.0787V73.3276C88.6094 72.5878 88.6094 72.017 88.6319 71.6006C88.6436 71.3913 88.661 71.2087 88.6906 71.0561C88.7188 70.9096 88.7638 70.7576 88.8502 70.6336C88.9384 70.5088 89.0675 70.4153 89.1966 70.3402C89.3304 70.2628 89.4971 70.1863 89.6905 70.1079C90.0744 69.952 90.6115 69.768 91.3067 69.5305L91.648 69.4131ZM92.8342 69.7826C92.6004 69.8333 92.3014 69.9337 91.8155 70.0999L91.547 70.1919C90.8368 70.4351 90.319 70.6125 89.9557 70.7599C89.8163 70.8138 89.6808 70.8772 89.5501 70.9495C89.5162 70.9692 89.4836 70.991 89.4525 71.0148C89.4431 71.0218 89.4345 71.0297 89.4266 71.0383C89.4205 71.0493 89.4154 71.0609 89.4116 71.073C89.4022 71.0987 89.3924 71.1375 89.382 71.1894C89.3561 71.3381 89.3404 71.4883 89.3351 71.6391C89.3159 71.9959 89.3135 72.4794 89.3135 73.1253L92.8342 71.9518V69.7826ZM93.5383 69.7826V71.9518L97.059 73.1253C97.059 72.4794 97.0567 71.9954 97.0374 71.6391C97.0321 71.4883 97.0164 71.3381 96.9905 71.1894C96.9831 71.15 96.9732 71.1111 96.9609 71.073C96.9571 71.0609 96.952 71.0493 96.9459 71.0383C96.938 71.0297 96.9294 71.0218 96.9201 71.0148C96.8889 70.9909 96.8563 70.9689 96.8224 70.9491C96.6917 70.877 96.5562 70.814 96.4168 70.7604C96.0535 70.6125 95.5357 70.4351 94.8255 70.1924L94.5565 70.0999C94.0711 69.9337 93.7721 69.8333 93.5383 69.7826ZM92.8342 72.6944L89.3135 73.868V74.0792C89.3135 76.5089 91.1302 77.7046 92.3408 78.2331C92.515 78.3092 92.6159 78.3524 92.7281 78.381C92.7603 78.3895 92.7957 78.3968 92.8342 78.4031V72.6944ZM93.5383 78.4031V72.6944L97.059 73.868V74.0792C97.059 76.5089 95.2423 77.7046 94.0317 78.2331C93.8575 78.3092 93.7566 78.3524 93.6444 78.381C93.6122 78.3895 93.5768 78.3968 93.5383 78.4031Z" fill="white"/>
</g>
<defs>
<filter id="filter0_i_3036_727" x="38.8838" y="22.6367" width="90.3105" height="86.3418" filterUnits="userSpaceOnUse" color-interpolation-filters="sRGB">
<feFlood flood-opacity="0" result="BackgroundImageFix"/>
<feBlend mode="normal" in="SourceGraphic" in2="BackgroundImageFix" result="shape"/>
<feColorMatrix in="SourceAlpha" type="matrix" values="0 0 0 0 0 0 0 0 0 0 0 0 0 0 0 0 0 0 127 0" result="hardAlpha"/>
<feOffset/>
<feGaussianBlur stdDeviation="0.93273"/>
<feComposite in2="hardAlpha" operator="arithmetic" k2="-1" k3="1"/>
<feColorMatrix type="matrix" values="0 0 0 0 0 0 0 0 0 0 0 0 0 0 0 0 0 0 0.25 0"/>
<feBlend mode="normal" in2="shape" result="effect1_innerShadow_3036_727"/>
</filter>
<linearGradient id="paint0_linear_3036_727" x1="638.374" y1="241.73" x2="637.614" y2="-71.6324" gradientUnits="userSpaceOnUse">
<stop stop-color="#101925"/>
<stop offset="1" stop-color="#131F31"/>
</linearGradient>
<linearGradient id="paint1_linear_3036_727" x1="73.5711" y1="97.8331" x2="73.5711" y2="27.6126" gradientUnits="userSpaceOnUse">
<stop stop-color="#0A1320"/>
<stop offset="1" stop-color="#040F1F"/>
</linearGradient>
<clipPath id="clip0_3036_727">
<rect width="11.2662" height="11.2662" fill="white" transform="translate(87.5527 68.4492)"/>
</clipPath>
</defs>
</svg>
