<svg width="562" height="132" viewBox="0 0 562 132" fill="none" xmlns="http://www.w3.org/2000/svg">
<path d="M561.307 0.5L561.305 1.00195L560.82 130.617L560.818 131.115H0.5V33.8916L0.611328 33.7539L27.4082 0.685547L27.5586 0.5H561.307Z" fill="url(#paint0_linear_3036_792)" stroke="#C3CFE0"/>
<path d="M64.0877 1H27.7967L1 34.0687V60.9338" stroke="#EDC702"/>
<path d="M15.0649 130.731L1 112.85V130.731H15.0649Z" fill="#EDC702"/>
<path d="M546.355 0.999264L560.42 18.8809V0.999264H546.355Z" fill="#EDC702"/>
<path d="M497.719 130.73H534.01H560.807V70.7966" stroke="#EDC702"/>
<g filter="url(#filter0_i_3036_792)">
<path d="M38.8848 40.1156L53.0485 22.6367H129.195L128.939 91.4998L114.775 108.979H38.8848V40.1156Z" fill="url(#paint1_linear_3036_792)"/>
</g>
<path d="M66.9492 85.485V48.1517C66.9492 47.5329 67.1951 46.9394 67.6326 46.5018C68.0702 46.0642 68.6637 45.8184 69.2826 45.8184H83.6839C84.9215 45.8186 86.1083 46.3105 86.9832 47.1857L98.2486 58.451C99.1238 59.326 99.6156 60.5128 99.6159 61.7504V85.485C99.6159 86.1039 99.3701 86.6974 98.9325 87.1349C98.4949 87.5725 97.9014 87.8184 97.2826 87.8184H69.2826C68.6637 87.8184 68.0702 87.5725 67.6326 87.1349C67.1951 86.6974 66.9492 86.1039 66.9492 85.485Z" stroke="white" stroke-width="2.38298" stroke-linejoin="round"/>
<path d="M83.2812 45.8184V59.8184C83.2812 60.4372 83.5271 61.0307 83.9647 61.4683C84.4023 61.9059 84.9957 62.1517 85.6146 62.1517H99.6146" stroke="white" stroke-width="2.38298" stroke-linejoin="round"/>
<path d="M87.716 68.8633C88.5143 68.8633 89.2799 69.1804 89.8444 69.7449C90.4089 70.3094 90.7261 71.075 90.7261 71.8733V79.3985C90.7261 80.1968 90.4089 80.9624 89.8444 81.5269C89.2799 82.0914 88.5143 82.4085 87.716 82.4085H78.6858C77.8875 82.4085 77.1219 82.0914 76.5574 81.5269C75.9929 80.9624 75.6758 80.1968 75.6758 79.3985V71.8733C75.6758 71.075 75.9929 70.3094 76.5574 69.7449C77.1219 69.1804 77.8875 68.8633 78.6858 68.8633H87.716ZM78.6858 70.3683C78.2867 70.3683 77.9039 70.5269 77.6216 70.8091C77.3394 71.0914 77.1808 71.4742 77.1808 71.8733V79.3985C77.1808 79.7976 77.3394 80.1804 77.6216 80.4627C77.9039 80.7449 78.2867 80.9035 78.6858 80.9035H87.716C88.1152 80.9035 88.498 80.7449 88.7802 80.4627C89.0625 80.1804 89.221 79.7976 89.221 79.3985V71.8733C89.221 71.4742 89.0625 71.0914 88.7802 70.8091C88.498 70.5269 88.1152 70.3683 87.716 70.3683H78.6858ZM82.7584 72.1743C82.7934 72.0855 82.8544 72.0093 82.9333 71.9556C83.0122 71.9018 83.1054 71.8731 83.2009 71.8731C83.2964 71.8731 83.3896 71.9018 83.4686 71.9556C83.5475 72.0093 83.6084 72.0855 83.6434 72.1743L83.8812 72.7485C84.2809 73.7224 85.0391 74.5057 85.9995 74.9368L86.6738 75.2371C87.0598 75.4086 87.0606 75.9708 86.6738 76.1431L85.9589 76.4607C85.0231 76.8805 84.2786 77.6358 83.8722 78.5775L83.6404 79.1095C83.6041 79.1962 83.5431 79.2702 83.4649 79.3222C83.3867 79.3743 83.2949 79.4021 83.2009 79.4021C83.107 79.4021 83.0151 79.3743 82.9369 79.3222C82.8587 79.2702 82.7977 79.1962 82.7614 79.1095L82.5297 78.5775C82.1233 77.6358 81.3788 76.8805 80.443 76.4607L79.7281 76.1431C79.342 75.9708 79.342 75.4086 79.7281 75.2371L80.4023 74.9368C81.3624 74.5055 82.1204 73.7222 82.5199 72.7485L82.7584 72.1743Z" fill="white"/>
<defs>
<filter id="filter0_i_3036_792" x="38.8848" y="22.6367" width="90.3105" height="86.3418" filterUnits="userSpaceOnUse" color-interpolation-filters="sRGB">
<feFlood flood-opacity="0" result="BackgroundImageFix"/>
<feBlend mode="normal" in="SourceGraphic" in2="BackgroundImageFix" result="shape"/>
<feColorMatrix in="SourceAlpha" type="matrix" values="0 0 0 0 0 0 0 0 0 0 0 0 0 0 0 0 0 0 127 0" result="hardAlpha"/>
<feOffset/>
<feGaussianBlur stdDeviation="0.93273"/>
<feComposite in2="hardAlpha" operator="arithmetic" k2="-1" k3="1"/>
<feColorMatrix type="matrix" values="0 0 0 0 0 0 0 0 0 0 0 0 0 0 0 0 0 0 0.25 0"/>
<feBlend mode="normal" in2="shape" result="effect1_innerShadow_3036_792"/>
</filter>
<linearGradient id="paint0_linear_3036_792" x1="638.374" y1="241.73" x2="637.614" y2="-71.6324" gradientUnits="userSpaceOnUse">
<stop stop-color="#101925"/>
<stop offset="1" stop-color="#131F31"/>
</linearGradient>
<linearGradient id="paint1_linear_3036_792" x1="73.5721" y1="97.8331" x2="73.5721" y2="27.6126" gradientUnits="userSpaceOnUse">
<stop stop-color="#0A1320"/>
<stop offset="1" stop-color="#040F1F"/>
</linearGradient>
</defs>
</svg>
