<svg width="350" height="359" viewBox="0 0 350 359" fill="none" xmlns="http://www.w3.org/2000/svg">
<path d="M235.016 1.7959L264.967 15.583H84.6152L110.766 1.7959H235.016Z" fill="#C3CFE0" stroke="#C3CFE0" stroke-width="1.59091"/>
<path d="M315.202 17.1748L341.25 43.2236V323.625L315.201 349.675H34.7993L8.75049 323.626V43.2227L34.7983 17.1748H315.202Z" fill="#161E2A" stroke="#C3CFE0" stroke-width="1.59091"/>
<path d="M296.641 35.7959L322.689 61.8438V238.307L296.64 264.356H53.3604L27.3115 238.308V61.8438L53.3594 35.7959H296.641Z" fill="#111720" stroke="#C3CFE0" stroke-width="1.59091"/>
<path d="M121.439 4.24219H127.803L116.666 13.2573H110.303L121.439 4.24219Z" fill="#111720"/>
<path d="M228.031 4.24219H221.667L232.803 13.2573H239.167L228.031 4.24219Z" fill="#111720"/>
<path d="M130.985 4.24219H137.349L126.212 13.2573H119.849L130.985 4.24219Z" fill="#111720"/>
<path d="M218.485 4.24219H212.121L223.257 13.2573H229.621L218.485 4.24219Z" fill="#111720"/>
<path d="M140.53 4.24219H146.894L135.757 13.2573H129.394L140.53 4.24219Z" fill="#111720"/>
<path d="M208.94 4.24219H202.576L213.713 13.2573H220.076L208.94 4.24219Z" fill="#111720"/>
</svg>
