<svg width="562" height="132" viewBox="0 0 562 132" fill="none" xmlns="http://www.w3.org/2000/svg">
<path d="M561.307 0.5L561.305 1.00195L560.82 130.617L560.818 131.115H0.5V33.8916L0.611328 33.7539L27.4082 0.685547L27.5586 0.5H561.307Z" fill="url(#paint0_linear_3036_756)" stroke="#C3CFE0"/>
<path d="M64.0877 1H27.7967L1 34.0687V60.9338" stroke="#EDC702"/>
<path d="M15.0649 130.731L1 112.85V130.731H15.0649Z" fill="#EDC702"/>
<path d="M546.354 0.999264L560.419 18.8809V0.999264H546.354Z" fill="#EDC702"/>
<path d="M497.718 130.73H534.009H560.806V70.7966" stroke="#EDC702"/>
<g filter="url(#filter0_i_3036_756)">
<path d="M38.8838 40.1156L53.0475 22.6367H129.194L128.938 91.4998L114.774 108.979H38.8838V40.1156Z" fill="url(#paint1_linear_3036_756)"/>
</g>
<path d="M65.3579 84.8105C64.0478 84.8105 62.9266 84.3445 61.9944 83.4123C61.0622 82.4801 60.5953 81.3581 60.5938 80.0464V51.4614C60.5938 50.1513 61.0606 49.0301 61.9944 48.0979C62.9282 47.1657 64.0494 46.6989 65.3579 46.6973H103.471C104.781 46.6973 105.903 47.1642 106.837 48.0979C107.771 49.0317 108.237 50.1529 108.235 51.4614V80.0464C108.235 81.3565 107.769 82.4785 106.837 83.4123C105.905 84.346 104.783 84.8121 103.471 84.8105H65.3579ZM65.3579 80.0464H103.471V51.4614H65.3579V80.0464Z" fill="white"/>
<path d="M88.8301 66.1699H97.8301" stroke="white" stroke-width="2" stroke-linecap="round" stroke-linejoin="round"/>
<path d="M82.8301 66.1699H84.8301" stroke="white" stroke-width="2" stroke-linecap="round" stroke-linejoin="round"/>
<path d="M84.8301 73.1699H97.8301" stroke="white" stroke-width="2" stroke-linecap="round" stroke-linejoin="round"/>
<path d="M78.8301 73.1699H80.8301" stroke="white" stroke-width="2" stroke-linecap="round" stroke-linejoin="round"/>
<path d="M84.8301 59.1699H97.8301" stroke="white" stroke-width="2" stroke-linecap="round" stroke-linejoin="round"/>
<path d="M73.8304 59.3359C74.1547 59.3359 74.4721 59.3616 74.7824 59.4129L73.6904 60.5049C72.78 60.5323 71.8976 60.8254 71.1518 61.3481C70.406 61.8709 69.8295 62.6005 69.4933 63.4469C69.1571 64.2934 69.0759 65.2197 69.2598 66.1117C69.4437 67.0037 69.8846 67.8225 70.5281 68.4669C71.1717 69.1114 71.9898 69.5535 72.8815 69.7387C73.7732 69.9239 74.6997 69.8441 75.5466 69.5091C76.3936 69.1742 77.124 68.5987 77.6478 67.8537C78.1717 67.1086 78.4661 66.2266 78.4947 65.3163L79.5879 64.2243C79.6385 64.5315 79.6637 64.8465 79.6637 65.1693C79.6637 66.323 79.3216 67.4508 78.6806 68.4101C78.0397 69.3694 77.1286 70.1171 76.0627 70.5586C74.9968 71.0001 73.8239 71.1156 72.6924 70.8905C71.5608 70.6654 70.5214 70.1099 69.7056 69.2941C68.8898 68.4783 68.3342 67.4389 68.1092 66.3073C67.8841 65.1757 67.9996 64.0029 68.4411 62.937C68.8826 61.871 69.6303 60.96 70.5896 60.319C71.5489 59.6781 72.6767 59.3359 73.8304 59.3359ZM79.0116 59.9916C78.8042 59.7842 78.558 59.6197 78.2871 59.5075C78.0162 59.3952 77.7258 59.3375 77.4325 59.3375C77.1392 59.3375 76.8488 59.3952 76.5779 59.5075C76.3069 59.6197 76.0608 59.7842 75.8534 59.9916L72.8387 63.0063C72.7753 63.0699 72.7273 63.1474 72.6987 63.2326L71.5507 66.6393C71.5126 66.7524 71.5069 66.874 71.5341 66.9903C71.5613 67.1066 71.6204 67.2129 71.7048 67.2974C71.7892 67.3819 71.8955 67.4412 72.0117 67.4686C72.1279 67.496 72.2495 67.4904 72.3627 67.4524L75.7694 66.3068C75.855 66.2783 75.9329 66.2304 75.9969 66.1668L79.0116 63.1509C79.219 62.9436 79.3835 62.6974 79.4957 62.4265C79.6079 62.1555 79.6657 61.8651 79.6657 61.5719C79.6657 61.2786 79.6079 60.9882 79.4957 60.7172C79.3835 60.4463 79.219 60.199 79.0116 59.9916ZM76.6782 60.8176C76.8783 60.6176 77.1496 60.5052 77.4325 60.5052C77.7154 60.5052 77.9867 60.6176 78.1867 60.8176C78.3868 61.0176 78.4992 61.289 78.4992 61.5719C78.4992 61.8548 78.3868 62.1261 78.1867 62.3261L75.2677 65.2428L72.9939 66.0081L73.7592 63.7354L76.6782 60.8176Z" fill="white"/>
<defs>
<filter id="filter0_i_3036_756" x="38.8838" y="22.6367" width="90.3105" height="86.3418" filterUnits="userSpaceOnUse" color-interpolation-filters="sRGB">
<feFlood flood-opacity="0" result="BackgroundImageFix"/>
<feBlend mode="normal" in="SourceGraphic" in2="BackgroundImageFix" result="shape"/>
<feColorMatrix in="SourceAlpha" type="matrix" values="0 0 0 0 0 0 0 0 0 0 0 0 0 0 0 0 0 0 127 0" result="hardAlpha"/>
<feOffset/>
<feGaussianBlur stdDeviation="0.93273"/>
<feComposite in2="hardAlpha" operator="arithmetic" k2="-1" k3="1"/>
<feColorMatrix type="matrix" values="0 0 0 0 0 0 0 0 0 0 0 0 0 0 0 0 0 0 0.25 0"/>
<feBlend mode="normal" in2="shape" result="effect1_innerShadow_3036_756"/>
</filter>
<linearGradient id="paint0_linear_3036_756" x1="638.374" y1="241.73" x2="637.614" y2="-71.6324" gradientUnits="userSpaceOnUse">
<stop stop-color="#101925"/>
<stop offset="1" stop-color="#131F31"/>
</linearGradient>
<linearGradient id="paint1_linear_3036_756" x1="73.5711" y1="97.8331" x2="73.5711" y2="27.6126" gradientUnits="userSpaceOnUse">
<stop stop-color="#0A1320"/>
<stop offset="1" stop-color="#040F1F"/>
</linearGradient>
</defs>
</svg>
