<svg width="1920" height="94" viewBox="0 0 1920 94" fill="none" xmlns="http://www.w3.org/2000/svg">
<path d="M1922.76 -12.9062L1898.57 9.85938H416.381V-12.9062H1922.76Z" fill="#111822"/>
<path d="M721.941 89.531L792.867 21.5605H1713.88" stroke="#475671"/>
<path d="M1484.05 -12.9062L1459.86 9.85938H176.879V-12.9062H1484.05Z" fill="#1A2433"/>
<path d="M1088.68 -12.9062L1064.49 9.85938H-44.4961V-12.9062H1088.68Z" fill="#233043"/>
<path d="M996.994 -12.9062L972.801 9.85938H352.781V-12.9062H996.994Z" fill="#2B3C54"/>
<path d="M599.717 -12.9062L575.523 9.85938H-44.4961V-12.9062H599.717Z" fill="#344865"/>
<path d="M765.425 26.2812L694.522 93H-898.859V26.2812H765.425Z" fill="#344865"/>
<path d="M722.219 26.2812L651.315 93H-898.859V26.2812H722.219Z" fill="#2B3C54"/>
<path d="M685.834 26.2812L614.931 93H-898.859V26.2812H685.834Z" fill="#243145"/>
<path d="M651.724 26.2812L580.82 93L-898.859 93.003V26.2843L651.724 26.2812Z" fill="url(#paint0_linear_257_439)"/>
<mask id="mask0_257_439" style="mask-type:alpha" maskUnits="userSpaceOnUse" x="29" y="-1" width="78" height="95">
<path d="M67.795 -1L29 16.1582V41.8955C29 65.7024 45.5525 87.9652 67.795 93.37C90.0375 87.9652 106.59 65.7024 106.59 41.8955V16.1582L67.795 -1Z" fill="black"/>
</mask>
<g mask="url(#mask0_257_439)">
<path d="M106.59 16.1582V41.8955C106.59 65.7025 90.0374 87.9653 67.7949 93.3701C49.2378 88.8607 34.6438 72.6161 30.3164 53.5312H38.6064C39.0514 53.9587 39.6638 54.5358 40.4189 55.2139C42.0592 56.6868 44.3846 58.655 47.123 60.6299C52.4581 64.4774 59.9109 68.7612 67.0889 68.7822C71.3206 68.7945 75.4465 67.3338 79.1445 65.3213C82.8576 63.3005 86.2996 60.6359 89.2109 58.0293C92.1302 55.4156 94.5727 52.8089 96.2832 50.8594C97.14 49.8829 97.8176 49.066 98.2842 48.4893C98.5175 48.2009 98.6988 47.9716 98.8232 47.8125C98.8853 47.7331 98.9333 47.6705 98.9668 47.627C98.9833 47.6055 98.9965 47.5884 99.0059 47.5762C99.0105 47.5701 99.0147 47.5643 99.0176 47.5605C99.0188 47.5589 99.0206 47.5578 99.0215 47.5566L99.0225 47.5547L96.8594 45.9141C98.9248 44.2814 98.9869 44.2306 98.9883 44.2285L98.9873 44.2275L98.9326 44.1592C98.8988 44.117 98.8498 44.0565 98.7871 43.9795C98.6617 43.8255 98.4792 43.6042 98.2441 43.3252C97.7739 42.7671 97.0909 41.9767 96.2285 41.0312C94.5071 39.1439 92.0528 36.6193 89.126 34.085C83.4288 29.1518 75.331 23.6335 67.1113 23.5898C60.0944 23.5527 52.6568 27.5187 47.291 31.1045C44.5392 32.9435 42.192 34.78 40.5332 36.1553C39.7531 36.8021 39.1221 37.3501 38.6689 37.752H29V16.1582L67.7949 -1L106.59 16.1582ZM67.082 29.0195C73.1842 29.0519 79.9677 33.3383 85.5713 38.1904C88.2948 40.5488 90.5956 42.913 92.2168 44.6904C92.6401 45.1545 93.0161 45.5774 93.3398 45.9482C93.0129 46.3383 92.6324 46.7868 92.2012 47.2783C90.5905 49.1141 88.3026 51.5537 85.5889 53.9834C82.8671 56.4203 79.7715 58.7979 76.5488 60.5518C73.3112 62.3137 70.102 63.3613 67.1045 63.3525C61.7642 63.3369 55.526 59.9945 50.2998 56.2256C48.1992 54.7107 46.3507 53.1924 44.9043 51.9316C45.5194 51.7232 46.1799 51.5019 46.8691 51.2666C49.5634 50.3468 52.7305 49.2512 55.4912 48.2578C56.8799 52.7423 61.0592 56 66 56C72.0751 56 76.9999 51.0751 77 45C76.9999 38.9249 72.0751 34 66 34C60.7646 34 56.3865 37.6584 55.2754 42.5576C52.2586 43.6669 48.3662 45.0181 45.1152 46.1279C43.3551 46.7288 41.7899 47.2569 40.665 47.6348C40.1028 47.8236 39.6502 47.9751 39.3389 48.0791C39.3167 48.0865 39.2951 48.0937 39.2744 48.1006H29.376C29.1804 46.4731 29.0598 44.8319 29.0186 43.1816H40.792L41.5762 42.4434L41.5811 42.4385C41.5862 42.4337 41.5953 42.4253 41.6074 42.4141C41.6319 42.3913 41.6707 42.3553 41.7227 42.3076C41.8268 42.2121 41.9849 42.0685 42.1924 41.8838C42.6082 41.5136 43.2226 40.9787 43.999 40.335C45.5551 39.0448 47.7507 37.3285 50.3086 35.6191C55.5628 32.1079 61.8162 28.9918 67.082 29.0195ZM29.376 48.1006C29.5959 49.9309 29.911 51.7434 30.3164 53.5312H27.5918V48.1006H29.376ZM66 38.1562C69.7795 38.1562 72.8437 41.2205 72.8438 45C72.8437 48.7795 69.7795 51.8438 66 51.8438C62.2205 51.8437 59.1563 48.7795 59.1562 45C59.1563 41.2205 62.2205 38.1563 66 38.1562ZM96.8594 45.9141L99.0234 47.5537L100.293 45.8789L98.9893 44.2305L96.8594 45.9141ZM29 41.8955C29 42.3248 29.0079 42.7535 29.0186 43.1816H27.5918V37.752H29V41.8955Z" fill="url(#paint1_linear_257_439)"/>
</g>
<path d="M126.371 47.7637C126.371 47.2715 126.465 46.8086 126.652 46.375C126.84 45.9297 127.098 45.5488 127.426 45.2324C127.754 44.9043 128.135 44.6465 128.568 44.459C129.014 44.2598 129.482 44.1602 129.975 44.1602H143.65C144.143 44.1602 144.605 44.2598 145.039 44.459C145.484 44.6465 145.871 44.9043 146.199 45.2324C146.527 45.5488 146.785 45.9297 146.973 46.375C147.16 46.8086 147.254 47.2715 147.254 47.7637V51.0156H143.65V47.7637H129.975V65.7637H143.65V62.5293H147.254V65.7637C147.254 66.2559 147.16 66.7246 146.973 67.1699C146.785 67.6035 146.527 67.9844 146.199 68.3125C145.871 68.6406 145.484 68.8984 145.039 69.0859C144.605 69.2734 144.143 69.3672 143.65 69.3672H129.975C129.482 69.3672 129.014 69.2734 128.568 69.0859C128.135 68.8984 127.754 68.6406 127.426 68.3125C127.098 67.9844 126.84 67.6035 126.652 67.1699C126.465 66.7246 126.371 66.2559 126.371 65.7637V47.7637ZM152.668 61.1934C152.668 60.7129 152.756 60.2676 152.932 59.8574C153.119 59.4355 153.365 59.0664 153.67 58.75C153.986 58.4336 154.355 58.1875 154.777 58.0117C155.199 57.8242 155.645 57.7305 156.113 57.7305H165.043V54.1094H153.74V50.6465H165.043C165.523 50.6465 165.975 50.7402 166.396 50.9277C166.818 51.1035 167.182 51.3496 167.486 51.666C167.803 51.9707 168.049 52.334 168.225 52.7559C168.412 53.1777 168.506 53.6289 168.506 54.1094V69.3672H165.043V66.2031C165.008 66.6367 164.891 67.0469 164.691 67.4336C164.492 67.8203 164.234 68.1602 163.918 68.4531C163.613 68.7344 163.262 68.957 162.863 69.1211C162.465 69.2852 162.043 69.3672 161.598 69.3672H156.113C155.645 69.3672 155.199 69.2793 154.777 69.1035C154.355 68.916 153.986 68.6699 153.67 68.3652C153.365 68.0488 153.119 67.6797 152.932 67.2578C152.756 66.8359 152.668 66.3848 152.668 65.9043V61.1934ZM156.113 65.9043H165.043V61.1934H156.113V65.9043ZM185.592 65.9043V61.5625H177.383C176.902 61.5625 176.451 61.4746 176.029 61.2988C175.607 61.1113 175.238 60.8652 174.922 60.5605C174.617 60.2441 174.371 59.875 174.184 59.4531C174.008 59.0312 173.92 58.5801 173.92 58.0996V54.1094C173.92 53.6289 174.008 53.1777 174.184 52.7559C174.371 52.334 174.617 51.9707 174.922 51.666C175.238 51.3496 175.607 51.1035 176.029 50.9277C176.451 50.7402 176.902 50.6465 177.383 50.6465H188.334V54.1094H177.383V58.0996H185.592C186.072 58.0996 186.518 58.1934 186.928 58.3809C187.35 58.5566 187.719 58.8027 188.035 59.1191C188.352 59.4238 188.598 59.7871 188.773 60.209C188.961 60.6309 189.055 61.082 189.055 61.5625V65.9043C189.055 66.3848 188.961 66.8359 188.773 67.2578C188.598 67.6797 188.352 68.0488 188.035 68.3652C187.719 68.6699 187.35 68.916 186.928 69.1035C186.518 69.2793 186.072 69.3672 185.592 69.3672H173.92V65.9043H185.592ZM210.307 61.7734H197.914V65.9043H210.307V69.3672H197.914C197.445 69.3672 197 69.2793 196.578 69.1035C196.156 68.916 195.787 68.6699 195.471 68.3652C195.166 68.0488 194.92 67.6797 194.732 67.2578C194.557 66.8359 194.469 66.3848 194.469 65.9043V54.1094C194.469 53.6289 194.557 53.1777 194.732 52.7559C194.92 52.334 195.166 51.9707 195.471 51.666C195.787 51.3496 196.156 51.1035 196.578 50.9277C197 50.7402 197.445 50.6465 197.914 50.6465H206.844C207.324 50.6465 207.775 50.7402 208.197 50.9277C208.619 51.1035 208.982 51.3496 209.287 51.666C209.604 51.9707 209.85 52.334 210.025 52.7559C210.213 53.1777 210.307 53.6289 210.307 54.1094V61.7734ZM197.914 54.1094V58.3105H206.844V54.1094H197.914ZM238.396 44.1602L248.117 69.3672H244.514L242.281 63.5664H230.908L228.676 69.3672H225.072L234.793 44.1602H238.396ZM232.279 59.9629H240.893L236.604 48.8535L232.279 59.9629ZM268.648 69.3672H265.186V54.1094H255.535V69.3672H252.09V50.6465H255.535V53.9512C255.559 53.4941 255.664 53.0664 255.852 52.668C256.039 52.2578 256.285 51.9062 256.59 51.6133C256.906 51.3086 257.27 51.0742 257.68 50.9102C258.09 50.7344 258.529 50.6465 258.998 50.6465H265.186C265.666 50.6465 266.117 50.7402 266.539 50.9277C266.961 51.1035 267.324 51.3496 267.629 51.666C267.945 51.9707 268.191 52.334 268.367 52.7559C268.555 53.1777 268.648 53.6289 268.648 54.1094V69.3672ZM274.414 61.1934C274.414 60.7129 274.502 60.2676 274.678 59.8574C274.865 59.4355 275.111 59.0664 275.416 58.75C275.732 58.4336 276.102 58.1875 276.523 58.0117C276.945 57.8242 277.391 57.7305 277.859 57.7305H286.789V54.1094H275.486V50.6465H286.789C287.27 50.6465 287.721 50.7402 288.143 50.9277C288.564 51.1035 288.928 51.3496 289.232 51.666C289.549 51.9707 289.795 52.334 289.971 52.7559C290.158 53.1777 290.252 53.6289 290.252 54.1094V69.3672H286.789V66.2031C286.754 66.6367 286.637 67.0469 286.438 67.4336C286.238 67.8203 285.98 68.1602 285.664 68.4531C285.359 68.7344 285.008 68.957 284.609 69.1211C284.211 69.2852 283.789 69.3672 283.344 69.3672H277.859C277.391 69.3672 276.945 69.2793 276.523 69.1035C276.102 68.916 275.732 68.6699 275.416 68.3652C275.111 68.0488 274.865 67.6797 274.678 67.2578C274.502 66.8359 274.414 66.3848 274.414 65.9043V61.1934ZM277.859 65.9043H286.789V61.1934H277.859V65.9043ZM299.48 43.4395V69.3672H296.035V43.4395H299.48ZM306.512 76.9258L310.432 67.6797L303.084 50.6465H306.723L312.189 63.5312L317.656 50.6465H321.295L309.957 76.9258H306.512ZM323.809 50.6465H328.379V44.8809H331.842V50.6465H337.994V54.1094H331.842V65.9043H337.994V69.3672H331.842C331.373 69.3672 330.928 69.2793 330.506 69.1035C330.084 68.916 329.715 68.6699 329.398 68.3652C329.082 68.0488 328.83 67.6797 328.643 67.2578C328.467 66.8359 328.379 66.3848 328.379 65.9043V54.1094H323.809V50.6465ZM347.416 50.6465V69.3672H343.953V50.6465H347.416ZM343.777 43.4395H347.592V47.043H343.777V43.4395ZM356.82 54.1094V65.9043H365.75V62.7402H369.213V65.9043C369.213 66.3848 369.119 66.8359 368.932 67.2578C368.756 67.6797 368.51 68.0488 368.193 68.3652C367.889 68.6699 367.525 68.916 367.104 69.1035C366.682 69.2793 366.23 69.3672 365.75 69.3672H356.82C356.352 69.3672 355.906 69.2793 355.484 69.1035C355.062 68.916 354.693 68.6699 354.377 68.3652C354.072 68.0488 353.826 67.6797 353.639 67.2578C353.463 66.8359 353.375 66.3848 353.375 65.9043V54.1094C353.375 53.6289 353.463 53.1777 353.639 52.7559C353.826 52.334 354.072 51.9707 354.377 51.666C354.693 51.3496 355.062 51.1035 355.484 50.9277C355.906 50.7402 356.352 50.6465 356.82 50.6465H365.75C366.23 50.6465 366.682 50.7402 367.104 50.9277C367.525 51.1035 367.889 51.3496 368.193 51.666C368.51 51.9707 368.756 52.334 368.932 52.7559C369.119 53.1777 369.213 53.6289 369.213 54.1094V57.2734H365.75V54.1094H356.82ZM386.299 65.9043V61.5625H378.09C377.609 61.5625 377.158 61.4746 376.736 61.2988C376.314 61.1113 375.945 60.8652 375.629 60.5605C375.324 60.2441 375.078 59.875 374.891 59.4531C374.715 59.0312 374.627 58.5801 374.627 58.0996V54.1094C374.627 53.6289 374.715 53.1777 374.891 52.7559C375.078 52.334 375.324 51.9707 375.629 51.666C375.945 51.3496 376.314 51.1035 376.736 50.9277C377.158 50.7402 377.609 50.6465 378.09 50.6465H389.041V54.1094H378.09V58.0996H386.299C386.779 58.0996 387.225 58.1934 387.635 58.3809C388.057 58.5566 388.426 58.8027 388.742 59.1191C389.059 59.4238 389.305 59.7871 389.48 60.209C389.668 60.6309 389.762 61.082 389.762 61.5625V65.9043C389.762 66.3848 389.668 66.8359 389.48 67.2578C389.305 67.6797 389.059 68.0488 388.742 68.3652C388.426 68.6699 388.057 68.916 387.635 69.1035C387.225 69.2793 386.779 69.3672 386.299 69.3672H374.627V65.9043H386.299ZM406.32 69.3672V44.1602H420.119C424.197 44.1602 426.236 46.2051 426.236 50.2949V53.8809C426.236 57.9707 424.197 60.0156 420.119 60.0156H409.924V69.3672H406.32ZM409.924 56.4121H419.926C420.887 56.4121 421.578 56.2012 422 55.7793C422.422 55.3574 422.633 54.666 422.633 53.7051V50.4707C422.633 49.5098 422.422 48.8184 422 48.3965C421.578 47.9746 420.887 47.7637 419.926 47.7637H409.924V56.4121ZM434.375 43.4395V69.3672H430.93V43.4395H434.375ZM440.141 61.1934C440.141 60.7129 440.229 60.2676 440.404 59.8574C440.592 59.4355 440.838 59.0664 441.143 58.75C441.459 58.4336 441.828 58.1875 442.25 58.0117C442.672 57.8242 443.117 57.7305 443.586 57.7305H452.516V54.1094H441.213V50.6465H452.516C452.996 50.6465 453.447 50.7402 453.869 50.9277C454.291 51.1035 454.654 51.3496 454.959 51.666C455.275 51.9707 455.521 52.334 455.697 52.7559C455.885 53.1777 455.979 53.6289 455.979 54.1094V69.3672H452.516V66.2031C452.48 66.6367 452.363 67.0469 452.164 67.4336C451.965 67.8203 451.707 68.1602 451.391 68.4531C451.086 68.7344 450.734 68.957 450.336 69.1211C449.938 69.2852 449.516 69.3672 449.07 69.3672H443.586C443.117 69.3672 442.672 69.2793 442.25 69.1035C441.828 68.916 441.459 68.6699 441.143 68.3652C440.838 68.0488 440.592 67.6797 440.404 67.2578C440.229 66.8359 440.141 66.3848 440.141 65.9043V61.1934ZM443.586 65.9043H452.516V61.1934H443.586V65.9043ZM460.672 50.6465H465.242V44.8809H468.705V50.6465H474.857V54.1094H468.705V65.9043H474.857V69.3672H468.705C468.236 69.3672 467.791 69.2793 467.369 69.1035C466.947 68.916 466.578 68.6699 466.262 68.3652C465.945 68.0488 465.693 67.6797 465.506 67.2578C465.33 66.8359 465.242 66.3848 465.242 65.9043V54.1094H460.672V50.6465ZM487.584 46.9023V50.6465H493.736V54.1094H487.584V69.3672H484.121V54.1094H479.551V50.6465H484.121V46.9023C484.121 46.4219 484.209 45.9766 484.385 45.5664C484.572 45.1445 484.824 44.7754 485.141 44.459C485.457 44.1426 485.826 43.8965 486.248 43.7207C486.67 43.5332 487.115 43.4395 487.584 43.4395H493.736V46.9023H487.584ZM514.619 65.9043C514.619 66.3848 514.525 66.8359 514.338 67.2578C514.162 67.6797 513.916 68.0488 513.6 68.3652C513.295 68.6699 512.932 68.916 512.51 69.1035C512.1 69.2793 511.654 69.3672 511.174 69.3672H501.875C501.406 69.3672 500.961 69.2793 500.539 69.1035C500.117 68.916 499.748 68.6699 499.432 68.3652C499.127 68.0488 498.881 67.6797 498.693 67.2578C498.518 66.8359 498.43 66.3848 498.43 65.9043V54.1094C498.43 53.6289 498.518 53.1777 498.693 52.7559C498.881 52.334 499.127 51.9707 499.432 51.666C499.748 51.3496 500.117 51.1035 500.539 50.9277C500.961 50.7402 501.406 50.6465 501.875 50.6465H511.174C511.654 50.6465 512.1 50.7402 512.51 50.9277C512.932 51.1035 513.295 51.3496 513.6 51.666C513.916 51.9707 514.162 52.334 514.338 52.7559C514.525 53.1777 514.619 53.6289 514.619 54.1094V65.9043ZM501.875 54.1094V65.9043H511.174V54.1094H501.875ZM523.848 54.1094V69.3672H520.402V50.6465H523.848V53.9512C523.871 53.4941 523.977 53.0664 524.164 52.668C524.352 52.2578 524.598 51.9062 524.902 51.6133C525.219 51.3086 525.582 51.0742 525.992 50.9102C526.402 50.7344 526.842 50.6465 527.311 50.6465H530.984C531.465 50.6465 531.91 50.7402 532.32 50.9277C532.742 51.1035 533.111 51.3496 533.428 51.666C533.744 51.9707 533.99 52.334 534.166 52.7559C534.354 53.1777 534.447 53.6289 534.447 54.1094V57.2734H530.984V54.1094H523.848ZM553.59 54.1094V69.3672H550.127V54.1094H542.199V69.3672H538.754V50.6465H542.199V53.9512C542.223 53.4941 542.328 53.0664 542.516 52.668C542.703 52.2578 542.949 51.9062 543.254 51.6133C543.57 51.3086 543.934 51.0742 544.344 50.9102C544.754 50.7344 545.193 50.6465 545.662 50.6465H550.127C550.584 50.6465 551.018 50.7344 551.428 50.9102C551.838 51.0742 552.201 51.3086 552.518 51.6133C552.834 51.9062 553.086 52.2578 553.273 52.668C553.473 53.0664 553.578 53.4941 553.59 53.9512C553.613 53.4941 553.713 53.0664 553.889 52.668C554.076 52.2578 554.322 51.9062 554.627 51.6133C554.943 51.3086 555.307 51.0742 555.717 50.9102C556.127 50.7344 556.566 50.6465 557.035 50.6465H561.5C561.98 50.6465 562.432 50.7402 562.854 50.9277C563.275 51.1035 563.639 51.3496 563.943 51.666C564.26 51.9707 564.506 52.334 564.682 52.7559C564.869 53.1777 564.963 53.6289 564.963 54.1094V69.3672H561.5V54.1094H553.59Z" fill="#EDC702"/>
<path d="M126.652 46.375L127.733 46.8424L127.738 46.832L126.652 46.375ZM127.426 45.2324L128.243 46.0802L128.251 46.0727L128.259 46.0652L127.426 45.2324ZM128.568 44.459L129.036 45.5399L129.043 45.537L129.049 45.534L128.568 44.459ZM145.039 44.459L144.547 45.5291L144.565 45.537L144.582 45.5444L145.039 44.459ZM146.199 45.2324L145.366 46.0652L145.374 46.0727L145.382 46.0802L146.199 45.2324ZM146.973 46.375L145.887 46.832L145.892 46.8424L146.973 46.375ZM147.254 51.0156V52.1933H148.432V51.0156H147.254ZM143.65 51.0156H142.473V52.1933H143.65V51.0156ZM143.65 47.7637H144.828V46.586H143.65V47.7637ZM129.975 47.7637V46.586H128.797V47.7637H129.975ZM129.975 65.7637H128.797V66.9413H129.975V65.7637ZM143.65 65.7637V66.9413H144.828V65.7637H143.65ZM143.65 62.5293V61.3516H142.473V62.5293H143.65ZM147.254 62.5293H148.432V61.3516H147.254V62.5293ZM146.973 67.1699L148.054 67.6374L148.058 67.6269L146.973 67.1699ZM145.039 69.0859L144.582 68.0005L144.572 68.005L145.039 69.0859ZM128.568 69.0859L128.101 70.1669L128.111 70.1713L128.568 69.0859ZM126.652 67.1699L125.567 67.6269L125.571 67.6373L126.652 67.1699ZM126.371 47.7637H127.549C127.549 47.4254 127.612 47.1223 127.733 46.8424L126.652 46.375L125.571 45.9076C125.317 46.4949 125.193 47.1176 125.193 47.7637H126.371ZM126.652 46.375L127.738 46.832C127.867 46.5248 128.037 46.2792 128.243 46.0802L127.426 45.2324L126.608 44.3847C126.159 44.8184 125.813 45.3346 125.567 45.918L126.652 46.375ZM127.426 45.2324L128.259 46.0652C128.48 45.844 128.736 45.6695 129.036 45.5399L128.568 44.459L128.101 43.3781C127.534 43.6234 127.028 43.9646 126.593 44.3997L127.426 45.2324ZM128.568 44.459L129.049 45.534C129.342 45.4031 129.647 45.3378 129.975 45.3378V44.1602V42.9825C129.318 42.9825 128.685 43.1165 128.087 43.384L128.568 44.459ZM129.975 44.1602V45.3378H143.65V44.1602V42.9825H129.975V44.1602ZM143.65 44.1602V45.3378C143.978 45.3378 144.273 45.403 144.547 45.5291L145.039 44.459L145.531 43.3889C144.938 43.1165 144.307 42.9825 143.65 42.9825V44.1602ZM145.039 44.459L144.582 45.5444C144.893 45.6752 145.151 45.8492 145.366 46.0652L146.199 45.2324L147.032 44.3997C146.592 43.9594 146.076 43.6178 145.496 43.3736L145.039 44.459ZM146.199 45.2324L145.382 46.0802C145.588 46.2792 145.758 46.5248 145.887 46.832L146.973 46.375L148.058 45.918C147.812 45.3346 147.466 44.8184 147.017 44.3847L146.199 45.2324ZM146.973 46.375L145.892 46.8424C146.013 47.1223 146.076 47.4254 146.076 47.7637H147.254H148.432C148.432 47.1176 148.308 46.4949 148.054 45.9076L146.973 46.375ZM147.254 47.7637H146.076V51.0156H147.254H148.432V47.7637H147.254ZM147.254 51.0156V49.838H143.65V51.0156V52.1933H147.254V51.0156ZM143.65 51.0156H144.828V47.7637H143.65H142.473V51.0156H143.65ZM143.65 47.7637V46.586H129.975V47.7637V48.9413H143.65V47.7637ZM129.975 47.7637H128.797V65.7637H129.975H131.152V47.7637H129.975ZM129.975 65.7637V66.9413H143.65V65.7637V64.586H129.975V65.7637ZM143.65 65.7637H144.828V62.5293H143.65H142.473V65.7637H143.65ZM143.65 62.5293V63.707H147.254V62.5293V61.3516H143.65V62.5293ZM147.254 62.5293H146.076V65.7637H147.254H148.432V62.5293H147.254ZM147.254 65.7637H146.076C146.076 66.1019 146.013 66.415 145.887 66.7129L146.973 67.1699L148.058 67.6269C148.308 67.0342 148.432 66.4098 148.432 65.7637H147.254ZM146.973 67.1699L145.892 66.7025C145.762 67.0023 145.588 67.2586 145.366 67.4798L146.199 68.3125L147.032 69.1452C147.467 68.7102 147.808 68.2048 148.054 67.6373L146.973 67.1699ZM146.199 68.3125L145.366 67.4798C145.151 67.6957 144.893 67.8697 144.582 68.0006L145.039 69.0859L145.496 70.1713C146.076 69.9272 146.592 69.5855 147.032 69.1452L146.199 68.3125ZM145.039 69.0859L144.572 68.005C144.292 68.126 143.989 68.1895 143.65 68.1895V69.3672V70.5448C144.296 70.5448 144.919 70.4208 145.506 70.1669L145.039 69.0859ZM143.65 69.3672V68.1895H129.975V69.3672V70.5448H143.65V69.3672ZM129.975 69.3672V68.1895C129.636 68.1895 129.323 68.126 129.025 68.0006L128.568 69.0859L128.111 70.1713C128.704 70.4209 129.328 70.5448 129.975 70.5448V69.3672ZM128.568 69.0859L129.036 68.005C128.736 67.8754 128.48 67.701 128.259 67.4798L127.426 68.3125L126.593 69.1452C127.028 69.5803 127.534 69.9215 128.101 70.1669L128.568 69.0859ZM127.426 68.3125L128.259 67.4798C128.037 67.2586 127.863 67.0023 127.733 66.7025L126.652 67.1699L125.571 67.6373C125.817 68.2048 126.158 68.7102 126.593 69.1452L127.426 68.3125ZM126.652 67.1699L127.738 66.7129C127.612 66.415 127.549 66.1019 127.549 65.7637H126.371H125.193C125.193 66.4098 125.317 67.0342 125.567 67.6269L126.652 67.1699ZM126.371 65.7637H127.549V47.7637H126.371H125.193V65.7637H126.371ZM152.932 59.8574L151.855 59.3791L151.852 59.3863L151.849 59.3935L152.932 59.8574ZM153.67 58.75L152.837 57.9173L152.829 57.9251L152.822 57.9331L153.67 58.75ZM154.777 58.0117L155.23 59.0988L155.243 59.0935L155.256 59.0879L154.777 58.0117ZM165.043 57.7305V58.9081H166.221V57.7305H165.043ZM165.043 54.1094H166.221V52.9317H165.043V54.1094ZM153.74 54.1094H152.563V55.287H153.74V54.1094ZM153.74 50.6465V49.4688H152.563V50.6465H153.74ZM166.396 50.9277L165.918 52.0039L165.931 52.0095L165.944 52.0148L166.396 50.9277ZM167.486 51.666L166.638 52.4829L166.653 52.4989L166.669 52.5143L167.486 51.666ZM168.225 52.7559L167.138 53.2088L167.143 53.2215L167.148 53.2342L168.225 52.7559ZM168.506 69.3672V70.5448H169.684V69.3672H168.506ZM165.043 69.3672H163.865V70.5448H165.043V69.3672ZM165.043 66.2031H166.221L163.869 66.108L165.043 66.2031ZM163.918 68.4531L164.717 69.3185L164.718 69.3172L163.918 68.4531ZM154.777 69.1035L154.299 70.1797L154.312 70.1853L154.324 70.1906L154.777 69.1035ZM153.67 68.3652L152.822 69.1821L152.837 69.1981L152.853 69.2135L153.67 68.3652ZM152.932 67.2578L151.845 67.7108L151.85 67.7235L151.855 67.7361L152.932 67.2578ZM156.113 65.9043H154.936V67.082H156.113V65.9043ZM165.043 65.9043V67.082H166.221V65.9043H165.043ZM165.043 61.1934H166.221V60.0157H165.043V61.1934ZM156.113 61.1934V60.0157H154.936V61.1934H156.113ZM152.668 61.1934H153.846C153.846 60.86 153.906 60.5739 154.014 60.3213L152.932 59.8574L151.849 59.3935C151.606 59.9612 151.49 60.5658 151.49 61.1934H152.668ZM152.932 59.8574L154.008 60.3357C154.142 60.0326 154.313 59.7796 154.518 59.5669L153.67 58.75L152.822 57.9331C152.417 58.3532 152.096 58.8384 151.855 59.3791L152.932 59.8574ZM153.67 58.75L154.503 59.5827C154.708 59.3774 154.947 59.2167 155.23 59.0988L154.777 58.0117L154.324 56.9247C153.764 57.1583 153.265 57.4897 152.837 57.9173L153.67 58.75ZM154.777 58.0117L155.256 59.0879C155.525 58.9683 155.807 58.9081 156.113 58.9081V57.7305V56.5528C155.482 56.5528 154.874 56.6801 154.299 56.9356L154.777 58.0117ZM156.113 57.7305V58.9081H165.043V57.7305V56.5528H156.113V57.7305ZM165.043 57.7305H166.221V54.1094H165.043H163.865V57.7305H165.043ZM165.043 54.1094V52.9317H153.74V54.1094V55.287H165.043V54.1094ZM153.74 54.1094H154.918V50.6465H153.74H152.563V54.1094H153.74ZM153.74 50.6465V51.8241H165.043V50.6465V49.4688H153.74V50.6465ZM165.043 50.6465V51.8241C165.366 51.8241 165.653 51.886 165.918 52.0039L166.396 50.9277L166.875 49.8516C166.296 49.5944 165.681 49.4688 165.043 49.4688V50.6465ZM166.396 50.9277L165.944 52.0148C166.223 52.1311 166.45 52.2874 166.638 52.4829L167.486 51.666L168.335 50.8491C167.914 50.4118 167.414 50.0759 166.849 49.8407L166.396 50.9277ZM167.486 51.666L166.669 52.5143C166.865 52.7026 167.021 52.9297 167.138 53.2088L168.225 52.7559L169.312 52.3029C169.076 51.7383 168.741 51.2388 168.303 50.8177L167.486 51.666ZM168.225 52.7559L167.148 53.2342C167.266 53.4993 167.328 53.7868 167.328 54.1094H168.506H169.684C169.684 53.471 169.558 52.8562 169.301 52.2776L168.225 52.7559ZM168.506 54.1094H167.328V69.3672H168.506H169.684V54.1094H168.506ZM168.506 69.3672V68.1895H165.043V69.3672V70.5448H168.506V69.3672ZM165.043 69.3672H166.221V66.2031H165.043H163.865V69.3672H165.043ZM165.043 66.2031L163.869 66.108C163.847 66.3866 163.773 66.6458 163.644 66.8943L164.691 67.4336L165.738 67.9729C166.009 67.448 166.169 66.8869 166.217 66.2983L165.043 66.2031ZM164.691 67.4336L163.644 66.8943C163.507 67.1603 163.333 67.39 163.118 67.589L163.918 68.4531L164.718 69.3172C165.136 68.9304 165.477 68.4803 165.738 67.9729L164.691 67.4336ZM163.918 68.4531L163.119 67.5878C162.921 67.7706 162.689 67.9191 162.415 68.0321L162.863 69.1211L163.312 70.21C163.834 69.9949 164.305 69.6981 164.717 69.3185L163.918 68.4531ZM162.863 69.1211L162.415 68.0321C162.163 68.1357 161.894 68.1895 161.598 68.1895V69.3672V70.5448C162.192 70.5448 162.766 70.4346 163.312 70.21L162.863 69.1211ZM161.598 69.3672V68.1895H156.113V69.3672V70.5448H161.598V69.3672ZM156.113 69.3672V68.1895C155.796 68.1895 155.505 68.1309 155.23 68.0164L154.777 69.1035L154.324 70.1906C154.894 70.4277 155.493 70.5448 156.113 70.5448V69.3672ZM154.777 69.1035L155.256 68.0274C154.953 67.8927 154.699 67.7218 154.487 67.5169L153.67 68.3652L152.853 69.2135C153.273 69.6181 153.758 69.9394 154.299 70.1797L154.777 69.1035ZM153.67 68.3652L154.518 67.5484C154.313 67.3357 154.142 67.0826 154.008 66.7795L152.932 67.2578L151.855 67.7361C152.096 68.2768 152.417 68.762 152.822 69.1821L153.67 68.3652ZM152.932 67.2578L154.019 66.8049C153.906 66.5338 153.846 66.2374 153.846 65.9043H152.668H151.49C151.49 66.5321 151.606 67.1381 151.845 67.7108L152.932 67.2578ZM152.668 65.9043H153.846V61.1934H152.668H151.49V65.9043H152.668ZM156.113 65.9043V67.082H165.043V65.9043V64.7266H156.113V65.9043ZM165.043 65.9043H166.221V61.1934H165.043H163.865V65.9043H165.043ZM165.043 61.1934V60.0157H156.113V61.1934V62.371H165.043V61.1934ZM156.113 61.1934H154.936V65.9043H156.113H157.291V61.1934H156.113ZM185.592 65.9043V67.082H186.769V65.9043H185.592ZM185.592 61.5625H186.769V60.3848H185.592V61.5625ZM176.029 61.2988L175.551 62.375L175.564 62.3806L175.576 62.3859L176.029 61.2988ZM174.922 60.5605L174.074 61.3774L174.089 61.3934L174.105 61.4088L174.922 60.5605ZM174.184 59.4531L173.097 59.9061L173.102 59.9188L173.107 59.9314L174.184 59.4531ZM174.184 52.7559L173.107 52.2776L173.102 52.2902L173.097 52.3029L174.184 52.7559ZM176.029 50.9277L176.482 52.0148L176.495 52.0095L176.508 52.0039L176.029 50.9277ZM188.334 50.6465H189.512V49.4688H188.334V50.6465ZM188.334 54.1094V55.287H189.512V54.1094H188.334ZM177.383 54.1094V52.9317H176.205V54.1094H177.383ZM177.383 58.0996H176.205V59.2773H177.383V58.0996ZM186.928 58.3809L186.438 59.4519L186.456 59.4602L186.475 59.4679L186.928 58.3809ZM188.035 59.1191L187.202 59.9519L187.21 59.9597L187.218 59.9674L188.035 59.1191ZM188.773 60.209L187.686 60.6619L187.692 60.6747L187.697 60.6873L188.773 60.209ZM188.773 67.2578L187.697 66.7795L187.692 66.7921L187.686 66.8049L188.773 67.2578ZM188.035 68.3652L188.852 69.2135L188.86 69.2058L188.868 69.198L188.035 68.3652ZM186.928 69.1035L187.392 70.186L187.399 70.1829L187.406 70.1797L186.928 69.1035ZM173.92 69.3672H172.742V70.5448H173.92V69.3672ZM173.92 65.9043V64.7266H172.742V65.9043H173.92ZM185.592 65.9043H186.769V61.5625H185.592H184.414V65.9043H185.592ZM185.592 61.5625V60.3848H177.383V61.5625V62.7402H185.592V61.5625ZM177.383 61.5625V60.3848C177.05 60.3848 176.753 60.3247 176.482 60.2118L176.029 61.2988L175.576 62.3859C176.149 62.6245 176.755 62.7402 177.383 62.7402V61.5625ZM176.029 61.2988L176.508 60.2227C176.205 60.088 175.951 59.9171 175.739 59.7123L174.922 60.5605L174.105 61.4088C174.525 61.8134 175.01 62.1347 175.551 62.375L176.029 61.2988ZM174.922 60.5605L175.77 59.7437C175.565 59.531 175.394 59.2779 175.26 58.9748L174.184 59.4531L173.107 59.9314C173.348 60.4721 173.669 60.9573 174.074 61.3774L174.922 60.5605ZM174.184 59.4531L175.271 59.0002C175.158 58.7291 175.098 58.4327 175.098 58.0996H173.92H172.742C172.742 58.7275 172.858 59.3334 173.097 59.9061L174.184 59.4531ZM173.92 58.0996H175.098V54.1094H173.92H172.742V58.0996H173.92ZM173.92 54.1094H175.098C175.098 53.7763 175.158 53.4799 175.271 53.2088L174.184 52.7559L173.097 52.3029C172.858 52.8756 172.742 53.4815 172.742 54.1094H173.92ZM174.184 52.7559L175.26 53.2342C175.393 52.9349 175.559 52.6941 175.755 52.4987L174.922 51.666L174.089 50.8333C173.675 51.2473 173.349 51.7331 173.107 52.2776L174.184 52.7559ZM174.922 51.666L175.755 52.4987C175.96 52.2935 176.199 52.1327 176.482 52.0148L176.029 50.9277L175.576 49.8407C175.016 50.0743 174.517 50.4058 174.089 50.8333L174.922 51.666ZM176.029 50.9277L176.508 52.0039C176.773 51.886 177.06 51.8241 177.383 51.8241V50.6465V49.4688C176.744 49.4688 176.13 49.5944 175.551 49.8516L176.029 50.9277ZM177.383 50.6465V51.8241H188.334V50.6465V49.4688H177.383V50.6465ZM188.334 50.6465H187.156V54.1094H188.334H189.512V50.6465H188.334ZM188.334 54.1094V52.9317H177.383V54.1094V55.287H188.334V54.1094ZM177.383 54.1094H176.205V58.0996H177.383H178.56V54.1094H177.383ZM177.383 58.0996V59.2773H185.592V58.0996V56.922H177.383V58.0996ZM185.592 58.0996V59.2773C185.915 59.2773 186.192 59.3392 186.438 59.4519L186.928 58.3809L187.417 57.3098C186.844 57.0475 186.23 56.922 185.592 56.922V58.0996ZM186.928 58.3809L186.475 59.4679C186.758 59.5858 186.997 59.7466 187.202 59.9519L188.035 59.1191L188.868 58.2864C188.44 57.8589 187.941 57.5274 187.381 57.2938L186.928 58.3809ZM188.035 59.1191L187.218 59.9674C187.414 60.1557 187.57 60.3828 187.686 60.6619L188.773 60.209L189.861 59.756C189.625 59.1914 189.289 58.692 188.852 58.2709L188.035 59.1191ZM188.773 60.209L187.697 60.6873C187.815 60.9524 187.877 61.2399 187.877 61.5625H189.055H190.232C190.232 60.9241 190.107 60.3093 189.85 59.7307L188.773 60.209ZM189.055 61.5625H187.877V65.9043H189.055H190.232V61.5625H189.055ZM189.055 65.9043H187.877C187.877 66.2269 187.815 66.5144 187.697 66.7795L188.773 67.2578L189.85 67.7361C190.107 67.1575 190.232 66.5427 190.232 65.9043H189.055ZM188.773 67.2578L187.686 66.8049C187.568 67.0879 187.408 67.3272 187.202 67.5325L188.035 68.3652L188.868 69.198C189.295 68.7704 189.627 68.2715 189.861 67.7108L188.773 67.2578ZM188.035 68.3652L187.218 67.5169C187.006 67.7218 186.753 67.8927 186.449 68.0274L186.928 69.1035L187.406 70.1797C187.947 69.9394 188.432 69.6181 188.852 69.2135L188.035 68.3652ZM186.928 69.1035L186.464 68.0211C186.211 68.1293 185.925 68.1895 185.592 68.1895V69.3672V70.5448C186.219 70.5448 186.824 70.4293 187.392 70.186L186.928 69.1035ZM185.592 69.3672V68.1895H173.92V69.3672V70.5448H185.592V69.3672ZM173.92 69.3672H175.098V65.9043H173.92H172.742V69.3672H173.92ZM173.92 65.9043V67.082H185.592V65.9043V64.7266H173.92V65.9043ZM210.307 61.7734V62.9511H211.484V61.7734H210.307ZM197.914 61.7734V60.5958H196.736V61.7734H197.914ZM197.914 65.9043H196.736V67.082H197.914V65.9043ZM210.307 65.9043H211.484V64.7266H210.307V65.9043ZM210.307 69.3672V70.5448H211.484V69.3672H210.307ZM196.578 69.1035L196.1 70.1797L196.112 70.1853L196.125 70.1906L196.578 69.1035ZM195.471 68.3652L194.622 69.1821L194.638 69.1981L194.654 69.2135L195.471 68.3652ZM194.732 67.2578L193.645 67.7108L193.651 67.7235L193.656 67.7361L194.732 67.2578ZM194.732 52.7559L193.656 52.2776L193.651 52.2902L193.645 52.3029L194.732 52.7559ZM196.578 50.9277L197.031 52.0148L197.044 52.0095L197.056 52.0039L196.578 50.9277ZM208.197 50.9277L207.719 52.0039L207.732 52.0095L207.744 52.0148L208.197 50.9277ZM209.287 51.666L208.439 52.4829L208.454 52.4989L208.47 52.5143L209.287 51.666ZM210.025 52.7559L208.938 53.2088L208.944 53.2215L208.949 53.2342L210.025 52.7559ZM197.914 54.1094V52.9317H196.736V54.1094H197.914ZM197.914 58.3105H196.736V59.4882H197.914V58.3105ZM206.844 58.3105V59.4882H208.021V58.3105H206.844ZM206.844 54.1094H208.021V52.9317H206.844V54.1094ZM210.307 61.7734V60.5958H197.914V61.7734V62.9511H210.307V61.7734ZM197.914 61.7734H196.736V65.9043H197.914H199.092V61.7734H197.914ZM197.914 65.9043V67.082H210.307V65.9043V64.7266H197.914V65.9043ZM210.307 65.9043H209.129V69.3672H210.307H211.484V65.9043H210.307ZM210.307 69.3672V68.1895H197.914V69.3672V70.5448H210.307V69.3672ZM197.914 69.3672V68.1895C197.597 68.1895 197.306 68.1309 197.031 68.0164L196.578 69.1035L196.125 70.1906C196.694 70.4277 197.294 70.5448 197.914 70.5448V69.3672ZM196.578 69.1035L197.056 68.0274C196.753 67.8927 196.5 67.7218 196.288 67.5169L195.471 68.3652L194.654 69.2135C195.074 69.6181 195.559 69.9394 196.1 70.1797L196.578 69.1035ZM195.471 68.3652L196.319 67.5484C196.114 67.3357 195.943 67.0826 195.809 66.7795L194.732 67.2578L193.656 67.7361C193.897 68.2768 194.218 68.762 194.622 69.1821L195.471 68.3652ZM194.732 67.2578L195.819 66.8049C195.707 66.5338 195.646 66.2374 195.646 65.9043H194.469H193.291C193.291 66.5321 193.407 67.1381 193.645 67.7108L194.732 67.2578ZM194.469 65.9043H195.646V54.1094H194.469H193.291V65.9043H194.469ZM194.469 54.1094H195.646C195.646 53.7763 195.707 53.4799 195.819 53.2088L194.732 52.7559L193.645 52.3029C193.407 52.8756 193.291 53.4815 193.291 54.1094H194.469ZM194.732 52.7559L195.809 53.2342C195.942 52.9349 196.108 52.6941 196.303 52.4987L195.471 51.666L194.638 50.8333C194.224 51.2473 193.898 51.7331 193.656 52.2776L194.732 52.7559ZM195.471 51.666L196.303 52.4987C196.509 52.2935 196.748 52.1327 197.031 52.0148L196.578 50.9277L196.125 49.8407C195.564 50.0743 195.066 50.4058 194.638 50.8333L195.471 51.666ZM196.578 50.9277L197.056 52.0039C197.325 51.8844 197.607 51.8241 197.914 51.8241V50.6465V49.4688C197.283 49.4688 196.675 49.5961 196.1 49.8516L196.578 50.9277ZM197.914 50.6465V51.8241H206.844V50.6465V49.4688H197.914V50.6465ZM206.844 50.6465V51.8241C207.166 51.8241 207.454 51.886 207.719 52.0039L208.197 50.9277L208.676 49.8516C208.097 49.5944 207.482 49.4688 206.844 49.4688V50.6465ZM208.197 50.9277L207.744 52.0148C208.023 52.1311 208.251 52.2874 208.439 52.4829L209.287 51.666L210.135 50.8491C209.714 50.4118 209.215 50.0759 208.65 49.8407L208.197 50.9277ZM209.287 51.666L208.47 52.5143C208.666 52.7026 208.822 52.9297 208.938 53.2088L210.025 52.7559L211.112 52.3029C210.877 51.7383 210.541 51.2388 210.104 50.8177L209.287 51.666ZM210.025 52.7559L208.949 53.2342C209.067 53.4993 209.129 53.7868 209.129 54.1094H210.307H211.484C211.484 53.471 211.359 52.8562 211.102 52.2776L210.025 52.7559ZM210.307 54.1094H209.129V61.7734H210.307H211.484V54.1094H210.307ZM197.914 54.1094H196.736V58.3105H197.914H199.092V54.1094H197.914ZM197.914 58.3105V59.4882H206.844V58.3105V57.1329H197.914V58.3105ZM206.844 58.3105H208.021V54.1094H206.844H205.666V58.3105H206.844ZM206.844 54.1094V52.9317H197.914V54.1094V55.287H206.844V54.1094ZM238.396 44.1602L239.495 43.7364L239.205 42.9825H238.396V44.1602ZM248.117 69.3672V70.5448H249.834L249.216 68.9435L248.117 69.3672ZM244.514 69.3672L243.415 69.7902L243.705 70.5448H244.514V69.3672ZM242.281 63.5664L243.38 63.1434L243.09 62.3888H242.281V63.5664ZM230.908 63.5664V62.3888H230.1L229.809 63.1434L230.908 63.5664ZM228.676 69.3672V70.5448H229.484L229.775 69.7902L228.676 69.3672ZM225.072 69.3672L223.973 68.9435L223.356 70.5448H225.072V69.3672ZM234.793 44.1602V42.9825H233.985L233.694 43.7364L234.793 44.1602ZM232.279 59.9629L231.182 59.5357L230.557 61.1405H232.279V59.9629ZM240.893 59.9629V61.1405H242.61L241.991 59.5387L240.893 59.9629ZM236.604 48.8535L237.702 48.4294L236.608 45.5954L235.506 48.4263L236.604 48.8535ZM238.396 44.1602L237.298 44.5839L247.018 69.7909L248.117 69.3672L249.216 68.9435L239.495 43.7364L238.396 44.1602ZM248.117 69.3672V68.1895H244.514V69.3672V70.5448H248.117V69.3672ZM244.514 69.3672L245.613 68.9442L243.38 63.1434L242.281 63.5664L241.182 63.9894L243.415 69.7902L244.514 69.3672ZM242.281 63.5664V62.3888H230.908V63.5664V64.7441H242.281V63.5664ZM230.908 63.5664L229.809 63.1434L227.577 68.9442L228.676 69.3672L229.775 69.7902L232.007 63.9894L230.908 63.5664ZM228.676 69.3672V68.1895H225.072V69.3672V70.5448H228.676V69.3672ZM225.072 69.3672L226.171 69.7909L235.892 44.5839L234.793 44.1602L233.694 43.7364L223.973 68.9435L225.072 69.3672ZM234.793 44.1602V45.3378H238.396V44.1602V42.9825H234.793V44.1602ZM232.279 59.9629V61.1405H240.893V59.9629V58.7852H232.279V59.9629ZM240.893 59.9629L241.991 59.5387L237.702 48.4294L236.604 48.8535L235.505 49.2777L239.794 60.387L240.893 59.9629ZM236.604 48.8535L235.506 48.4263L231.182 59.5357L232.279 59.9629L233.377 60.3901L237.701 49.2807L236.604 48.8535ZM268.648 69.3672V70.5448H269.826V69.3672H268.648ZM265.186 69.3672H264.008V70.5448H265.186V69.3672ZM265.186 54.1094H266.363V52.9317H265.186V54.1094ZM255.535 54.1094V52.9317H254.358V54.1094H255.535ZM255.535 69.3672V70.5448H256.713V69.3672H255.535ZM252.09 69.3672H250.912V70.5448H252.09V69.3672ZM252.09 50.6465V49.4688H250.912V50.6465H252.09ZM255.535 50.6465H256.713V49.4688H255.535V50.6465ZM255.535 53.9512H254.358L256.711 54.0115L255.535 53.9512ZM255.852 52.668L256.917 53.1694L256.923 53.1576L255.852 52.668ZM256.59 51.6133L257.406 52.4622L257.407 52.4616L256.59 51.6133ZM257.68 50.9102L258.117 52.0036L258.13 51.9982L258.144 51.9926L257.68 50.9102ZM266.539 50.9277L266.061 52.0039L266.073 52.0095L266.086 52.0148L266.539 50.9277ZM267.629 51.666L266.781 52.4829L266.796 52.4989L266.812 52.5143L267.629 51.666ZM268.367 52.7559L267.28 53.2088L267.285 53.2215L267.291 53.2342L268.367 52.7559ZM268.648 69.3672V68.1895H265.186V69.3672V70.5448H268.648V69.3672ZM265.186 69.3672H266.363V54.1094H265.186H264.008V69.3672H265.186ZM265.186 54.1094V52.9317H255.535V54.1094V55.287H265.186V54.1094ZM255.535 54.1094H254.358V69.3672H255.535H256.713V54.1094H255.535ZM255.535 69.3672V68.1895H252.09V69.3672V70.5448H255.535V69.3672ZM252.09 69.3672H253.267V50.6465H252.09H250.912V69.3672H252.09ZM252.09 50.6465V51.8241H255.535V50.6465V49.4688H252.09V50.6465ZM255.535 50.6465H254.358V53.9512H255.535H256.713V50.6465H255.535ZM255.535 53.9512L256.711 54.0115C256.727 53.7012 256.797 53.424 256.917 53.1694L255.852 52.668L254.786 52.1665C254.531 52.7089 254.39 53.2871 254.359 53.8909L255.535 53.9512ZM255.852 52.668L256.923 53.1576C257.053 52.873 257.215 52.6458 257.406 52.4622L256.59 51.6133L255.774 50.7644C255.355 51.1667 255.025 51.6426 254.781 52.1783L255.852 52.668ZM256.59 51.6133L257.407 52.4616C257.613 52.2629 257.847 52.1115 258.117 52.0036L257.68 50.9102L257.242 49.8167C256.692 50.0369 256.2 50.3543 255.773 50.765L256.59 51.6133ZM257.68 50.9102L258.144 51.9926C258.4 51.8828 258.681 51.8241 258.998 51.8241V50.6465V49.4688C258.378 49.4688 257.78 49.586 257.216 49.8277L257.68 50.9102ZM258.998 50.6465V51.8241H265.186V50.6465V49.4688H258.998V50.6465ZM265.186 50.6465V51.8241C265.508 51.8241 265.796 51.886 266.061 52.0039L266.539 50.9277L267.017 49.8516C266.439 49.5944 265.824 49.4688 265.186 49.4688V50.6465ZM266.539 50.9277L266.086 52.0148C266.365 52.1311 266.592 52.2874 266.781 52.4829L267.629 51.666L268.477 50.8491C268.056 50.4118 267.557 50.0759 266.992 49.8407L266.539 50.9277ZM267.629 51.666L266.812 52.5143C267.008 52.7026 267.164 52.9297 267.28 53.2088L268.367 52.7559L269.454 52.3029C269.219 51.7383 268.883 51.2388 268.446 50.8177L267.629 51.666ZM268.367 52.7559L267.291 53.2342C267.409 53.4993 267.471 53.7868 267.471 54.1094H268.648H269.826C269.826 53.471 269.7 52.8562 269.443 52.2776L268.367 52.7559ZM268.648 54.1094H267.471V69.3672H268.648H269.826V54.1094H268.648ZM274.678 59.8574L273.602 59.3791L273.598 59.3863L273.595 59.3935L274.678 59.8574ZM275.416 58.75L274.583 57.9173L274.575 57.9251L274.568 57.9331L275.416 58.75ZM276.523 58.0117L276.976 59.0988L276.989 59.0935L277.002 59.0879L276.523 58.0117ZM286.789 57.7305V58.9081H287.967V57.7305H286.789ZM286.789 54.1094H287.967V52.9317H286.789V54.1094ZM275.486 54.1094H274.309V55.287H275.486V54.1094ZM275.486 50.6465V49.4688H274.309V50.6465H275.486ZM288.143 50.9277L287.664 52.0039L287.677 52.0095L287.69 52.0148L288.143 50.9277ZM289.232 51.666L288.384 52.4829L288.4 52.4989L288.416 52.5143L289.232 51.666ZM289.971 52.7559L288.884 53.2088L288.889 53.2215L288.895 53.2342L289.971 52.7559ZM290.252 69.3672V70.5448H291.43V69.3672H290.252ZM286.789 69.3672H285.611V70.5448H286.789V69.3672ZM286.789 66.2031H287.967L285.615 66.108L286.789 66.2031ZM285.664 68.4531L286.463 69.3185L286.464 69.3172L285.664 68.4531ZM276.523 69.1035L276.045 70.1797L276.058 70.1853L276.07 70.1906L276.523 69.1035ZM275.416 68.3652L274.568 69.1821L274.583 69.1981L274.599 69.2135L275.416 68.3652ZM274.678 67.2578L273.591 67.7108L273.596 67.7235L273.602 67.7361L274.678 67.2578ZM277.859 65.9043H276.682V67.082H277.859V65.9043ZM286.789 65.9043V67.082H287.967V65.9043H286.789ZM286.789 61.1934H287.967V60.0157H286.789V61.1934ZM277.859 61.1934V60.0157H276.682V61.1934H277.859ZM274.414 61.1934H275.592C275.592 60.86 275.652 60.5739 275.76 60.3213L274.678 59.8574L273.595 59.3935C273.352 59.9612 273.236 60.5658 273.236 61.1934H274.414ZM274.678 59.8574L275.754 60.3357C275.889 60.0326 276.059 59.7796 276.264 59.5669L275.416 58.75L274.568 57.9331C274.163 58.3532 273.842 58.8384 273.602 59.3791L274.678 59.8574ZM275.416 58.75L276.249 59.5827C276.454 59.3774 276.693 59.2167 276.976 59.0988L276.523 58.0117L276.07 56.9247C275.51 57.1583 275.011 57.4897 274.583 57.9173L275.416 58.75ZM276.523 58.0117L277.002 59.0879C277.271 58.9683 277.553 58.9081 277.859 58.9081V57.7305V56.5528C277.228 56.5528 276.62 56.6801 276.045 56.9356L276.523 58.0117ZM277.859 57.7305V58.9081H286.789V57.7305V56.5528H277.859V57.7305ZM286.789 57.7305H287.967V54.1094H286.789H285.611V57.7305H286.789ZM286.789 54.1094V52.9317H275.486V54.1094V55.287H286.789V54.1094ZM275.486 54.1094H276.664V50.6465H275.486H274.309V54.1094H275.486ZM275.486 50.6465V51.8241H286.789V50.6465V49.4688H275.486V50.6465ZM286.789 50.6465V51.8241C287.112 51.8241 287.399 51.886 287.664 52.0039L288.143 50.9277L288.621 49.8516C288.042 49.5944 287.427 49.4688 286.789 49.4688V50.6465ZM288.143 50.9277L287.69 52.0148C287.969 52.1311 288.196 52.2874 288.384 52.4829L289.232 51.666L290.081 50.8491C289.66 50.4118 289.16 50.0759 288.596 49.8407L288.143 50.9277ZM289.232 51.666L288.416 52.5143C288.611 52.7026 288.767 52.9297 288.884 53.2088L289.971 52.7559L291.058 52.3029C290.823 51.7383 290.487 51.2388 290.049 50.8177L289.232 51.666ZM289.971 52.7559L288.895 53.2342C289.012 53.4993 289.074 53.7868 289.074 54.1094H290.252H291.43C291.43 53.471 291.304 52.8562 291.047 52.2776L289.971 52.7559ZM290.252 54.1094H289.074V69.3672H290.252H291.43V54.1094H290.252ZM290.252 69.3672V68.1895H286.789V69.3672V70.5448H290.252V69.3672ZM286.789 69.3672H287.967V66.2031H286.789H285.611V69.3672H286.789ZM286.789 66.2031L285.615 66.108C285.593 66.3866 285.519 66.6458 285.391 66.8943L286.438 67.4336L287.484 67.9729C287.755 67.448 287.915 66.8869 287.963 66.2983L286.789 66.2031ZM286.438 67.4336L285.391 66.8943C285.254 67.1603 285.079 67.39 284.864 67.589L285.664 68.4531L286.464 69.3172C286.882 68.9304 287.223 68.4803 287.484 67.9729L286.438 67.4336ZM285.664 68.4531L284.865 67.5878C284.667 67.7706 284.435 67.9191 284.161 68.0321L284.609 69.1211L285.058 70.21C285.58 69.9949 286.052 69.6981 286.463 69.3185L285.664 68.4531ZM284.609 69.1211L284.161 68.0321C283.91 68.1357 283.64 68.1895 283.344 68.1895V69.3672V70.5448C283.938 70.5448 284.512 70.4346 285.058 70.21L284.609 69.1211ZM283.344 69.3672V68.1895H277.859V69.3672V70.5448H283.344V69.3672ZM277.859 69.3672V68.1895C277.542 68.1895 277.251 68.1309 276.976 68.0164L276.523 69.1035L276.07 70.1906C276.64 70.4277 277.239 70.5448 277.859 70.5448V69.3672ZM276.523 69.1035L277.002 68.0274C276.699 67.8927 276.446 67.7218 276.233 67.5169L275.416 68.3652L274.599 69.2135C275.019 69.6181 275.504 69.9394 276.045 70.1797L276.523 69.1035ZM275.416 68.3652L276.264 67.5484C276.059 67.3357 275.889 67.0826 275.754 66.7795L274.678 67.2578L273.602 67.7361C273.842 68.2768 274.163 68.762 274.568 69.1821L275.416 68.3652ZM274.678 67.2578L275.765 66.8049C275.652 66.5338 275.592 66.2374 275.592 65.9043H274.414H273.236C273.236 66.5321 273.352 67.1381 273.591 67.7108L274.678 67.2578ZM274.414 65.9043H275.592V61.1934H274.414H273.236V65.9043H274.414ZM277.859 65.9043V67.082H286.789V65.9043V64.7266H277.859V65.9043ZM286.789 65.9043H287.967V61.1934H286.789H285.611V65.9043H286.789ZM286.789 61.1934V60.0157H277.859V61.1934V62.371H286.789V61.1934ZM277.859 61.1934H276.682V65.9043H277.859H279.037V61.1934H277.859ZM299.48 43.4395H300.658V42.2618H299.48V43.4395ZM299.48 69.3672V70.5448H300.658V69.3672H299.48ZM296.035 69.3672H294.858V70.5448H296.035V69.3672ZM296.035 43.4395V42.2618H294.858V43.4395H296.035ZM299.48 43.4395H298.303V69.3672H299.48H300.658V43.4395H299.48ZM299.48 69.3672V68.1895H296.035V69.3672V70.5448H299.48V69.3672ZM296.035 69.3672H297.213V43.4395H296.035H294.858V69.3672H296.035ZM296.035 43.4395V44.6171H299.48V43.4395V42.2618H296.035V43.4395ZM306.512 76.9258L305.427 76.4661L304.733 78.1034H306.512V76.9258ZM310.432 67.6797L311.516 68.1394L311.712 67.6757L311.513 67.2132L310.432 67.6797ZM303.084 50.6465V49.4688H301.293L302.003 51.1129L303.084 50.6465ZM306.723 50.6465L307.807 50.1865L307.502 49.4688H306.723V50.6465ZM312.189 63.5312L311.105 63.9912L312.189 66.5464L313.274 63.9912L312.189 63.5312ZM317.656 50.6465V49.4688H316.877L316.572 50.1865L317.656 50.6465ZM321.295 50.6465L322.376 51.113L323.086 49.4688H321.295V50.6465ZM309.957 76.9258V78.1034H310.732L311.038 77.3923L309.957 76.9258ZM306.512 76.9258L307.596 77.3854L311.516 68.1394L310.432 67.6797L309.347 67.22L305.427 76.4661L306.512 76.9258ZM310.432 67.6797L311.513 67.2132L304.165 50.18L303.084 50.6465L302.003 51.1129L309.35 68.1461L310.432 67.6797ZM303.084 50.6465V51.8241H306.723V50.6465V49.4688H303.084V50.6465ZM306.723 50.6465L305.639 51.1065L311.105 63.9912L312.189 63.5312L313.274 63.0713L307.807 50.1865L306.723 50.6465ZM312.189 63.5312L313.274 63.9912L318.74 51.1065L317.656 50.6465L316.572 50.1865L311.105 63.0713L312.189 63.5312ZM317.656 50.6465V51.8241H321.295V50.6465V49.4688H317.656V50.6465ZM321.295 50.6465L320.214 50.18L308.876 76.4593L309.957 76.9258L311.038 77.3923L322.376 51.113L321.295 50.6465ZM309.957 76.9258V75.7481H306.512V76.9258V78.1034H309.957V76.9258ZM323.809 50.6465V49.4688H322.631V50.6465H323.809ZM328.379 50.6465V51.8241H329.557V50.6465H328.379ZM328.379 44.8809V43.7032H327.201V44.8809H328.379ZM331.842 44.8809H333.019V43.7032H331.842V44.8809ZM331.842 50.6465H330.664V51.8241H331.842V50.6465ZM337.994 50.6465H339.172V49.4688H337.994V50.6465ZM337.994 54.1094V55.287H339.172V54.1094H337.994ZM331.842 54.1094V52.9317H330.664V54.1094H331.842ZM331.842 65.9043H330.664V67.082H331.842V65.9043ZM337.994 65.9043H339.172V64.7266H337.994V65.9043ZM337.994 69.3672V70.5448H339.172V69.3672H337.994ZM330.506 69.1035L330.028 70.1797L330.04 70.1853L330.053 70.1906L330.506 69.1035ZM329.398 68.3652L328.566 69.198L328.574 69.2058L328.582 69.2135L329.398 68.3652ZM328.643 67.2578L327.556 67.7108L327.561 67.7235L327.566 67.7361L328.643 67.2578ZM328.379 54.1094H329.557V52.9317H328.379V54.1094ZM323.809 54.1094H322.631V55.287H323.809V54.1094ZM323.809 50.6465V51.8241H328.379V50.6465V49.4688H323.809V50.6465ZM328.379 50.6465H329.557V44.8809H328.379H327.201V50.6465H328.379ZM328.379 44.8809V46.0585H331.842V44.8809V43.7032H328.379V44.8809ZM331.842 44.8809H330.664V50.6465H331.842H333.019V44.8809H331.842ZM331.842 50.6465V51.8241H337.994V50.6465V49.4688H331.842V50.6465ZM337.994 50.6465H336.816V54.1094H337.994H339.172V50.6465H337.994ZM337.994 54.1094V52.9317H331.842V54.1094V55.287H337.994V54.1094ZM331.842 54.1094H330.664V65.9043H331.842H333.019V54.1094H331.842ZM331.842 65.9043V67.082H337.994V65.9043V64.7266H331.842V65.9043ZM337.994 65.9043H336.816V69.3672H337.994H339.172V65.9043H337.994ZM337.994 69.3672V68.1895H331.842V69.3672V70.5448H337.994V69.3672ZM331.842 69.3672V68.1895C331.524 68.1895 331.233 68.1309 330.959 68.0164L330.506 69.1035L330.053 70.1906C330.622 70.4277 331.222 70.5448 331.842 70.5448V69.3672ZM330.506 69.1035L330.984 68.0274C330.681 67.8927 330.428 67.7218 330.215 67.5169L329.398 68.3652L328.582 69.2135C329.002 69.6181 329.487 69.9394 330.028 70.1797L330.506 69.1035ZM329.398 68.3652L330.231 67.5325C330.02 67.3216 329.849 67.0736 329.719 66.7795L328.643 67.2578L327.566 67.7361C327.811 68.2858 328.144 68.7761 328.566 69.198L329.398 68.3652ZM328.643 67.2578L329.73 66.8049C329.617 66.5338 329.557 66.2374 329.557 65.9043H328.379H327.201C327.201 66.5321 327.317 67.1381 327.556 67.7108L328.643 67.2578ZM328.379 65.9043H329.557V54.1094H328.379H327.201V65.9043H328.379ZM328.379 54.1094V52.9317H323.809V54.1094V55.287H328.379V54.1094ZM323.809 54.1094H324.986V50.6465H323.809H322.631V54.1094H323.809ZM347.416 50.6465H348.594V49.4688H347.416V50.6465ZM347.416 69.3672V70.5448H348.594V69.3672H347.416ZM343.953 69.3672H342.775V70.5448H343.953V69.3672ZM343.953 50.6465V49.4688H342.775V50.6465H343.953ZM343.777 43.4395V42.2618H342.6V43.4395H343.777ZM347.592 43.4395H348.769V42.2618H347.592V43.4395ZM347.592 47.043V48.2206H348.769V47.043H347.592ZM343.777 47.043H342.6V48.2206H343.777V47.043ZM347.416 50.6465H346.238V69.3672H347.416H348.594V50.6465H347.416ZM347.416 69.3672V68.1895H343.953V69.3672V70.5448H347.416V69.3672ZM343.953 69.3672H345.131V50.6465H343.953H342.775V69.3672H343.953ZM343.953 50.6465V51.8241H347.416V50.6465V49.4688H343.953V50.6465ZM343.777 43.4395V44.6171H347.592V43.4395V42.2618H343.777V43.4395ZM347.592 43.4395H346.414V47.043H347.592H348.769V43.4395H347.592ZM347.592 47.043V45.8653H343.777V47.043V48.2206H347.592V47.043ZM343.777 47.043H344.955V43.4395H343.777H342.6V47.043H343.777ZM356.82 54.1094V52.9317H355.643V54.1094H356.82ZM356.82 65.9043H355.643V67.082H356.82V65.9043ZM365.75 65.9043V67.082H366.928V65.9043H365.75ZM365.75 62.7402V61.5626H364.572V62.7402H365.75ZM369.213 62.7402H370.391V61.5626H369.213V62.7402ZM368.932 67.2578L367.855 66.7795L367.85 66.7921L367.845 66.8049L368.932 67.2578ZM367.104 69.1035L367.556 70.1906L367.569 70.1853L367.582 70.1797L367.104 69.1035ZM355.484 69.1035L355.006 70.1797L355.019 70.1853L355.031 70.1906L355.484 69.1035ZM354.377 68.3652L353.529 69.1821L353.544 69.1981L353.56 69.2135L354.377 68.3652ZM353.639 67.2578L352.552 67.7108L352.557 67.7235L352.563 67.7361L353.639 67.2578ZM353.639 52.7559L352.563 52.2776L352.557 52.2902L352.552 52.3029L353.639 52.7559ZM355.484 50.9277L355.937 52.0148L355.95 52.0095L355.963 52.0039L355.484 50.9277ZM367.104 50.9277L366.625 52.0039L366.638 52.0095L366.651 52.0148L367.104 50.9277ZM368.193 51.666L367.345 52.4829L367.36 52.4989L367.376 52.5143L368.193 51.666ZM368.932 52.7559L367.845 53.2088L367.85 53.2215L367.855 53.2342L368.932 52.7559ZM369.213 57.2734V58.4511H370.391V57.2734H369.213ZM365.75 57.2734H364.572V58.4511H365.75V57.2734ZM365.75 54.1094H366.928V52.9317H365.75V54.1094ZM356.82 54.1094H355.643V65.9043H356.82H357.998V54.1094H356.82ZM356.82 65.9043V67.082H365.75V65.9043V64.7266H356.82V65.9043ZM365.75 65.9043H366.928V62.7402H365.75H364.572V65.9043H365.75ZM365.75 62.7402V63.9179H369.213V62.7402V61.5626H365.75V62.7402ZM369.213 62.7402H368.035V65.9043H369.213H370.391V62.7402H369.213ZM369.213 65.9043H368.035C368.035 66.2269 367.973 66.5144 367.855 66.7795L368.932 67.2578L370.008 67.7361C370.265 67.1575 370.391 66.5427 370.391 65.9043H369.213ZM368.932 67.2578L367.845 66.8049C367.727 67.0879 367.566 67.3272 367.361 67.5325L368.193 68.3652L369.026 69.198C369.454 68.7704 369.785 68.2715 370.019 67.7108L368.932 67.2578ZM368.193 68.3652L367.361 67.5325C367.165 67.7279 366.925 67.8943 366.625 68.0274L367.104 69.1035L367.582 70.1797C368.126 69.9377 368.612 69.612 369.026 69.198L368.193 68.3652ZM367.104 69.1035L366.651 68.0164C366.38 68.1294 366.083 68.1895 365.75 68.1895V69.3672V70.5448C366.378 70.5448 366.984 70.4292 367.556 70.1906L367.104 69.1035ZM365.75 69.3672V68.1895H356.82V69.3672V70.5448H365.75V69.3672ZM356.82 69.3672V68.1895C356.503 68.1895 356.212 68.1309 355.937 68.0164L355.484 69.1035L355.031 70.1906C355.601 70.4277 356.2 70.5448 356.82 70.5448V69.3672ZM355.484 69.1035L355.963 68.0274C355.66 67.8927 355.407 67.7218 355.194 67.5169L354.377 68.3652L353.56 69.2135C353.98 69.6181 354.465 69.9394 355.006 70.1797L355.484 69.1035ZM354.377 68.3652L355.225 67.5484C355.02 67.3357 354.85 67.0826 354.715 66.7795L353.639 67.2578L352.563 67.7361C352.803 68.2768 353.124 68.762 353.529 69.1821L354.377 68.3652ZM353.639 67.2578L354.726 66.8049C354.613 66.5338 354.553 66.2374 354.553 65.9043H353.375H352.197C352.197 66.5321 352.313 67.1381 352.552 67.7108L353.639 67.2578ZM353.375 65.9043H354.553V54.1094H353.375H352.197V65.9043H353.375ZM353.375 54.1094H354.553C354.553 53.7763 354.613 53.4799 354.726 53.2088L353.639 52.7559L352.552 52.3029C352.313 52.8756 352.197 53.4815 352.197 54.1094H353.375ZM353.639 52.7559L354.715 53.2342C354.848 52.9349 355.014 52.6941 355.21 52.4987L354.377 51.666L353.544 50.8333C353.13 51.2473 352.804 51.7331 352.563 52.2776L353.639 52.7559ZM354.377 51.666L355.21 52.4987C355.415 52.2935 355.654 52.1327 355.937 52.0148L355.484 50.9277L355.031 49.8407C354.471 50.0743 353.972 50.4058 353.544 50.8333L354.377 51.666ZM355.484 50.9277L355.963 52.0039C356.232 51.8844 356.514 51.8241 356.82 51.8241V50.6465V49.4688C356.189 49.4688 355.581 49.5961 355.006 49.8516L355.484 50.9277ZM356.82 50.6465V51.8241H365.75V50.6465V49.4688H356.82V50.6465ZM365.75 50.6465V51.8241C366.073 51.8241 366.36 51.886 366.625 52.0039L367.104 50.9277L367.582 49.8516C367.003 49.5944 366.388 49.4688 365.75 49.4688V50.6465ZM367.104 50.9277L366.651 52.0148C366.93 52.1311 367.157 52.2874 367.345 52.4829L368.193 51.666L369.042 50.8491C368.621 50.4118 368.121 50.0759 367.556 49.8407L367.104 50.9277ZM368.193 51.666L367.376 52.5143C367.572 52.7026 367.728 52.9297 367.845 53.2088L368.932 52.7559L370.019 52.3029C369.783 51.7383 369.448 51.2388 369.01 50.8177L368.193 51.666ZM368.932 52.7559L367.855 53.2342C367.973 53.4993 368.035 53.7868 368.035 54.1094H369.213H370.391C370.391 53.471 370.265 52.8562 370.008 52.2776L368.932 52.7559ZM369.213 54.1094H368.035V57.2734H369.213H370.391V54.1094H369.213ZM369.213 57.2734V56.0958H365.75V57.2734V58.4511H369.213V57.2734ZM365.75 57.2734H366.928V54.1094H365.75H364.572V57.2734H365.75ZM365.75 54.1094V52.9317H356.82V54.1094V55.287H365.75V54.1094ZM386.299 65.9043V67.082H387.476V65.9043H386.299ZM386.299 61.5625H387.476V60.3848H386.299V61.5625ZM376.736 61.2988L376.258 62.375L376.271 62.3806L376.283 62.3859L376.736 61.2988ZM375.629 60.5605L374.781 61.3774L374.796 61.3934L374.812 61.4088L375.629 60.5605ZM374.891 59.4531L373.804 59.9061L373.809 59.9188L373.814 59.9314L374.891 59.4531ZM374.891 52.7559L373.814 52.2776L373.809 52.2902L373.804 52.3029L374.891 52.7559ZM376.736 50.9277L377.189 52.0148L377.202 52.0095L377.215 52.0039L376.736 50.9277ZM389.041 50.6465H390.219V49.4688H389.041V50.6465ZM389.041 54.1094V55.287H390.219V54.1094H389.041ZM378.09 54.1094V52.9317H376.912V54.1094H378.09ZM378.09 58.0996H376.912V59.2773H378.09V58.0996ZM387.635 58.3809L387.145 59.4519L387.163 59.4602L387.182 59.4679L387.635 58.3809ZM388.742 59.1191L387.909 59.9519L387.917 59.9597L387.925 59.9674L388.742 59.1191ZM389.48 60.209L388.393 60.6619L388.399 60.6747L388.404 60.6873L389.48 60.209ZM389.48 67.2578L388.404 66.7795L388.399 66.7921L388.393 66.8049L389.48 67.2578ZM388.742 68.3652L389.559 69.2135L389.567 69.2058L389.575 69.198L388.742 68.3652ZM387.635 69.1035L388.099 70.186L388.106 70.1829L388.113 70.1797L387.635 69.1035ZM374.627 69.3672H373.449V70.5448H374.627V69.3672ZM374.627 65.9043V64.7266H373.449V65.9043H374.627ZM386.299 65.9043H387.476V61.5625H386.299H385.121V65.9043H386.299ZM386.299 61.5625V60.3848H378.09V61.5625V62.7402H386.299V61.5625ZM378.09 61.5625V60.3848C377.757 60.3848 377.46 60.3247 377.189 60.2118L376.736 61.2988L376.283 62.3859C376.856 62.6245 377.462 62.7402 378.09 62.7402V61.5625ZM376.736 61.2988L377.215 60.2227C376.912 60.088 376.658 59.9171 376.446 59.7123L375.629 60.5605L374.812 61.4088C375.232 61.8134 375.717 62.1347 376.258 62.375L376.736 61.2988ZM375.629 60.5605L376.477 59.7437C376.272 59.531 376.101 59.2779 375.967 58.9748L374.891 59.4531L373.814 59.9314C374.055 60.4721 374.376 60.9573 374.781 61.3774L375.629 60.5605ZM374.891 59.4531L375.978 59.0002C375.865 58.7291 375.805 58.4327 375.805 58.0996H374.627H373.449C373.449 58.7275 373.565 59.3334 373.804 59.9061L374.891 59.4531ZM374.627 58.0996H375.805V54.1094H374.627H373.449V58.0996H374.627ZM374.627 54.1094H375.805C375.805 53.7763 375.865 53.4799 375.978 53.2088L374.891 52.7559L373.804 52.3029C373.565 52.8756 373.449 53.4815 373.449 54.1094H374.627ZM374.891 52.7559L375.967 53.2342C376.1 52.9349 376.266 52.6941 376.462 52.4987L375.629 51.666L374.796 50.8333C374.382 51.2473 374.056 51.7331 373.814 52.2776L374.891 52.7559ZM375.629 51.666L376.462 52.4987C376.667 52.2935 376.906 52.1327 377.189 52.0148L376.736 50.9277L376.283 49.8407C375.723 50.0743 375.224 50.4058 374.796 50.8333L375.629 51.666ZM376.736 50.9277L377.215 52.0039C377.48 51.886 377.767 51.8241 378.09 51.8241V50.6465V49.4688C377.451 49.4688 376.837 49.5944 376.258 49.8516L376.736 50.9277ZM378.09 50.6465V51.8241H389.041V50.6465V49.4688H378.09V50.6465ZM389.041 50.6465H387.863V54.1094H389.041H390.219V50.6465H389.041ZM389.041 54.1094V52.9317H378.09V54.1094V55.287H389.041V54.1094ZM378.09 54.1094H376.912V58.0996H378.09H379.267V54.1094H378.09ZM378.09 58.0996V59.2773H386.299V58.0996V56.922H378.09V58.0996ZM386.299 58.0996V59.2773C386.622 59.2773 386.899 59.3392 387.145 59.4519L387.635 58.3809L388.124 57.3098C387.551 57.0475 386.937 56.922 386.299 56.922V58.0996ZM387.635 58.3809L387.182 59.4679C387.465 59.5858 387.704 59.7466 387.909 59.9519L388.742 59.1191L389.575 58.2864C389.147 57.8589 388.648 57.5274 388.088 57.2938L387.635 58.3809ZM388.742 59.1191L387.925 59.9674C388.121 60.1557 388.277 60.3828 388.393 60.6619L389.48 60.209L390.568 59.756C390.332 59.1914 389.996 58.692 389.559 58.2709L388.742 59.1191ZM389.48 60.209L388.404 60.6873C388.522 60.9524 388.584 61.2399 388.584 61.5625H389.762H390.939C390.939 60.9241 390.814 60.3093 390.557 59.7307L389.48 60.209ZM389.762 61.5625H388.584V65.9043H389.762H390.939V61.5625H389.762ZM389.762 65.9043H388.584C388.584 66.2269 388.522 66.5144 388.404 66.7795L389.48 67.2578L390.557 67.7361C390.814 67.1575 390.939 66.5427 390.939 65.9043H389.762ZM389.48 67.2578L388.393 66.8049C388.275 67.0879 388.115 67.3272 387.909 67.5325L388.742 68.3652L389.575 69.198C390.002 68.7704 390.334 68.2715 390.568 67.7108L389.48 67.2578ZM388.742 68.3652L387.925 67.5169C387.713 67.7218 387.46 67.8927 387.156 68.0274L387.635 69.1035L388.113 70.1797C388.654 69.9394 389.139 69.6181 389.559 69.2135L388.742 68.3652ZM387.635 69.1035L387.171 68.0211C386.918 68.1293 386.632 68.1895 386.299 68.1895V69.3672V70.5448C386.926 70.5448 387.531 70.4293 388.099 70.186L387.635 69.1035ZM386.299 69.3672V68.1895H374.627V69.3672V70.5448H386.299V69.3672ZM374.627 69.3672H375.805V65.9043H374.627H373.449V69.3672H374.627ZM374.627 65.9043V67.082H386.299V65.9043V64.7266H374.627V65.9043ZM406.32 69.3672H405.143V70.5448H406.32V69.3672ZM406.32 44.1602V42.9825H405.143V44.1602H406.32ZM409.924 60.0156V58.838H408.746V60.0156H409.924ZM409.924 69.3672V70.5448H411.101V69.3672H409.924ZM409.924 56.4121H408.746V57.5898H409.924V56.4121ZM409.924 47.7637V46.586H408.746V47.7637H409.924ZM406.32 69.3672H407.498V44.1602H406.32H405.143V69.3672H406.32ZM406.32 44.1602V45.3378H420.119V44.1602V42.9825H406.32V44.1602ZM420.119 44.1602V45.3378C421.976 45.3378 423.152 45.8024 423.873 46.5254C424.595 47.249 425.059 48.4307 425.059 50.2949H426.236H427.414C427.414 48.0693 426.858 46.1836 425.541 44.8623C424.223 43.5404 422.341 42.9825 420.119 42.9825V44.1602ZM426.236 50.2949H425.059V53.8809H426.236H427.414V50.2949H426.236ZM426.236 53.8809H425.059C425.059 55.7451 424.595 56.9268 423.873 57.6504C423.152 58.3734 421.976 58.838 420.119 58.838V60.0156V61.1933C422.341 61.1933 424.223 60.6354 425.541 59.3135C426.858 57.9921 427.414 56.1065 427.414 53.8809H426.236ZM420.119 60.0156V58.838H409.924V60.0156V61.1933H420.119V60.0156ZM409.924 60.0156H408.746V69.3672H409.924H411.101V60.0156H409.924ZM409.924 69.3672V68.1895H406.32V69.3672V70.5448H409.924V69.3672ZM409.924 56.4121V57.5898H419.926V56.4121V55.2345H409.924V56.4121ZM419.926 56.4121V57.5898C421.016 57.5898 422.088 57.3571 422.833 56.612L422 55.7793L421.167 54.9466C421.069 55.0452 420.757 55.2345 419.926 55.2345V56.4121ZM422 55.7793L422.833 56.612C423.578 55.8669 423.81 54.7953 423.81 53.7051H422.633H421.455C421.455 54.5367 421.266 54.8479 421.167 54.9466L422 55.7793ZM422.633 53.7051H423.81V50.4707H422.633H421.455V53.7051H422.633ZM422.633 50.4707H423.81C423.81 49.3805 423.578 48.3089 422.833 47.5638L422 48.3965L421.167 49.2292C421.266 49.3279 421.455 49.6391 421.455 50.4707H422.633ZM422 48.3965L422.833 47.5638C422.088 46.8187 421.016 46.586 419.926 46.586V47.7637V48.9413C420.757 48.9413 421.069 49.1306 421.167 49.2292L422 48.3965ZM419.926 47.7637V46.586H409.924V47.7637V48.9413H419.926V47.7637ZM409.924 47.7637H408.746V56.4121H409.924H411.101V47.7637H409.924ZM434.375 43.4395H435.553V42.2618H434.375V43.4395ZM434.375 69.3672V70.5448H435.553V69.3672H434.375ZM430.93 69.3672H429.752V70.5448H430.93V69.3672ZM430.93 43.4395V42.2618H429.752V43.4395H430.93ZM434.375 43.4395H433.197V69.3672H434.375H435.553V43.4395H434.375ZM434.375 69.3672V68.1895H430.93V69.3672V70.5448H434.375V69.3672ZM430.93 69.3672H432.107V43.4395H430.93H429.752V69.3672H430.93ZM430.93 43.4395V44.6171H434.375V43.4395V42.2618H430.93V43.4395ZM440.404 59.8574L439.328 59.3791L439.325 59.3863L439.322 59.3935L440.404 59.8574ZM441.143 58.75L440.31 57.9173L440.302 57.9251L440.294 57.9331L441.143 58.75ZM442.25 58.0117L442.703 59.0988L442.716 59.0935L442.728 59.0879L442.25 58.0117ZM452.516 57.7305V58.9081H453.693V57.7305H452.516ZM452.516 54.1094H453.693V52.9317H452.516V54.1094ZM441.213 54.1094H440.035V55.287H441.213V54.1094ZM441.213 50.6465V49.4688H440.035V50.6465H441.213ZM453.869 50.9277L453.391 52.0039L453.403 52.0095L453.416 52.0148L453.869 50.9277ZM454.959 51.666L454.111 52.4829L454.126 52.4989L454.142 52.5143L454.959 51.666ZM455.697 52.7559L454.61 53.2088L454.616 53.2215L454.621 53.2342L455.697 52.7559ZM455.979 69.3672V70.5448H457.156V69.3672H455.979ZM452.516 69.3672H451.338V70.5448H452.516V69.3672ZM452.516 66.2031H453.693L451.342 66.108L452.516 66.2031ZM451.391 68.4531L452.189 69.3185L452.191 69.3172L451.391 68.4531ZM442.25 69.1035L441.772 70.1797L441.784 70.1853L441.797 70.1906L442.25 69.1035ZM441.143 68.3652L440.294 69.1821L440.31 69.1981L440.326 69.2135L441.143 68.3652ZM440.404 67.2578L439.317 67.7108L439.323 67.7235L439.328 67.7361L440.404 67.2578ZM443.586 65.9043H442.408V67.082H443.586V65.9043ZM452.516 65.9043V67.082H453.693V65.9043H452.516ZM452.516 61.1934H453.693V60.0157H452.516V61.1934ZM443.586 61.1934V60.0157H442.408V61.1934H443.586ZM440.141 61.1934H441.318C441.318 60.86 441.378 60.5739 441.487 60.3213L440.404 59.8574L439.322 59.3935C439.079 59.9612 438.963 60.5658 438.963 61.1934H440.141ZM440.404 59.8574L441.48 60.3357C441.615 60.0326 441.786 59.7796 441.991 59.5669L441.143 58.75L440.294 57.9331C439.89 58.3532 439.568 58.8384 439.328 59.3791L440.404 59.8574ZM441.143 58.75L441.975 59.5827C442.181 59.3774 442.42 59.2167 442.703 59.0988L442.25 58.0117L441.797 56.9247C441.236 57.1583 440.737 57.4897 440.31 57.9173L441.143 58.75ZM442.25 58.0117L442.728 59.0879C442.997 58.9683 443.279 58.9081 443.586 58.9081V57.7305V56.5528C442.955 56.5528 442.347 56.6801 441.772 56.9356L442.25 58.0117ZM443.586 57.7305V58.9081H452.516V57.7305V56.5528H443.586V57.7305ZM452.516 57.7305H453.693V54.1094H452.516H451.338V57.7305H452.516ZM452.516 54.1094V52.9317H441.213V54.1094V55.287H452.516V54.1094ZM441.213 54.1094H442.391V50.6465H441.213H440.035V54.1094H441.213ZM441.213 50.6465V51.8241H452.516V50.6465V49.4688H441.213V50.6465ZM452.516 50.6465V51.8241C452.838 51.8241 453.126 51.886 453.391 52.0039L453.869 50.9277L454.347 49.8516C453.769 49.5944 453.154 49.4688 452.516 49.4688V50.6465ZM453.869 50.9277L453.416 52.0148C453.695 52.1311 453.922 52.2874 454.111 52.4829L454.959 51.666L455.807 50.8491C455.386 50.4118 454.887 50.0759 454.322 49.8407L453.869 50.9277ZM454.959 51.666L454.142 52.5143C454.338 52.7026 454.494 52.9297 454.61 53.2088L455.697 52.7559L456.784 52.3029C456.549 51.7383 456.213 51.2388 455.776 50.8177L454.959 51.666ZM455.697 52.7559L454.621 53.2342C454.739 53.4993 454.801 53.7868 454.801 54.1094H455.979H457.156C457.156 53.471 457.031 52.8562 456.773 52.2776L455.697 52.7559ZM455.979 54.1094H454.801V69.3672H455.979H457.156V54.1094H455.979ZM455.979 69.3672V68.1895H452.516V69.3672V70.5448H455.979V69.3672ZM452.516 69.3672H453.693V66.2031H452.516H451.338V69.3672H452.516ZM452.516 66.2031L451.342 66.108C451.319 66.3866 451.245 66.6458 451.117 66.8943L452.164 67.4336L453.211 67.9729C453.481 67.448 453.642 66.8869 453.689 66.2983L452.516 66.2031ZM452.164 67.4336L451.117 66.8943C450.98 67.1603 450.805 67.39 450.591 67.589L451.391 68.4531L452.191 69.3172C452.609 68.9304 452.95 68.4803 453.211 67.9729L452.164 67.4336ZM451.391 68.4531L450.592 67.5878C450.394 67.7706 450.162 67.9191 449.888 68.0321L450.336 69.1211L450.784 70.21C451.307 69.9949 451.778 69.6981 452.189 69.3185L451.391 68.4531ZM450.336 69.1211L449.888 68.0321C449.636 68.1357 449.367 68.1895 449.07 68.1895V69.3672V70.5448C449.664 70.5448 450.239 70.4346 450.784 70.21L450.336 69.1211ZM449.07 69.3672V68.1895H443.586V69.3672V70.5448H449.07V69.3672ZM443.586 69.3672V68.1895C443.269 68.1895 442.978 68.1309 442.703 68.0164L442.25 69.1035L441.797 70.1906C442.366 70.4277 442.966 70.5448 443.586 70.5448V69.3672ZM442.25 69.1035L442.728 68.0274C442.425 67.8927 442.172 67.7218 441.959 67.5169L441.143 68.3652L440.326 69.2135C440.746 69.6181 441.231 69.9394 441.772 70.1797L442.25 69.1035ZM441.143 68.3652L441.991 67.5484C441.786 67.3357 441.615 67.0826 441.48 66.7795L440.404 67.2578L439.328 67.7361C439.568 68.2768 439.89 68.762 440.294 69.1821L441.143 68.3652ZM440.404 67.2578L441.491 66.8049C441.378 66.5338 441.318 66.2374 441.318 65.9043H440.141H438.963C438.963 66.5321 439.079 67.1381 439.317 67.7108L440.404 67.2578ZM440.141 65.9043H441.318V61.1934H440.141H438.963V65.9043H440.141ZM443.586 65.9043V67.082H452.516V65.9043V64.7266H443.586V65.9043ZM452.516 65.9043H453.693V61.1934H452.516H451.338V65.9043H452.516ZM452.516 61.1934V60.0157H443.586V61.1934V62.371H452.516V61.1934ZM443.586 61.1934H442.408V65.9043H443.586H444.764V61.1934H443.586ZM460.672 50.6465V49.4688H459.494V50.6465H460.672ZM465.242 50.6465V51.8241H466.42V50.6465H465.242ZM465.242 44.8809V43.7032H464.065V44.8809H465.242ZM468.705 44.8809H469.883V43.7032H468.705V44.8809ZM468.705 50.6465H467.527V51.8241H468.705V50.6465ZM474.857 50.6465H476.035V49.4688H474.857V50.6465ZM474.857 54.1094V55.287H476.035V54.1094H474.857ZM468.705 54.1094V52.9317H467.527V54.1094H468.705ZM468.705 65.9043H467.527V67.082H468.705V65.9043ZM474.857 65.9043H476.035V64.7266H474.857V65.9043ZM474.857 69.3672V70.5448H476.035V69.3672H474.857ZM467.369 69.1035L466.891 70.1797L466.903 70.1853L466.916 70.1906L467.369 69.1035ZM466.262 68.3652L465.429 69.198L465.437 69.2058L465.445 69.2135L466.262 68.3652ZM465.506 67.2578L464.419 67.7108L464.424 67.7235L464.43 67.7361L465.506 67.2578ZM465.242 54.1094H466.42V52.9317H465.242V54.1094ZM460.672 54.1094H459.494V55.287H460.672V54.1094ZM460.672 50.6465V51.8241H465.242V50.6465V49.4688H460.672V50.6465ZM465.242 50.6465H466.42V44.8809H465.242H464.065V50.6465H465.242ZM465.242 44.8809V46.0585H468.705V44.8809V43.7032H465.242V44.8809ZM468.705 44.8809H467.527V50.6465H468.705H469.883V44.8809H468.705ZM468.705 50.6465V51.8241H474.857V50.6465V49.4688H468.705V50.6465ZM474.857 50.6465H473.68V54.1094H474.857H476.035V50.6465H474.857ZM474.857 54.1094V52.9317H468.705V54.1094V55.287H474.857V54.1094ZM468.705 54.1094H467.527V65.9043H468.705H469.883V54.1094H468.705ZM468.705 65.9043V67.082H474.857V65.9043V64.7266H468.705V65.9043ZM474.857 65.9043H473.68V69.3672H474.857H476.035V65.9043H474.857ZM474.857 69.3672V68.1895H468.705V69.3672V70.5448H474.857V69.3672ZM468.705 69.3672V68.1895C468.388 68.1895 468.097 68.1309 467.822 68.0164L467.369 69.1035L466.916 70.1906C467.485 70.4277 468.085 70.5448 468.705 70.5448V69.3672ZM467.369 69.1035L467.847 68.0274C467.544 67.8927 467.291 67.7218 467.079 67.5169L466.262 68.3652L465.445 69.2135C465.865 69.6181 466.35 69.9394 466.891 70.1797L467.369 69.1035ZM466.262 68.3652L467.094 67.5325C466.883 67.3216 466.713 67.0736 466.582 66.7795L465.506 67.2578L464.43 67.7361C464.674 68.2858 465.007 68.7761 465.429 69.198L466.262 68.3652ZM465.506 67.2578L466.593 66.8049C466.48 66.5338 466.42 66.2374 466.42 65.9043H465.242H464.065C464.065 66.5321 464.18 67.1381 464.419 67.7108L465.506 67.2578ZM465.242 65.9043H466.42V54.1094H465.242H464.065V65.9043H465.242ZM465.242 54.1094V52.9317H460.672V54.1094V55.287H465.242V54.1094ZM460.672 54.1094H461.85V50.6465H460.672H459.494V54.1094H460.672ZM487.584 46.9023V45.7247H486.406V46.9023H487.584ZM487.584 50.6465H486.406V51.8241H487.584V50.6465ZM493.736 50.6465H494.914V49.4688H493.736V50.6465ZM493.736 54.1094V55.287H494.914V54.1094H493.736ZM487.584 54.1094V52.9317H486.406V54.1094H487.584ZM487.584 69.3672V70.5448H488.762V69.3672H487.584ZM484.121 69.3672H482.943V70.5448H484.121V69.3672ZM484.121 54.1094H485.299V52.9317H484.121V54.1094ZM479.551 54.1094H478.373V55.287H479.551V54.1094ZM479.551 50.6465V49.4688H478.373V50.6465H479.551ZM484.121 50.6465V51.8241H485.299V50.6465H484.121ZM484.385 45.5664L483.309 45.0881L483.305 45.0953L483.302 45.1025L484.385 45.5664ZM486.248 43.7207L486.701 44.8078L486.714 44.8025L486.726 44.7969L486.248 43.7207ZM493.736 43.4395H494.914V42.2618H493.736V43.4395ZM493.736 46.9023V48.08H494.914V46.9023H493.736ZM487.584 46.9023H486.406V50.6465H487.584H488.762V46.9023H487.584ZM487.584 50.6465V51.8241H493.736V50.6465V49.4688H487.584V50.6465ZM493.736 50.6465H492.559V54.1094H493.736H494.914V50.6465H493.736ZM493.736 54.1094V52.9317H487.584V54.1094V55.287H493.736V54.1094ZM487.584 54.1094H486.406V69.3672H487.584H488.762V54.1094H487.584ZM487.584 69.3672V68.1895H484.121V69.3672V70.5448H487.584V69.3672ZM484.121 69.3672H485.299V54.1094H484.121H482.943V69.3672H484.121ZM484.121 54.1094V52.9317H479.551V54.1094V55.287H484.121V54.1094ZM479.551 54.1094H480.728V50.6465H479.551H478.373V54.1094H479.551ZM479.551 50.6465V51.8241H484.121V50.6465V49.4688H479.551V50.6465ZM484.121 50.6465H485.299V46.9023H484.121H482.943V50.6465H484.121ZM484.121 46.9023H485.299C485.299 46.569 485.359 46.2829 485.467 46.0303L484.385 45.5664L483.302 45.1025C483.059 45.6702 482.943 46.2748 482.943 46.9023H484.121ZM484.385 45.5664L485.461 46.0447C485.592 45.7506 485.762 45.5027 485.973 45.2917L485.141 44.459L484.308 43.6263C483.886 44.0481 483.553 44.5384 483.309 45.0881L484.385 45.5664ZM485.141 44.459L485.973 45.2917C486.179 45.0864 486.418 44.9257 486.701 44.8078L486.248 43.7207L485.795 42.6336C485.234 42.8673 484.735 43.1987 484.308 43.6263L485.141 44.459ZM486.248 43.7207L486.726 44.7969C486.995 44.6773 487.277 44.6171 487.584 44.6171V43.4395V42.2618C486.953 42.2618 486.345 42.3891 485.77 42.6445L486.248 43.7207ZM487.584 43.4395V44.6171H493.736V43.4395V42.2618H487.584V43.4395ZM493.736 43.4395H492.559V46.9023H493.736H494.914V43.4395H493.736ZM493.736 46.9023V45.7247H487.584V46.9023V48.08H493.736V46.9023ZM514.338 67.2578L513.262 66.7795L513.256 66.7921L513.251 66.8049L514.338 67.2578ZM512.51 69.1035L512.974 70.186L512.981 70.1829L512.988 70.1797L512.51 69.1035ZM500.539 69.1035L500.061 70.1797L500.073 70.1853L500.086 70.1906L500.539 69.1035ZM499.432 68.3652L498.583 69.1821L498.599 69.1981L498.615 69.2135L499.432 68.3652ZM498.693 67.2578L497.606 67.7108L497.612 67.7235L497.617 67.7361L498.693 67.2578ZM498.693 52.7559L497.617 52.2776L497.612 52.2902L497.606 52.3029L498.693 52.7559ZM500.539 50.9277L500.992 52.0148L501.005 52.0095L501.017 52.0039L500.539 50.9277ZM512.51 50.9277L512.02 51.9988L512.038 52.0071L512.057 52.0148L512.51 50.9277ZM513.6 51.666L512.751 52.4829L512.767 52.4989L512.783 52.5143L513.6 51.666ZM514.338 52.7559L513.251 53.2088L513.256 53.2215L513.262 53.2342L514.338 52.7559ZM501.875 54.1094V52.9317H500.697V54.1094H501.875ZM501.875 65.9043H500.697V67.082H501.875V65.9043ZM511.174 65.9043V67.082H512.351V65.9043H511.174ZM511.174 54.1094H512.351V52.9317H511.174V54.1094ZM514.619 65.9043H513.441C513.441 66.2269 513.38 66.5144 513.262 66.7795L514.338 67.2578L515.414 67.7361C515.671 67.1575 515.797 66.5427 515.797 65.9043H514.619ZM514.338 67.2578L513.251 66.8049C513.133 67.0879 512.972 67.3272 512.767 67.5325L513.6 68.3652L514.432 69.198C514.86 68.7704 515.191 68.2715 515.425 67.7108L514.338 67.2578ZM513.6 68.3652L512.767 67.5325C512.572 67.7279 512.331 67.8943 512.031 68.0274L512.51 69.1035L512.988 70.1797C513.533 69.9377 514.018 69.612 514.432 69.198L513.6 68.3652ZM512.51 69.1035L512.046 68.0211C511.793 68.1293 511.507 68.1895 511.174 68.1895V69.3672V70.5448C511.801 70.5448 512.406 70.4293 512.974 70.186L512.51 69.1035ZM511.174 69.3672V68.1895H501.875V69.3672V70.5448H511.174V69.3672ZM501.875 69.3672V68.1895C501.558 68.1895 501.267 68.1309 500.992 68.0164L500.539 69.1035L500.086 70.1906C500.655 70.4277 501.255 70.5448 501.875 70.5448V69.3672ZM500.539 69.1035L501.017 68.0274C500.714 67.8927 500.461 67.7218 500.249 67.5169L499.432 68.3652L498.615 69.2135C499.035 69.6181 499.52 69.9394 500.061 70.1797L500.539 69.1035ZM499.432 68.3652L500.28 67.5484C500.075 67.3357 499.904 67.0826 499.77 66.7795L498.693 67.2578L497.617 67.7361C497.858 68.2768 498.179 68.762 498.583 69.1821L499.432 68.3652ZM498.693 67.2578L499.78 66.8049C499.667 66.5338 499.607 66.2374 499.607 65.9043H498.43H497.252C497.252 66.5321 497.368 67.1381 497.606 67.7108L498.693 67.2578ZM498.43 65.9043H499.607V54.1094H498.43H497.252V65.9043H498.43ZM498.43 54.1094H499.607C499.607 53.7763 499.667 53.4799 499.78 53.2088L498.693 52.7559L497.606 52.3029C497.368 52.8756 497.252 53.4815 497.252 54.1094H498.43ZM498.693 52.7559L499.77 53.2342C499.903 52.9349 500.069 52.6941 500.264 52.4987L499.432 51.666L498.599 50.8333C498.185 51.2473 497.859 51.7331 497.617 52.2776L498.693 52.7559ZM499.432 51.666L500.264 52.4987C500.47 52.2935 500.709 52.1327 500.992 52.0148L500.539 50.9277L500.086 49.8407C499.525 50.0743 499.026 50.4058 498.599 50.8333L499.432 51.666ZM500.539 50.9277L501.017 52.0039C501.286 51.8844 501.568 51.8241 501.875 51.8241V50.6465V49.4688C501.244 49.4688 500.636 49.5961 500.061 49.8516L500.539 50.9277ZM501.875 50.6465V51.8241H511.174V50.6465V49.4688H501.875V50.6465ZM511.174 50.6465V51.8241C511.497 51.8241 511.774 51.8861 512.02 51.9988L512.51 50.9277L512.999 49.8567C512.426 49.5944 511.812 49.4688 511.174 49.4688V50.6465ZM512.51 50.9277L512.057 52.0148C512.336 52.1311 512.563 52.2874 512.751 52.4829L513.6 51.666L514.448 50.8491C514.027 50.4118 513.527 50.0759 512.963 49.8407L512.51 50.9277ZM513.6 51.666L512.783 52.5143C512.978 52.7026 513.135 52.9297 513.251 53.2088L514.338 52.7559L515.425 52.3029C515.19 51.7383 514.854 51.2388 514.416 50.8177L513.6 51.666ZM514.338 52.7559L513.262 53.2342C513.38 53.4993 513.441 53.7868 513.441 54.1094H514.619H515.797C515.797 53.471 515.671 52.8562 515.414 52.2776L514.338 52.7559ZM514.619 54.1094H513.441V65.9043H514.619H515.797V54.1094H514.619ZM501.875 54.1094H500.697V65.9043H501.875H503.053V54.1094H501.875ZM501.875 65.9043V67.082H511.174V65.9043V64.7266H501.875V65.9043ZM511.174 65.9043H512.351V54.1094H511.174H509.996V65.9043H511.174ZM511.174 54.1094V52.9317H501.875V54.1094V55.287H511.174V54.1094ZM523.848 54.1094V52.9317H522.67V54.1094H523.848ZM523.848 69.3672V70.5448H525.025V69.3672H523.848ZM520.402 69.3672H519.225V70.5448H520.402V69.3672ZM520.402 50.6465V49.4688H519.225V50.6465H520.402ZM523.848 50.6465H525.025V49.4688H523.848V50.6465ZM523.848 53.9512H522.67L525.024 54.0115L523.848 53.9512ZM524.164 52.668L525.23 53.1694L525.235 53.1576L524.164 52.668ZM524.902 51.6133L525.719 52.4622L525.719 52.4616L524.902 51.6133ZM525.992 50.9102L526.43 52.0036L526.443 51.9982L526.456 51.9926L525.992 50.9102ZM532.32 50.9277L531.831 51.9988L531.849 52.0071L531.867 52.0148L532.32 50.9277ZM533.428 51.666L532.595 52.4987L532.603 52.5066L532.611 52.5143L533.428 51.666ZM534.166 52.7559L533.079 53.2088L533.084 53.2215L533.09 53.2342L534.166 52.7559ZM534.447 57.2734V58.4511H535.625V57.2734H534.447ZM530.984 57.2734H529.807V58.4511H530.984V57.2734ZM530.984 54.1094H532.162V52.9317H530.984V54.1094ZM523.848 54.1094H522.67V69.3672H523.848H525.025V54.1094H523.848ZM523.848 69.3672V68.1895H520.402V69.3672V70.5448H523.848V69.3672ZM520.402 69.3672H521.58V50.6465H520.402H519.225V69.3672H520.402ZM520.402 50.6465V51.8241H523.848V50.6465V49.4688H520.402V50.6465ZM523.848 50.6465H522.67V53.9512H523.848H525.025V50.6465H523.848ZM523.848 53.9512L525.024 54.0115C525.04 53.7012 525.11 53.424 525.23 53.1694L524.164 52.668L523.098 52.1665C522.843 52.7089 522.703 53.2871 522.672 53.8909L523.848 53.9512ZM524.164 52.668L525.235 53.1576C525.365 52.873 525.528 52.6458 525.719 52.4622L524.902 51.6133L524.086 50.7644C523.668 51.1667 523.338 51.6426 523.093 52.1783L524.164 52.668ZM524.902 51.6133L525.719 52.4616C525.925 52.2629 526.16 52.1115 526.43 52.0036L525.992 50.9102L525.555 49.8167C525.004 50.0369 524.512 50.3543 524.085 50.765L524.902 51.6133ZM525.992 50.9102L526.456 51.9926C526.712 51.8828 526.993 51.8241 527.311 51.8241V50.6465V49.4688C526.691 49.4688 526.092 49.586 525.528 49.8277L525.992 50.9102ZM527.311 50.6465V51.8241H530.984V50.6465V49.4688H527.311V50.6465ZM530.984 50.6465V51.8241C531.307 51.8241 531.584 51.8861 531.831 51.9988L532.32 50.9277L532.81 49.8567C532.236 49.5944 531.623 49.4688 530.984 49.4688V50.6465ZM532.32 50.9277L531.867 52.0148C532.15 52.1327 532.39 52.2935 532.595 52.4987L533.428 51.666L534.26 50.8333C533.833 50.4058 533.334 50.0743 532.773 49.8407L532.32 50.9277ZM533.428 51.666L532.611 52.5143C532.806 52.7026 532.963 52.9297 533.079 53.2088L534.166 52.7559L535.253 52.3029C535.018 51.7383 534.682 51.2388 534.245 50.8177L533.428 51.666ZM534.166 52.7559L533.09 53.2342C533.208 53.4993 533.27 53.7868 533.27 54.1094H534.447H535.625C535.625 53.471 535.499 52.8562 535.242 52.2776L534.166 52.7559ZM534.447 54.1094H533.27V57.2734H534.447H535.625V54.1094H534.447ZM534.447 57.2734V56.0958H530.984V57.2734V58.4511H534.447V57.2734ZM530.984 57.2734H532.162V54.1094H530.984H529.807V57.2734H530.984ZM530.984 54.1094V52.9317H523.848V54.1094V55.287H530.984V54.1094ZM553.59 54.1094V52.9317H552.412V54.1094H553.59ZM553.59 69.3672V70.5448H554.767V69.3672H553.59ZM550.127 69.3672H548.949V70.5448H550.127V69.3672ZM550.127 54.1094H551.305V52.9317H550.127V54.1094ZM542.199 54.1094V52.9317H541.022V54.1094H542.199ZM542.199 69.3672V70.5448H543.377V69.3672H542.199ZM538.754 69.3672H537.576V70.5448H538.754V69.3672ZM538.754 50.6465V49.4688H537.576V50.6465H538.754ZM542.199 50.6465H543.377V49.4688H542.199V50.6465ZM542.199 53.9512H541.022L543.375 54.0115L542.199 53.9512ZM542.516 52.668L543.581 53.1694L543.587 53.1576L542.516 52.668ZM543.254 51.6133L544.07 52.4622L544.071 52.4616L543.254 51.6133ZM544.344 50.9102L544.781 52.0036L544.794 51.9982L544.808 51.9926L544.344 50.9102ZM551.428 50.9102L550.964 51.9926L550.977 51.9982L550.99 52.0036L551.428 50.9102ZM552.518 51.6133L551.701 52.4616L551.709 52.4696L551.717 52.4774L552.518 51.6133ZM553.273 52.668L552.202 53.1576L552.211 53.1763L552.22 53.1946L553.273 52.668ZM553.59 53.9512L552.413 53.9814L554.766 54.0115L553.59 53.9512ZM553.889 52.668L552.818 52.1783L552.814 52.1855L552.811 52.1926L553.889 52.668ZM554.627 51.6133L555.443 52.4622L555.444 52.4616L554.627 51.6133ZM555.717 50.9102L556.154 52.0036L556.167 51.9982L556.181 51.9926L555.717 50.9102ZM562.854 50.9277L562.375 52.0039L562.388 52.0095L562.401 52.0148L562.854 50.9277ZM563.943 51.666L563.095 52.4829L563.11 52.4989L563.126 52.5143L563.943 51.666ZM564.682 52.7559L563.595 53.2088L563.6 53.2215L563.605 53.2342L564.682 52.7559ZM564.963 69.3672V70.5448H566.141V69.3672H564.963ZM561.5 69.3672H560.322V70.5448H561.5V69.3672ZM561.5 54.1094H562.678V52.9317H561.5V54.1094ZM553.59 54.1094H552.412V69.3672H553.59H554.767V54.1094H553.59ZM553.59 69.3672V68.1895H550.127V69.3672V70.5448H553.59V69.3672ZM550.127 69.3672H551.305V54.1094H550.127H548.949V69.3672H550.127ZM550.127 54.1094V52.9317H542.199V54.1094V55.287H550.127V54.1094ZM542.199 54.1094H541.022V69.3672H542.199H543.377V54.1094H542.199ZM542.199 69.3672V68.1895H538.754V69.3672V70.5448H542.199V69.3672ZM538.754 69.3672H539.932V50.6465H538.754H537.576V69.3672H538.754ZM538.754 50.6465V51.8241H542.199V50.6465V49.4688H538.754V50.6465ZM542.199 50.6465H541.022V53.9512H542.199H543.377V50.6465H542.199ZM542.199 53.9512L543.375 54.0115C543.391 53.7012 543.461 53.424 543.581 53.1694L542.516 52.668L541.45 52.1665C541.195 52.7089 541.054 53.2871 541.023 53.8909L542.199 53.9512ZM542.516 52.668L543.587 53.1576C543.717 52.873 543.879 52.6458 544.07 52.4622L543.254 51.6133L542.438 50.7644C542.019 51.1667 541.689 51.6426 541.445 52.1783L542.516 52.668ZM543.254 51.6133L544.071 52.4616C544.277 52.2629 544.511 52.1115 544.781 52.0036L544.344 50.9102L543.906 49.8167C543.356 50.0369 542.864 50.3543 542.437 50.765L543.254 51.6133ZM544.344 50.9102L544.808 51.9926C545.064 51.8828 545.345 51.8241 545.662 51.8241V50.6465V49.4688C545.042 49.4688 544.444 49.586 543.88 49.8277L544.344 50.9102ZM545.662 50.6465V51.8241H550.127V50.6465V49.4688H545.662V50.6465ZM550.127 50.6465V51.8241C550.428 51.8241 550.704 51.8812 550.964 51.9926L551.428 50.9102L551.892 49.8277C551.331 49.5876 550.74 49.4688 550.127 49.4688V50.6465ZM551.428 50.9102L550.99 52.0036C551.26 52.1115 551.494 52.2629 551.701 52.4616L552.518 51.6133L553.334 50.765C552.908 50.3543 552.416 50.0369 551.865 49.8167L551.428 50.9102ZM552.518 51.6133L551.717 52.4774C551.914 52.6598 552.077 52.8823 552.202 53.1576L553.273 52.668L554.344 52.1783C554.095 51.6333 553.753 51.1527 553.318 50.7492L552.518 51.6133ZM553.273 52.668L552.22 53.1946C552.34 53.4345 552.405 53.6922 552.413 53.9814L553.59 53.9512L554.767 53.921C554.751 53.2961 554.605 52.6983 554.327 52.1413L553.273 52.668ZM553.59 53.9512L554.766 54.0115C554.782 53.6903 554.851 53.404 554.966 53.1433L553.889 52.668L552.811 52.1926C552.575 52.7288 552.444 53.298 552.414 53.8909L553.59 53.9512ZM553.889 52.668L554.96 53.1576C555.09 52.873 555.252 52.6458 555.443 52.4622L554.627 51.6133L553.811 50.7644C553.392 51.1667 553.063 51.6426 552.818 52.1783L553.889 52.668ZM554.627 51.6133L555.444 52.4616C555.65 52.2629 555.884 52.1115 556.154 52.0036L555.717 50.9102L555.279 49.8167C554.729 50.0369 554.237 50.3543 553.81 50.765L554.627 51.6133ZM555.717 50.9102L556.181 51.9926C556.437 51.8828 556.718 51.8241 557.035 51.8241V50.6465V49.4688C556.415 49.4688 555.817 49.586 555.253 49.8277L555.717 50.9102ZM557.035 50.6465V51.8241H561.5V50.6465V49.4688H557.035V50.6465ZM561.5 50.6465V51.8241C561.823 51.8241 562.11 51.886 562.375 52.0039L562.854 50.9277L563.332 49.8516C562.753 49.5944 562.138 49.4688 561.5 49.4688V50.6465ZM562.854 50.9277L562.401 52.0148C562.68 52.1311 562.907 52.2874 563.095 52.4829L563.943 51.666L564.792 50.8491C564.371 50.4118 563.871 50.0759 563.306 49.8407L562.854 50.9277ZM563.943 51.666L563.126 52.5143C563.322 52.7026 563.478 52.9297 563.595 53.2088L564.682 52.7559L565.769 52.3029C565.533 51.7383 565.198 51.2388 564.76 50.8177L563.943 51.666ZM564.682 52.7559L563.605 53.2342C563.723 53.4993 563.785 53.7868 563.785 54.1094H564.963H566.141C566.141 53.471 566.015 52.8562 565.758 52.2776L564.682 52.7559ZM564.963 54.1094H563.785V69.3672H564.963H566.141V54.1094H564.963ZM564.963 69.3672V68.1895H561.5V69.3672V70.5448H564.963V69.3672ZM561.5 69.3672H562.678V54.1094H561.5H560.322V69.3672H561.5ZM561.5 54.1094V52.9317H553.59V54.1094V55.287H561.5V54.1094Z" fill="#EDC702"/>
<path d="M1712.07 21.5605H1653.27H1594.48" stroke="#475671" stroke-width="2"/>
<path d="M775.136 38.5532L792.867 21.5605H822.265H851.663" stroke="#475671" stroke-width="2"/>
<defs>
<linearGradient id="paint0_linear_257_439" x1="-361.345" y1="59.6421" x2="651.724" y2="59.6421" gradientUnits="userSpaceOnUse">
<stop stop-color="#52729F"/>
<stop offset="1" stop-color="#1D2939"/>
</linearGradient>
<linearGradient id="paint1_linear_257_439" x1="67.0908" y1="-1" x2="67.0908" y2="93.3701" gradientUnits="userSpaceOnUse">
<stop stop-color="white"/>
<stop offset="1" stop-color="#819DBF"/>
</linearGradient>
</defs>
</svg>
