<svg width="1920" height="93" viewBox="0 0 1920 93" fill="none" xmlns="http://www.w3.org/2000/svg">
<path d="M1922.76 -12.9062L1898.57 9.85938H416.381V-12.9062H1922.76Z" fill="#111822"/>
<path d="M721.941 89.531L792.867 21.5605H1713.88" stroke="#475671"/>
<path d="M1484.05 -12.9062L1459.86 9.85938H176.879V-12.9062H1484.05Z" fill="#1A2433"/>
<path d="M1088.68 -12.9062L1064.49 9.85938H-44.4961V-12.9062H1088.68Z" fill="#233043"/>
<path d="M996.994 -12.9062L972.801 9.85938H352.781V-12.9062H996.994Z" fill="#2B3C54"/>
<path d="M599.717 -12.9062L575.523 9.85938H-44.4961V-12.9062H599.717Z" fill="#344865"/>
<path d="M765.425 26.2812L694.522 93H-898.859V26.2812H765.425Z" fill="#344865"/>
<path d="M722.219 26.2812L651.315 93H-898.859V26.2812H722.219Z" fill="#2B3C54"/>
<path d="M685.834 26.2812L614.931 93H-898.859V26.2812H685.834Z" fill="#243145"/>
<path d="M651.724 26.2812L580.82 93L-898.859 93.003V26.2843L651.724 26.2812Z" fill="url(#paint0_linear_216_880)"/>
<path d="M1691.68 93.0029L1762.59 26.2842L3242.27 26.2812V92.9999L1691.68 93.0029Z" fill="url(#paint1_linear_216_880)"/>
<mask id="mask0_216_880" style="mask-type:alpha" maskUnits="userSpaceOnUse" x="42" y="-2" width="78" height="96">
<path d="M80.795 -1.36719L42 15.791V41.5283C42 65.3352 58.5525 87.598 80.795 93.0028C103.037 87.598 119.59 65.3352 119.59 41.5283V15.791L80.795 -1.36719Z" fill="black"/>
</mask>
<g mask="url(#mask0_216_880)">
<path d="M119.59 15.791V41.5283C119.59 65.3353 103.037 87.5981 80.7948 93.0029C62.2377 88.4935 47.6437 72.2489 43.3163 53.1641H51.6064C52.0513 53.5915 52.6637 54.1686 53.4189 54.8467C55.0591 56.3196 57.3845 58.2878 60.123 60.2627C65.458 64.1102 72.9108 68.3941 80.0888 68.415C84.3205 68.4273 88.4464 66.9666 92.1444 64.9541C95.8575 62.9333 99.2995 60.2687 102.211 57.6621C105.13 55.0484 107.573 52.4417 109.283 50.4922C110.14 49.5157 110.817 48.6988 111.284 48.1221C111.517 47.8337 111.699 47.6045 111.823 47.4453C111.885 47.3659 111.933 47.3033 111.967 47.2598C111.983 47.2383 111.996 47.2213 112.006 47.209C112.01 47.2029 112.015 47.1971 112.017 47.1934C112.019 47.1917 112.02 47.1906 112.021 47.1895L112.022 47.1875L109.859 45.5469C111.925 43.9142 111.987 43.8635 111.988 43.8613L111.987 43.8604L111.933 43.792C111.899 43.7498 111.85 43.6893 111.787 43.6123C111.662 43.4584 111.479 43.237 111.244 42.958C110.774 42.3999 110.091 41.6095 109.228 40.6641C107.507 38.7767 105.053 36.2521 102.126 33.7178C96.4287 28.7846 88.331 23.2663 80.1112 23.2227C73.0943 23.1855 65.6567 27.1515 60.2909 30.7373C57.5391 32.5763 55.1919 34.4128 53.5331 35.7881C52.753 36.4349 52.122 36.983 51.6689 37.3848H41.9999V15.791L80.7948 -1.36719L119.59 15.791ZM80.0819 28.6523C86.1841 28.6847 92.9677 32.9711 98.5712 37.8232C101.295 40.1816 103.595 42.5458 105.217 44.3232C105.64 44.7873 106.016 45.2102 106.34 45.5811C106.013 45.9711 105.632 46.4196 105.201 46.9111C103.59 48.7469 101.302 51.1865 98.5888 53.6162C95.867 56.0531 92.7714 58.4307 89.5487 60.1846C86.3111 61.9465 83.1019 62.9941 80.1044 62.9854C74.7641 62.9697 68.5259 59.6273 63.2997 55.8584C61.1991 54.3435 59.3506 52.8252 57.9042 51.5645C58.5193 51.356 59.1798 51.1347 59.869 50.8994C62.5633 49.9796 65.7305 48.884 68.4911 47.8906C69.8798 52.3751 74.0591 55.6328 78.9999 55.6328C85.075 55.6328 89.9998 50.7079 89.9999 44.6328C89.9998 38.5577 85.075 33.6328 78.9999 33.6328C73.7645 33.6329 69.3864 37.2912 68.2753 42.1904C65.2585 43.2997 61.3661 44.6509 58.1151 45.7607C56.355 46.3616 54.7898 46.8897 53.6649 47.2676C53.1027 47.4565 52.6501 47.6079 52.3388 47.7119C52.3166 47.7193 52.295 47.7265 52.2743 47.7334H42.3759C42.1803 46.1059 42.0597 44.4647 42.0185 42.8145H53.7919L54.5761 42.0762L54.581 42.0713C54.5861 42.0665 54.5952 42.0582 54.6073 42.0469C54.6318 42.0241 54.6706 41.9881 54.7226 41.9404C54.8267 41.8449 54.9848 41.7013 55.1923 41.5166C55.6082 41.1464 56.2225 40.6115 56.9989 39.9678C58.555 38.6776 60.7506 36.9614 63.3085 35.252C68.5627 31.7407 74.8161 28.6246 80.0819 28.6523ZM42.3759 47.7334C42.5958 49.5638 42.9109 51.3763 43.3163 53.1641H40.5917V47.7334H42.3759ZM78.9999 37.7891C82.7795 37.7891 85.8436 40.8533 85.8437 44.6328C85.8436 48.4123 82.7795 51.4766 78.9999 51.4766C75.2204 51.4765 72.1562 48.4123 72.1562 44.6328C72.1562 40.8533 75.2204 37.7891 78.9999 37.7891ZM109.859 45.5469L112.023 47.1865L113.293 45.5117L111.989 43.8633L109.859 45.5469ZM41.9999 41.5283C41.9999 41.9576 42.0078 42.3863 42.0185 42.8145H40.5917V37.3848H41.9999V41.5283Z" fill="url(#paint2_linear_216_880)"/>
</g>
<path d="M155.651 48.5614C155.651 47.9818 155.761 47.4367 155.982 46.926C156.203 46.4016 156.506 45.9531 156.893 45.5805C157.279 45.1941 157.728 44.8904 158.238 44.6696C158.763 44.435 159.315 44.3177 159.894 44.3177H176C176.579 44.3177 177.124 44.435 177.635 44.6696C178.159 44.8904 178.615 45.1941 179.001 45.5805C179.388 45.9531 179.691 46.4016 179.912 46.926C180.133 47.4367 180.243 47.9818 180.243 48.5614V52.3911H176V48.5614H159.894V69.7592H176V65.9502H180.243V69.7592C180.243 70.3389 180.133 70.8909 179.912 71.4153C179.691 71.9259 179.388 72.3745 179.001 72.7609C178.615 73.1473 178.159 73.4509 177.635 73.6717C177.124 73.8925 176.579 74.0029 176 74.0029H159.894C159.315 74.0029 158.763 73.8925 158.238 73.6717C157.728 73.4509 157.279 73.1473 156.893 72.7609C156.506 72.3745 156.203 71.9259 155.982 71.4153C155.761 70.8909 155.651 70.3389 155.651 69.7592V48.5614ZM189 44.3177L197.632 58.1874L206.285 44.3177H211.212L199.764 62.2241V74.0029H195.521V62.2241L184.073 44.3177H189ZM235.225 58.5186C235.846 58.7118 236.412 58.9878 236.923 59.3466C237.433 59.7054 237.868 60.1678 238.227 60.7336C238.586 61.2856 238.862 61.9412 239.055 62.7002C239.248 63.4592 239.345 64.3287 239.345 65.3085V66.799C239.345 71.6016 236.943 74.0029 232.141 74.0029H215.89V44.3177H231.292C236.095 44.3177 238.496 46.7259 238.496 51.5424V52.0806C238.496 53.7505 238.227 55.1167 237.689 56.1794C237.164 57.2282 236.343 58.008 235.225 58.5186ZM220.051 61.0648V69.842H232.016C233.134 69.842 233.942 69.5798 234.439 69.0554C234.935 68.531 235.184 67.7098 235.184 66.592V64.2942C235.184 63.1625 234.935 62.3414 234.439 61.8307C233.942 61.3201 233.134 61.0648 232.016 61.0648H220.051ZM220.051 48.4786V56.9246H231.458C232.479 56.8832 233.21 56.6072 233.652 56.0966C234.107 55.5722 234.335 54.7717 234.335 53.6953V51.7494C234.335 50.6177 234.087 49.7897 233.59 49.2652C233.093 48.7408 232.286 48.4786 231.168 48.4786H220.051ZM245.7 44.3177H267.332V48.5614H249.944V57.0488H264.786V61.2925H249.944V69.7592H267.332V74.0029H245.7V44.3177ZM297.142 54.9166C297.142 59.0568 295.375 61.4167 291.842 61.9964L297.432 74.0029H292.732L287.226 62.1413H277.931V74.0029H273.688V44.3177H289.938C294.74 44.3177 297.142 46.7259 297.142 51.5424V54.9166ZM277.931 57.8976H289.71C290.842 57.8976 291.656 57.6491 292.153 57.1523C292.65 56.6555 292.898 55.8413 292.898 54.7096V51.7494C292.898 50.6177 292.65 49.8035 292.153 49.3067C291.656 48.8098 290.842 48.5614 289.71 48.5614H277.931V57.8976ZM321.196 61.2925C320.617 61.2925 320.065 61.1821 319.54 60.9613C319.03 60.7267 318.581 60.4231 318.195 60.0505C317.808 59.664 317.505 59.2155 317.284 58.7049C317.063 58.1805 316.953 57.6284 316.953 57.0488V48.5614C316.953 47.9818 317.063 47.4367 317.284 46.926C317.505 46.4016 317.808 45.9531 318.195 45.5805C318.581 45.1941 319.03 44.8904 319.54 44.6696C320.065 44.435 320.617 44.3177 321.196 44.3177H335.604C336.184 44.3177 336.729 44.435 337.24 44.6696C337.764 44.8904 338.219 45.1941 338.606 45.5805C338.992 45.9531 339.296 46.4016 339.517 46.926C339.738 47.4367 339.848 47.9818 339.848 48.5614V52.3911H335.604V48.5614H321.196V57.0488H335.604C336.184 57.0488 336.729 57.1592 337.24 57.38C337.764 57.6008 338.219 57.9045 338.606 58.2909C338.992 58.6773 339.296 59.1327 339.517 59.6571C339.738 60.1678 339.848 60.7129 339.848 61.2925V69.7592C339.848 70.3389 339.738 70.8909 339.517 71.4153C339.296 71.9259 338.992 72.3745 338.606 72.7609C338.219 73.1473 337.764 73.4509 337.24 73.6717C336.729 73.8925 336.184 74.0029 335.604 74.0029H320.782C320.203 74.0029 319.651 73.8925 319.126 73.6717C318.616 73.4509 318.167 73.1473 317.781 72.7609C317.394 72.3745 317.091 71.9259 316.87 71.4153C316.649 70.8909 316.539 70.3389 316.539 69.7592V65.9502H320.782V69.7592H335.604V61.2925H321.196ZM347.507 44.3177H369.14V48.5614H351.751V57.0488H366.594V61.2925H351.751V69.7592H369.14V74.0029H347.507V44.3177ZM379.739 74.0029H375.495V44.3177H379.739L397.583 67.3372V44.3177H401.827V74.0029H397.583L379.739 50.9834V74.0029ZM406.898 44.3177H430.642V48.5614H420.892V74.0029H416.649V48.5614H406.898V44.3177ZM439.979 44.3177V74.0029H435.735V44.3177H439.979ZM451.861 74.0029H447.617V44.3177H451.861L469.705 67.3372V44.3177H473.949V74.0029H469.705L451.861 50.9834V74.0029ZM481.567 44.3177H503.199V48.5614H485.811V57.0488H500.653V61.2925H485.811V69.7592H503.199V74.0029H481.567V44.3177ZM513.798 44.3177V69.7592H529.055V74.0029H509.555V44.3177H513.798Z" fill="#EDC702"/>
<path d="M155.982 46.926L157.063 47.3935L157.067 47.383L155.982 46.926ZM156.893 45.5805L157.71 46.4282L157.718 46.4208L157.725 46.4132L156.893 45.5805ZM158.238 44.6696L158.706 45.7506L158.712 45.7476L158.719 45.7446L158.238 44.6696ZM177.635 44.6696L177.143 45.7397L177.161 45.7476L177.178 45.755L177.635 44.6696ZM179.001 45.5805L178.169 46.4132L178.176 46.4208L178.184 46.4282L179.001 45.5805ZM179.912 46.926L178.827 47.3831L178.831 47.3935L179.912 46.926ZM180.243 52.3911V53.5688H181.421V52.3911H180.243ZM176 52.3911H174.822V53.5688H176V52.3911ZM176 48.5614H177.177V47.3838H176V48.5614ZM159.894 48.5614V47.3838H158.717V48.5614H159.894ZM159.894 69.7592H158.717V70.9369H159.894V69.7592ZM176 69.7592V70.9369H177.177V69.7592H176ZM176 65.9502V64.7726H174.822V65.9502H176ZM180.243 65.9502H181.421V64.7726H180.243V65.9502ZM179.912 71.4153L180.993 71.8828L180.997 71.8723L179.912 71.4153ZM177.635 73.6717L177.178 72.5863L177.168 72.5908L177.635 73.6717ZM158.238 73.6717L157.771 74.7527L157.781 74.7571L158.238 73.6717ZM155.982 71.4153L154.896 71.8723L154.901 71.8827L155.982 71.4153ZM155.651 48.5614H156.828C156.828 48.1357 156.908 47.7503 157.063 47.3935L155.982 46.926L154.901 46.4586C154.614 47.123 154.473 47.8279 154.473 48.5614H155.651ZM155.982 46.926L157.067 47.383C157.23 46.9967 157.445 46.6835 157.71 46.4282L156.893 45.5805L156.075 44.7327C155.567 45.2227 155.175 45.8065 154.896 46.469L155.982 46.926ZM156.893 45.5805L157.725 46.4132C158.005 46.1337 158.329 45.9135 158.706 45.7506L158.238 44.6696L157.771 43.5887C157.126 43.8674 156.553 44.2544 156.06 44.7477L156.893 45.5805ZM158.238 44.6696L158.719 45.7446C159.091 45.5783 159.479 45.4954 159.894 45.4954V44.3177V43.1401C159.15 43.1401 158.434 43.2917 157.757 43.5946L158.238 44.6696ZM159.894 44.3177V45.4954H176V44.3177V43.1401H159.894V44.3177ZM176 44.3177V45.4954C176.415 45.4954 176.792 45.5782 177.143 45.7397L177.635 44.6696L178.127 43.5995C177.457 43.2918 176.743 43.1401 176 43.1401V44.3177ZM177.635 44.6696L177.178 45.755C177.568 45.9192 177.894 46.1389 178.169 46.4132L179.001 45.5805L179.834 44.7477C179.335 44.2492 178.751 43.8617 178.092 43.5843L177.635 44.6696ZM179.001 45.5805L178.184 46.4282C178.449 46.6835 178.664 46.9967 178.827 47.383L179.912 46.926L180.997 46.469C180.719 45.8065 180.327 45.2227 179.819 44.7327L179.001 45.5805ZM179.912 46.926L178.831 47.3935C178.986 47.7503 179.066 48.1357 179.066 48.5614H180.243H181.421C181.421 47.8279 181.28 47.123 180.993 46.4586L179.912 46.926ZM180.243 48.5614H179.066V52.3911H180.243H181.421V48.5614H180.243ZM180.243 52.3911V51.2134H176V52.3911V53.5688H180.243V52.3911ZM176 52.3911H177.177V48.5614H176H174.822V52.3911H176ZM176 48.5614V47.3838H159.894V48.5614V49.7391H176V48.5614ZM159.894 48.5614H158.717V69.7592H159.894H161.072V48.5614H159.894ZM159.894 69.7592V70.9369H176V69.7592V68.5816H159.894V69.7592ZM176 69.7592H177.177V65.9502H176H174.822V69.7592H176ZM176 65.9502V67.1279H180.243V65.9502V64.7726H176V65.9502ZM180.243 65.9502H179.066V69.7592H180.243H181.421V65.9502H180.243ZM180.243 69.7592H179.066C179.066 70.1849 178.985 70.5813 178.827 70.9583L179.912 71.4153L180.997 71.8723C181.28 71.2005 181.421 70.4928 181.421 69.7592H180.243ZM179.912 71.4153L178.831 70.9479C178.668 71.3247 178.448 71.6487 178.169 71.9281L179.001 72.7609L179.834 73.5936C180.327 73.1002 180.714 72.5272 180.993 71.8827L179.912 71.4153ZM179.001 72.7609L178.169 71.9281C177.894 72.2024 177.568 72.4222 177.178 72.5863L177.635 73.6717L178.092 74.7571C178.751 74.4796 179.335 74.0922 179.834 73.5936L179.001 72.7609ZM177.635 73.6717L177.168 72.5908C176.811 72.7451 176.425 72.8253 176 72.8253V74.0029V75.1806C176.733 75.1806 177.438 75.0399 178.102 74.7526L177.635 73.6717ZM176 74.0029V72.8253H159.894V74.0029V75.1806H176V74.0029ZM159.894 74.0029V72.8253C159.469 72.8253 159.072 72.7451 158.695 72.5863L158.238 73.6717L157.781 74.7571C158.453 75.04 159.161 75.1806 159.894 75.1806V74.0029ZM158.238 73.6717L158.706 72.5908C158.329 72.4279 158.005 72.2076 157.725 71.9281L156.893 72.7609L156.06 73.5936C156.553 74.087 157.126 74.474 157.771 74.7526L158.238 73.6717ZM156.893 72.7609L157.725 71.9281C157.446 71.6487 157.226 71.3247 157.063 70.9479L155.982 71.4153L154.901 71.8827C155.18 72.5272 155.567 73.1002 156.06 73.5936L156.893 72.7609ZM155.982 71.4153L157.067 70.9583C156.908 70.5813 156.828 70.1849 156.828 69.7592H155.651H154.473C154.473 70.4928 154.614 71.2005 154.896 71.8723L155.982 71.4153ZM155.651 69.7592H156.828V48.5614H155.651H154.473V69.7592H155.651ZM189 44.3177L190 43.6954L189.654 43.1401H189V44.3177ZM197.632 58.1874L196.632 58.8097L197.631 60.4142L198.631 58.8107L197.632 58.1874ZM206.285 44.3177V43.1401H205.632L205.286 43.6944L206.285 44.3177ZM211.212 44.3177L212.204 44.952L213.363 43.1401H211.212V44.3177ZM199.764 62.2241L198.772 61.5897L198.587 61.8798V62.2241H199.764ZM199.764 74.0029V75.1806H200.942V74.0029H199.764ZM195.521 74.0029H194.343V75.1806H195.521V74.0029ZM195.521 62.2241H196.698V61.8798L196.513 61.5897L195.521 62.2241ZM184.073 44.3177V43.1401H181.922L183.081 44.952L184.073 44.3177ZM189 44.3177L188 44.94L196.632 58.8097L197.632 58.1874L198.632 57.5651L190 43.6954L189 44.3177ZM197.632 58.1874L198.631 58.8107L207.284 44.9411L206.285 44.3177L205.286 43.6944L196.633 57.564L197.632 58.1874ZM206.285 44.3177V45.4954H211.212V44.3177V43.1401H206.285V44.3177ZM211.212 44.3177L210.22 43.6834L198.772 61.5897L199.764 62.2241L200.757 62.8584L212.204 44.952L211.212 44.3177ZM199.764 62.2241H198.587V74.0029H199.764H200.942V62.2241H199.764ZM199.764 74.0029V72.8253H195.521V74.0029V75.1806H199.764V74.0029ZM195.521 74.0029H196.698V62.2241H195.521H194.343V74.0029H195.521ZM195.521 62.2241L196.513 61.5897L185.065 43.6834L184.073 44.3177L183.081 44.952L194.528 62.8584L195.521 62.2241ZM184.073 44.3177V45.4954H189V44.3177V43.1401H184.073V44.3177ZM235.225 58.5186L234.736 57.4474L231.933 58.7277L234.875 59.6431L235.225 58.5186ZM238.227 60.7336L237.232 61.3643L237.239 61.3754L238.227 60.7336ZM215.89 74.0029H214.713V75.1806H215.89V74.0029ZM215.89 44.3177V43.1401H214.713V44.3177H215.89ZM237.689 56.1794L236.638 55.6473L236.635 55.6527L237.689 56.1794ZM220.051 61.0648V59.8872H218.874V61.0648H220.051ZM220.051 69.842H218.874V71.0197H220.051V69.842ZM220.051 48.4786V47.301H218.874V48.4786H220.051ZM220.051 56.9246H218.874V58.1023H220.051V56.9246ZM231.458 56.9246V58.1023H231.481L231.505 58.1013L231.458 56.9246ZM233.652 56.0966L232.763 55.3244L232.761 55.3262L233.652 56.0966ZM235.225 58.5186L234.875 59.6431C235.385 59.8015 235.839 60.0246 236.246 60.3102L236.923 59.3466L237.6 58.3831C236.985 57.951 236.308 57.6221 235.575 57.3941L235.225 58.5186ZM236.923 59.3466L236.246 60.3102C236.62 60.5736 236.95 60.9195 237.232 61.3643L238.227 60.7336L239.221 60.1029C238.786 59.4161 238.246 58.8373 237.6 58.3831L236.923 59.3466ZM238.227 60.7336L237.239 61.3754C237.516 61.8013 237.746 62.3334 237.914 62.9907L239.055 62.7002L240.196 62.4097C239.977 61.5489 239.655 60.77 239.214 60.0918L238.227 60.7336ZM239.055 62.7002L237.914 62.9907C238.077 63.6346 238.167 64.4033 238.167 65.3085H239.345H240.522C240.522 64.254 240.419 63.2839 240.196 62.4097L239.055 62.7002ZM239.345 65.3085H238.167V66.799H239.345H240.522V65.3085H239.345ZM239.345 66.799H238.167C238.167 69.0188 237.613 70.4673 236.711 71.3692C235.809 72.2711 234.36 72.8253 232.141 72.8253V74.0029V75.1806C234.724 75.1806 236.877 74.5341 238.376 73.0347C239.876 71.5353 240.522 69.3818 240.522 66.799H239.345ZM232.141 74.0029V72.8253H215.89V74.0029V75.1806H232.141V74.0029ZM215.89 74.0029H217.068V44.3177H215.89H214.713V74.0029H215.89ZM215.89 44.3177V45.4954H231.292V44.3177V43.1401H215.89V44.3177ZM231.292 44.3177V45.4954C233.511 45.4954 234.959 46.0508 235.861 46.9554C236.764 47.8607 237.318 49.3148 237.318 51.5424H238.496H239.674C239.674 48.9535 239.028 46.7953 237.529 45.2923C236.03 43.7887 233.876 43.1401 231.292 43.1401V44.3177ZM238.496 51.5424H237.318V52.0806H238.496H239.674V51.5424H238.496ZM238.496 52.0806H237.318C237.318 53.6354 237.066 54.8022 236.638 55.6473L237.689 56.1794L238.739 56.7115C239.388 55.4312 239.674 53.8655 239.674 52.0806H238.496ZM237.689 56.1794L236.635 55.6527C236.237 56.4488 235.622 57.0427 234.736 57.4474L235.225 58.5186L235.714 59.5898C237.064 58.9732 238.091 58.0077 238.742 56.706L237.689 56.1794ZM220.051 61.0648H218.874V69.842H220.051H221.229V61.0648H220.051ZM220.051 69.842V71.0197H232.016V69.842V68.6644H220.051V69.842ZM232.016 69.842V71.0197C233.284 71.0197 234.478 70.7265 235.293 69.8653L234.439 69.0554L233.584 68.2455C233.406 68.4332 232.985 68.6644 232.016 68.6644V69.842ZM234.439 69.0554L235.293 69.8653C236.086 69.0287 236.361 67.8515 236.361 66.592H235.184H234.006C234.006 67.5682 233.785 68.0332 233.584 68.2455L234.439 69.0554ZM235.184 66.592H236.361V64.2942H235.184H234.006V66.592H235.184ZM235.184 64.2942H236.361C236.361 63.0293 236.09 61.839 235.283 61.0095L234.439 61.8307L233.594 62.652C233.781 62.8437 234.006 63.2957 234.006 64.2942H235.184ZM234.439 61.8307L235.283 61.0095C234.466 60.1698 233.276 59.8872 232.016 59.8872V61.0648V62.2425C232.993 62.2425 233.418 62.4704 233.594 62.652L234.439 61.8307ZM232.016 61.0648V59.8872H220.051V61.0648V62.2425H232.016V61.0648ZM220.051 48.4786H218.874V56.9246H220.051H221.229V48.4786H220.051ZM220.051 56.9246V58.1023H231.458V56.9246V55.747H220.051V56.9246ZM231.458 56.9246L231.505 58.1013C232.685 58.0535 233.8 57.7261 234.543 56.8669L233.652 56.0966L232.761 55.3262C232.621 55.4883 232.272 55.713 231.41 55.7479L231.458 56.9246ZM233.652 56.0966L234.541 56.8687C235.261 56.0394 235.513 54.9064 235.513 53.6953H234.335H233.157C233.157 54.6371 232.953 55.1049 232.763 55.3244L233.652 56.0966ZM234.335 53.6953H235.513V51.7494H234.335H233.157V53.6953H234.335ZM234.335 51.7494H235.513C235.513 50.4808 235.239 49.2942 234.445 48.4553L233.59 49.2652L232.735 50.0752C232.934 50.2852 233.157 50.7546 233.157 51.7494H234.335ZM233.59 49.2652L234.445 48.4553C233.629 47.5942 232.435 47.301 231.168 47.301V48.4786V49.6563C232.136 49.6563 232.557 49.8875 232.735 50.0752L233.59 49.2652ZM231.168 48.4786V47.301H220.051V48.4786V49.6563H231.168V48.4786ZM245.7 44.3177V43.1401H244.522V44.3177H245.7ZM267.332 44.3177H268.51V43.1401H267.332V44.3177ZM267.332 48.5614V49.7391H268.51V48.5614H267.332ZM249.944 48.5614V47.3838H248.766V48.5614H249.944ZM249.944 57.0488H248.766V58.2265H249.944V57.0488ZM264.786 57.0488H265.964V55.8712H264.786V57.0488ZM264.786 61.2925V62.4702H265.964V61.2925H264.786ZM249.944 61.2925V60.1149H248.766V61.2925H249.944ZM249.944 69.7592H248.766V70.9369H249.944V69.7592ZM267.332 69.7592H268.51V68.5816H267.332V69.7592ZM267.332 74.0029V75.1806H268.51V74.0029H267.332ZM245.7 74.0029H244.522V75.1806H245.7V74.0029ZM245.7 44.3177V45.4954H267.332V44.3177V43.1401H245.7V44.3177ZM267.332 44.3177H266.155V48.5614H267.332H268.51V44.3177H267.332ZM267.332 48.5614V47.3838H249.944V48.5614V49.7391H267.332V48.5614ZM249.944 48.5614H248.766V57.0488H249.944H251.121V48.5614H249.944ZM249.944 57.0488V58.2265H264.786V57.0488V55.8712H249.944V57.0488ZM264.786 57.0488H263.608V61.2925H264.786H265.964V57.0488H264.786ZM264.786 61.2925V60.1149H249.944V61.2925V62.4702H264.786V61.2925ZM249.944 61.2925H248.766V69.7592H249.944H251.121V61.2925H249.944ZM249.944 69.7592V70.9369H267.332V69.7592V68.5816H249.944V69.7592ZM267.332 69.7592H266.155V74.0029H267.332H268.51V69.7592H267.332ZM267.332 74.0029V72.8253H245.7V74.0029V75.1806H267.332V74.0029ZM245.7 74.0029H246.877V44.3177H245.7H244.522V74.0029H245.7ZM291.842 61.9964L291.652 60.8342L290.119 61.0856L290.775 62.4934L291.842 61.9964ZM297.432 74.0029V75.1806H299.279L298.499 73.5059L297.432 74.0029ZM292.732 74.0029L291.664 74.4988L291.981 75.1806H292.732V74.0029ZM287.226 62.1413L288.294 61.6454L287.978 60.9636H287.226V62.1413ZM277.931 62.1413V60.9636H276.754V62.1413H277.931ZM277.931 74.0029V75.1806H279.109V74.0029H277.931ZM273.688 74.0029H272.51V75.1806H273.688V74.0029ZM273.688 44.3177V43.1401H272.51V44.3177H273.688ZM277.931 57.8976H276.754V59.0752H277.931V57.8976ZM277.931 48.5614V47.3838H276.754V48.5614H277.931ZM297.142 54.9166H295.964C295.964 56.8326 295.554 58.1776 294.874 59.086C294.211 59.9721 293.186 60.5825 291.652 60.8342L291.842 61.9964L292.033 63.1585C294.031 62.8306 295.657 61.9712 296.76 60.4974C297.846 59.0459 298.319 57.1409 298.319 54.9166H297.142ZM291.842 61.9964L290.775 62.4934L296.364 74.4999L297.432 74.0029L298.499 73.5059L292.91 61.4994L291.842 61.9964ZM297.432 74.0029V72.8253H292.732V74.0029V75.1806H297.432V74.0029ZM292.732 74.0029L293.801 73.5071L288.294 61.6454L287.226 62.1413L286.158 62.6371L291.664 74.4988L292.732 74.0029ZM287.226 62.1413V60.9636H277.931V62.1413V63.3189H287.226V62.1413ZM277.931 62.1413H276.754V74.0029H277.931H279.109V62.1413H277.931ZM277.931 74.0029V72.8253H273.688V74.0029V75.1806H277.931V74.0029ZM273.688 74.0029H274.865V44.3177H273.688H272.51V74.0029H273.688ZM273.688 44.3177V45.4954H289.938V44.3177V43.1401H273.688V44.3177ZM289.938 44.3177V45.4954C292.157 45.4954 293.605 46.0508 294.507 46.9554C295.41 47.8607 295.964 49.3148 295.964 51.5424H297.142H298.319C298.319 48.9535 297.673 46.7953 296.175 45.2923C294.675 43.7887 292.522 43.1401 289.938 43.1401V44.3177ZM297.142 51.5424H295.964V54.9166H297.142H298.319V51.5424H297.142ZM277.931 57.8976V59.0752H289.71V57.8976V56.7199H277.931V57.8976ZM289.71 57.8976V59.0752C290.971 59.0752 292.166 58.8051 292.986 57.9851L292.153 57.1523L291.32 56.3196C291.147 56.4932 290.712 56.7199 289.71 56.7199V57.8976ZM292.153 57.1523L292.986 57.9851C293.806 57.165 294.076 55.9706 294.076 54.7096H292.898H291.72C291.72 55.7119 291.494 56.146 291.32 56.3196L292.153 57.1523ZM292.898 54.7096H294.076V51.7494H292.898H291.72V54.7096H292.898ZM292.898 51.7494H294.076C294.076 50.4884 293.806 49.294 292.986 48.4739L292.153 49.3067L291.32 50.1394C291.494 50.313 291.72 50.747 291.72 51.7494H292.898ZM292.153 49.3067L292.986 48.4739C292.166 47.6539 290.971 47.3838 289.71 47.3838V48.5614V49.7391C290.712 49.7391 291.147 49.9658 291.32 50.1394L292.153 49.3067ZM289.71 48.5614V47.3838H277.931V48.5614V49.7391H289.71V48.5614ZM277.931 48.5614H276.754V57.8976H277.931H279.109V48.5614H277.931ZM319.54 60.9613L319.049 62.0314L319.066 62.0393L319.083 62.0467L319.54 60.9613ZM318.195 60.0505L317.362 60.8832L317.37 60.8908L317.377 60.8982L318.195 60.0505ZM317.284 58.7049L316.198 59.1619L316.203 59.1723L317.284 58.7049ZM317.284 46.926L318.365 47.3935L318.369 47.383L317.284 46.926ZM318.195 45.5805L319.012 46.4282L319.02 46.4208L319.027 46.4132L318.195 45.5805ZM319.54 44.6696L320.008 45.7506L320.014 45.7476L320.021 45.7446L319.54 44.6696ZM337.24 44.6696L336.748 45.7397L336.765 45.7476L336.783 45.755L337.24 44.6696ZM338.606 45.5805L337.773 46.4132L337.781 46.4208L337.788 46.4282L338.606 45.5805ZM339.517 46.926L338.431 47.3831L338.436 47.3935L339.517 46.926ZM339.848 52.3911V53.5688H341.026V52.3911H339.848ZM335.604 52.3911H334.427V53.5688H335.604V52.3911ZM335.604 48.5614H336.782V47.3838H335.604V48.5614ZM321.196 48.5614V47.3838H320.019V48.5614H321.196ZM321.196 57.0488H320.019V58.2265H321.196V57.0488ZM337.24 57.38L336.772 58.461L336.783 58.4654L337.24 57.38ZM339.517 59.6571L338.431 60.1142L338.436 60.1246L339.517 59.6571ZM339.517 71.4153L340.598 71.8828L340.602 71.8723L339.517 71.4153ZM337.24 73.6717L336.783 72.5863L336.772 72.5908L337.24 73.6717ZM319.126 73.6717L318.659 74.7527L318.669 74.7571L319.126 73.6717ZM316.87 71.4153L315.784 71.8723L315.789 71.8827L316.87 71.4153ZM316.539 65.9502V64.7726H315.361V65.9502H316.539ZM320.782 65.9502H321.96V64.7726H320.782V65.9502ZM320.782 69.7592H319.605V70.9369H320.782V69.7592ZM335.604 69.7592V70.9369H336.782V69.7592H335.604ZM335.604 61.2925H336.782V60.1149H335.604V61.2925ZM321.196 61.2925V60.1149C320.771 60.1149 320.374 60.0347 319.997 59.8759L319.54 60.9613L319.083 62.0467C319.755 62.3296 320.463 62.4702 321.196 62.4702V61.2925ZM319.54 60.9613L320.032 59.8912C319.636 59.7093 319.299 59.4792 319.012 59.2027L318.195 60.0505L317.377 60.8982C317.863 61.367 318.423 61.7441 319.049 62.0314L319.54 60.9613ZM318.195 60.0505L319.027 59.2177C318.748 58.9383 318.528 58.6143 318.365 58.2375L317.284 58.7049L316.203 59.1723C316.482 59.8168 316.869 60.3898 317.362 60.8832L318.195 60.0505ZM317.284 58.7049L318.369 58.2479C318.21 57.8709 318.13 57.4745 318.13 57.0488H316.953H315.775C315.775 57.7824 315.916 58.4901 316.198 59.1619L317.284 58.7049ZM316.953 57.0488H318.13V48.5614H316.953H315.775V57.0488H316.953ZM316.953 48.5614H318.13C318.13 48.1357 318.21 47.7503 318.365 47.3935L317.284 46.926L316.203 46.4586C315.916 47.123 315.775 47.8279 315.775 48.5614H316.953ZM317.284 46.926L318.369 47.383C318.532 46.9967 318.747 46.6835 319.012 46.4282L318.195 45.5805L317.377 44.7327C316.869 45.2227 316.477 45.8065 316.198 46.469L317.284 46.926ZM318.195 45.5805L319.027 46.4132C319.307 46.1337 319.631 45.9135 320.008 45.7506L319.54 44.6696L319.073 43.5887C318.428 43.8674 317.855 44.2544 317.362 44.7477L318.195 45.5805ZM319.54 44.6696L320.021 45.7446C320.393 45.5783 320.781 45.4954 321.196 45.4954V44.3177V43.1401C320.452 43.1401 319.736 43.2917 319.059 43.5946L319.54 44.6696ZM321.196 44.3177V45.4954H335.604V44.3177V43.1401H321.196V44.3177ZM335.604 44.3177V45.4954C336.02 45.4954 336.396 45.5782 336.748 45.7397L337.24 44.6696L337.731 43.5995C337.062 43.2918 336.348 43.1401 335.604 43.1401V44.3177ZM337.24 44.6696L336.783 45.755C337.173 45.9192 337.499 46.1389 337.773 46.4132L338.606 45.5805L339.439 44.7477C338.94 44.2492 338.356 43.8617 337.697 43.5843L337.24 44.6696ZM338.606 45.5805L337.788 46.4282C338.053 46.6835 338.269 46.9967 338.431 47.383L339.517 46.926L340.602 46.469C340.323 45.8065 339.931 45.2227 339.423 44.7327L338.606 45.5805ZM339.517 46.926L338.436 47.3935C338.59 47.7503 338.67 48.1357 338.67 48.5614H339.848H341.026C341.026 47.8279 340.885 47.123 340.598 46.4586L339.517 46.926ZM339.848 48.5614H338.67V52.3911H339.848H341.026V48.5614H339.848ZM339.848 52.3911V51.2134H335.604V52.3911V53.5688H339.848V52.3911ZM335.604 52.3911H336.782V48.5614H335.604H334.427V52.3911H335.604ZM335.604 48.5614V47.3838H321.196V48.5614V49.7391H335.604V48.5614ZM321.196 48.5614H320.019V57.0488H321.196H322.374V48.5614H321.196ZM321.196 57.0488V58.2265H335.604V57.0488V55.8712H321.196V57.0488ZM335.604 57.0488V58.2265C336.03 58.2265 336.415 58.3066 336.772 58.461L337.24 57.38L337.707 56.2991C337.043 56.0118 336.338 55.8712 335.604 55.8712V57.0488ZM337.24 57.38L336.783 58.4654C337.173 58.6296 337.499 58.8493 337.773 59.1236L338.606 58.2909L339.439 57.4582C338.94 56.9596 338.356 56.5721 337.697 56.2947L337.24 57.38ZM338.606 58.2909L337.773 59.1236C338.047 59.3979 338.267 59.7242 338.431 60.1141L339.517 59.6571L340.602 59.2001C340.325 58.5412 339.937 57.9567 339.439 57.4582L338.606 58.2909ZM339.517 59.6571L338.436 60.1246C338.59 60.4814 338.67 60.8668 338.67 61.2925H339.848H341.026C341.026 60.559 340.885 59.8541 340.598 59.1897L339.517 59.6571ZM339.848 61.2925H338.67V69.7592H339.848H341.026V61.2925H339.848ZM339.848 69.7592H338.67C338.67 70.1849 338.59 70.5813 338.431 70.9583L339.517 71.4153L340.602 71.8723C340.885 71.2005 341.026 70.4928 341.026 69.7592H339.848ZM339.517 71.4153L338.436 70.9479C338.273 71.3247 338.053 71.6487 337.773 71.9281L338.606 72.7609L339.439 73.5936C339.932 73.1002 340.319 72.5272 340.598 71.8827L339.517 71.4153ZM338.606 72.7609L337.773 71.9281C337.499 72.2024 337.173 72.4222 336.783 72.5863L337.24 73.6717L337.697 74.7571C338.356 74.4796 338.94 74.0922 339.439 73.5936L338.606 72.7609ZM337.24 73.6717L336.772 72.5908C336.415 72.7451 336.03 72.8253 335.604 72.8253V74.0029V75.1806C336.338 75.1806 337.043 75.0399 337.707 74.7526L337.24 73.6717ZM335.604 74.0029V72.8253H320.782V74.0029V75.1806H335.604V74.0029ZM320.782 74.0029V72.8253C320.357 72.8253 319.96 72.7451 319.583 72.5863L319.126 73.6717L318.669 74.7571C319.341 75.04 320.049 75.1806 320.782 75.1806V74.0029ZM319.126 73.6717L319.594 72.5908C319.217 72.4279 318.893 72.2076 318.613 71.9281L317.781 72.7609L316.948 73.5936C317.441 74.087 318.014 74.474 318.659 74.7526L319.126 73.6717ZM317.781 72.7609L318.613 71.9281C318.334 71.6487 318.114 71.3247 317.951 70.9479L316.87 71.4153L315.789 71.8827C316.068 72.5272 316.455 73.1002 316.948 73.5936L317.781 72.7609ZM316.87 71.4153L317.955 70.9583C317.796 70.5813 317.716 70.1849 317.716 69.7592H316.539H315.361C315.361 70.4928 315.502 71.2005 315.784 71.8723L316.87 71.4153ZM316.539 69.7592H317.716V65.9502H316.539H315.361V69.7592H316.539ZM316.539 65.9502V67.1279H320.782V65.9502V64.7726H316.539V65.9502ZM320.782 65.9502H319.605V69.7592H320.782H321.96V65.9502H320.782ZM320.782 69.7592V70.9369H335.604V69.7592V68.5816H320.782V69.7592ZM335.604 69.7592H336.782V61.2925H335.604H334.427V69.7592H335.604ZM335.604 61.2925V60.1149H321.196V61.2925V62.4702H335.604V61.2925ZM347.507 44.3177V43.1401H346.33V44.3177H347.507ZM369.14 44.3177H370.317V43.1401H369.14V44.3177ZM369.14 48.5614V49.7391H370.317V48.5614H369.14ZM351.751 48.5614V47.3838H350.573V48.5614H351.751ZM351.751 57.0488H350.573V58.2265H351.751V57.0488ZM366.594 57.0488H367.771V55.8712H366.594V57.0488ZM366.594 61.2925V62.4702H367.771V61.2925H366.594ZM351.751 61.2925V60.1149H350.573V61.2925H351.751ZM351.751 69.7592H350.573V70.9369H351.751V69.7592ZM369.14 69.7592H370.317V68.5816H369.14V69.7592ZM369.14 74.0029V75.1806H370.317V74.0029H369.14ZM347.507 74.0029H346.33V75.1806H347.507V74.0029ZM347.507 44.3177V45.4954H369.14V44.3177V43.1401H347.507V44.3177ZM369.14 44.3177H367.962V48.5614H369.14H370.317V44.3177H369.14ZM369.14 48.5614V47.3838H351.751V48.5614V49.7391H369.14V48.5614ZM351.751 48.5614H350.573V57.0488H351.751H352.929V48.5614H351.751ZM351.751 57.0488V58.2265H366.594V57.0488V55.8712H351.751V57.0488ZM366.594 57.0488H365.416V61.2925H366.594H367.771V57.0488H366.594ZM366.594 61.2925V60.1149H351.751V61.2925V62.4702H366.594V61.2925ZM351.751 61.2925H350.573V69.7592H351.751H352.929V61.2925H351.751ZM351.751 69.7592V70.9369H369.14V69.7592V68.5816H351.751V69.7592ZM369.14 69.7592H367.962V74.0029H369.14H370.317V69.7592H369.14ZM369.14 74.0029V72.8253H347.507V74.0029V75.1806H369.14V74.0029ZM347.507 74.0029H348.685V44.3177H347.507H346.33V74.0029H347.507ZM379.739 74.0029V75.1806H380.916V74.0029H379.739ZM375.495 74.0029H374.317V75.1806H375.495V74.0029ZM375.495 44.3177V43.1401H374.317V44.3177H375.495ZM379.739 44.3177L380.669 43.5962L380.316 43.1401H379.739V44.3177ZM397.583 67.3372L396.652 68.0587L398.761 70.7786V67.3372H397.583ZM397.583 44.3177V43.1401H396.405V44.3177H397.583ZM401.827 44.3177H403.004V43.1401H401.827V44.3177ZM401.827 74.0029V75.1806H403.004V74.0029H401.827ZM397.583 74.0029L396.652 74.7244L397.006 75.1806H397.583V74.0029ZM379.739 50.9834L380.669 50.2619L378.561 47.542V50.9834H379.739ZM379.739 74.0029V72.8253H375.495V74.0029V75.1806H379.739V74.0029ZM375.495 74.0029H376.673V44.3177H375.495H374.317V74.0029H375.495ZM375.495 44.3177V45.4954H379.739V44.3177V43.1401H375.495V44.3177ZM379.739 44.3177L378.808 45.0392L396.652 68.0587L397.583 67.3372L398.514 66.6157L380.669 43.5962L379.739 44.3177ZM397.583 67.3372H398.761V44.3177H397.583H396.405V67.3372H397.583ZM397.583 44.3177V45.4954H401.827V44.3177V43.1401H397.583V44.3177ZM401.827 44.3177H400.649V74.0029H401.827H403.004V44.3177H401.827ZM401.827 74.0029V72.8253H397.583V74.0029V75.1806H401.827V74.0029ZM397.583 74.0029L398.514 73.2814L380.669 50.2619L379.739 50.9834L378.808 51.7049L396.652 74.7244L397.583 74.0029ZM379.739 50.9834H378.561V74.0029H379.739H380.916V50.9834H379.739ZM406.898 44.3177V43.1401H405.721V44.3177H406.898ZM430.642 44.3177H431.82V43.1401H430.642V44.3177ZM430.642 48.5614V49.7391H431.82V48.5614H430.642ZM420.892 48.5614V47.3838H419.715V48.5614H420.892ZM420.892 74.0029V75.1806H422.07V74.0029H420.892ZM416.649 74.0029H415.471V75.1806H416.649V74.0029ZM416.649 48.5614H417.826V47.3838H416.649V48.5614ZM406.898 48.5614H405.721V49.7391H406.898V48.5614ZM406.898 44.3177V45.4954H430.642V44.3177V43.1401H406.898V44.3177ZM430.642 44.3177H429.465V48.5614H430.642H431.82V44.3177H430.642ZM430.642 48.5614V47.3838H420.892V48.5614V49.7391H430.642V48.5614ZM420.892 48.5614H419.715V74.0029H420.892H422.07V48.5614H420.892ZM420.892 74.0029V72.8253H416.649V74.0029V75.1806H420.892V74.0029ZM416.649 74.0029H417.826V48.5614H416.649H415.471V74.0029H416.649ZM416.649 48.5614V47.3838H406.898V48.5614V49.7391H416.649V48.5614ZM406.898 48.5614H408.076V44.3177H406.898H405.721V48.5614H406.898ZM439.979 44.3177H441.156V43.1401H439.979V44.3177ZM439.979 74.0029V75.1806H441.156V74.0029H439.979ZM435.735 74.0029H434.557V75.1806H435.735V74.0029ZM435.735 44.3177V43.1401H434.557V44.3177H435.735ZM439.979 44.3177H438.801V74.0029H439.979H441.156V44.3177H439.979ZM439.979 74.0029V72.8253H435.735V74.0029V75.1806H439.979V74.0029ZM435.735 74.0029H436.913V44.3177H435.735H434.557V74.0029H435.735ZM435.735 44.3177V45.4954H439.979V44.3177V43.1401H435.735V44.3177ZM451.861 74.0029V75.1806H453.039V74.0029H451.861ZM447.617 74.0029H446.44V75.1806H447.617V74.0029ZM447.617 44.3177V43.1401H446.44V44.3177H447.617ZM451.861 44.3177L452.792 43.5962L452.438 43.1401H451.861V44.3177ZM469.705 67.3372L468.774 68.0587L470.883 70.7786V67.3372H469.705ZM469.705 44.3177V43.1401H468.528V44.3177H469.705ZM473.949 44.3177H475.127V43.1401H473.949V44.3177ZM473.949 74.0029V75.1806H475.127V74.0029H473.949ZM469.705 74.0029L468.774 74.7244L469.128 75.1806H469.705V74.0029ZM451.861 50.9834L452.792 50.2619L450.683 47.542V50.9834H451.861ZM451.861 74.0029V72.8253H447.617V74.0029V75.1806H451.861V74.0029ZM447.617 74.0029H448.795V44.3177H447.617H446.44V74.0029H447.617ZM447.617 44.3177V45.4954H451.861V44.3177V43.1401H447.617V44.3177ZM451.861 44.3177L450.93 45.0392L468.774 68.0587L469.705 67.3372L470.636 66.6157L452.792 43.5962L451.861 44.3177ZM469.705 67.3372H470.883V44.3177H469.705H468.528V67.3372H469.705ZM469.705 44.3177V45.4954H473.949V44.3177V43.1401H469.705V44.3177ZM473.949 44.3177H472.771V74.0029H473.949H475.127V44.3177H473.949ZM473.949 74.0029V72.8253H469.705V74.0029V75.1806H473.949V74.0029ZM469.705 74.0029L470.636 73.2814L452.792 50.2619L451.861 50.9834L450.93 51.7049L468.774 74.7244L469.705 74.0029ZM451.861 50.9834H450.683V74.0029H451.861H453.039V50.9834H451.861ZM481.567 44.3177V43.1401H480.389V44.3177H481.567ZM503.199 44.3177H504.377V43.1401H503.199V44.3177ZM503.199 48.5614V49.7391H504.377V48.5614H503.199ZM485.811 48.5614V47.3838H484.633V48.5614H485.811ZM485.811 57.0488H484.633V58.2265H485.811V57.0488ZM500.653 57.0488H501.831V55.8712H500.653V57.0488ZM500.653 61.2925V62.4702H501.831V61.2925H500.653ZM485.811 61.2925V60.1149H484.633V61.2925H485.811ZM485.811 69.7592H484.633V70.9369H485.811V69.7592ZM503.199 69.7592H504.377V68.5816H503.199V69.7592ZM503.199 74.0029V75.1806H504.377V74.0029H503.199ZM481.567 74.0029H480.389V75.1806H481.567V74.0029ZM481.567 44.3177V45.4954H503.199V44.3177V43.1401H481.567V44.3177ZM503.199 44.3177H502.022V48.5614H503.199H504.377V44.3177H503.199ZM503.199 48.5614V47.3838H485.811V48.5614V49.7391H503.199V48.5614ZM485.811 48.5614H484.633V57.0488H485.811H486.988V48.5614H485.811ZM485.811 57.0488V58.2265H500.653V57.0488V55.8712H485.811V57.0488ZM500.653 57.0488H499.476V61.2925H500.653H501.831V57.0488H500.653ZM500.653 61.2925V60.1149H485.811V61.2925V62.4702H500.653V61.2925ZM485.811 61.2925H484.633V69.7592H485.811H486.988V61.2925H485.811ZM485.811 69.7592V70.9369H503.199V69.7592V68.5816H485.811V69.7592ZM503.199 69.7592H502.022V74.0029H503.199H504.377V69.7592H503.199ZM503.199 74.0029V72.8253H481.567V74.0029V75.1806H503.199V74.0029ZM481.567 74.0029H482.745V44.3177H481.567H480.389V74.0029H481.567ZM513.798 44.3177H514.976V43.1401H513.798V44.3177ZM513.798 69.7592H512.621V70.9369H513.798V69.7592ZM529.055 69.7592H530.233V68.5816H529.055V69.7592ZM529.055 74.0029V75.1806H530.233V74.0029H529.055ZM509.555 74.0029H508.377V75.1806H509.555V74.0029ZM509.555 44.3177V43.1401H508.377V44.3177H509.555ZM513.798 44.3177H512.621V69.7592H513.798H514.976V44.3177H513.798ZM513.798 69.7592V70.9369H529.055V69.7592V68.5816H513.798V69.7592ZM529.055 69.7592H527.877V74.0029H529.055H530.233V69.7592H529.055ZM529.055 74.0029V72.8253H509.555V74.0029V75.1806H529.055V74.0029ZM509.555 74.0029H510.732V44.3177H509.555H508.377V74.0029H509.555ZM509.555 44.3177V45.4954H513.798V44.3177V43.1401H509.555V44.3177Z" fill="#EDC702"/>
<path d="M1712.07 21.5605H1653.27H1594.48" stroke="#475671" stroke-width="2"/>
<path d="M775.136 38.5532L792.867 21.5605H822.265H851.663" stroke="#475671" stroke-width="2"/>
<defs>
<linearGradient id="paint0_linear_216_880" x1="-361.345" y1="59.6421" x2="651.724" y2="59.6421" gradientUnits="userSpaceOnUse">
<stop stop-color="#52729F"/>
<stop offset="1" stop-color="#1D2939"/>
</linearGradient>
<linearGradient id="paint1_linear_216_880" x1="2704.75" y1="59.642" x2="1691.68" y2="59.642" gradientUnits="userSpaceOnUse">
<stop stop-color="#52729F"/>
<stop offset="1" stop-color="#1D2939"/>
</linearGradient>
<linearGradient id="paint2_linear_216_880" x1="80.0907" y1="-1.36719" x2="80.0907" y2="93.0029" gradientUnits="userSpaceOnUse">
<stop stop-color="white"/>
<stop offset="1" stop-color="#819DBF"/>
</linearGradient>
</defs>
</svg>
