<svg width="1920" height="93" viewBox="0 0 1920 93" fill="none" xmlns="http://www.w3.org/2000/svg">
<path d="M1922.76 -12.9062L1898.57 9.85938H416.381V-12.9062H1922.76Z" fill="#111822"/>
<path d="M721.941 89.531L792.867 21.5605H1713.88" stroke="#475671"/>
<path d="M1484.05 -12.9062L1459.86 9.85938H176.879V-12.9062H1484.05Z" fill="#1A2433"/>
<path d="M1088.68 -12.9062L1064.49 9.85938H-44.4961V-12.9062H1088.68Z" fill="#233043"/>
<path d="M996.994 -12.9062L972.801 9.85938H352.781V-12.9062H996.994Z" fill="#2B3C54"/>
<path d="M599.717 -12.9062L575.523 9.85938H-44.4961V-12.9062H599.717Z" fill="#344865"/>
<path d="M765.425 26.2812L694.522 93H-898.859V26.2812H765.425Z" fill="#344865"/>
<path d="M722.219 26.2812L651.315 93H-898.859V26.2812H722.219Z" fill="#2B3C54"/>
<path d="M685.834 26.2812L614.931 93H-898.859V26.2812H685.834Z" fill="#243145"/>
<path d="M651.724 26.2812L580.82 93L-898.859 93.003V26.2843L651.724 26.2812Z" fill="url(#paint0_linear_240_5036)"/>
<mask id="mask0_240_5036" style="mask-type:alpha" maskUnits="userSpaceOnUse" x="42" y="-2" width="78" height="96">
<path d="M80.795 -1.36719L42 15.791V41.5283C42 65.3352 58.5525 87.598 80.795 93.0028C103.037 87.598 119.59 65.3352 119.59 41.5283V15.791L80.795 -1.36719Z" fill="black"/>
</mask>
<g mask="url(#mask0_240_5036)">
<path d="M119.59 15.791V41.5283C119.59 65.3353 103.037 87.5981 80.7949 93.0029C62.2378 88.4935 47.6438 72.2489 43.3164 53.1641H51.6064C52.0514 53.5915 52.664 54.1687 53.4189 54.8467C55.0591 56.3195 57.3847 58.2878 60.123 60.2627C65.4581 64.1102 72.911 68.3941 80.0889 68.415C84.3205 68.4273 88.4466 66.9665 92.1445 64.9541C95.8575 62.9334 99.2996 60.2686 102.211 57.6621C105.13 55.0485 107.573 52.4417 109.283 50.4922C110.14 49.5158 110.818 48.6988 111.284 48.1221C111.517 47.8338 111.699 47.6044 111.823 47.4453C111.885 47.3661 111.933 47.3033 111.967 47.2598C111.983 47.2385 111.997 47.2212 112.006 47.209C112.01 47.2031 112.015 47.1971 112.018 47.1934C112.019 47.1919 112.021 47.1905 112.021 47.1895L112.022 47.1875L109.859 45.5469C111.892 43.9398 111.985 43.8653 111.988 43.8613L111.987 43.8604L111.933 43.792C111.899 43.7499 111.85 43.6891 111.787 43.6123C111.662 43.4584 111.479 43.2369 111.244 42.958C110.774 42.4 110.091 41.6094 109.229 40.6641C107.507 38.7768 105.053 36.252 102.126 33.7178C96.4288 28.7846 88.331 23.2663 80.1113 23.2227C73.0945 23.1855 65.6568 27.1515 60.291 30.7373C57.5393 32.5762 55.1919 34.4128 53.5332 35.7881C52.7533 36.4348 52.122 36.983 51.6689 37.3848H42V15.791L80.7949 -1.36719L119.59 15.791ZM80.082 28.6523C86.1841 28.6847 92.9678 32.9712 98.5713 37.8232C101.295 40.1815 103.596 42.5458 105.217 44.3232C105.64 44.7872 106.016 45.2103 106.34 45.5811C106.013 45.971 105.632 46.4197 105.201 46.9111C103.591 48.7468 101.302 51.1867 98.5889 53.6162C95.8672 56.053 92.7714 58.4307 89.5488 60.1846C86.3112 61.9465 83.1019 62.9941 80.1045 62.9854C74.7642 62.9697 68.526 59.6273 63.2998 55.8584C61.1993 54.3436 59.3506 52.8252 57.9043 51.5645C58.5193 51.356 59.18 51.1347 59.8691 50.8994C62.5634 49.9796 65.7306 48.884 68.4912 47.8906C69.8799 52.3751 74.0592 55.6328 79 55.6328C85.075 55.6328 89.9998 50.7078 90 44.6328C89.9998 38.5579 85.075 33.6328 79 33.6328C73.7647 33.6329 69.3866 37.2913 68.2754 42.1904C65.2587 43.2997 61.3662 44.6509 58.1152 45.7607C56.3551 46.3616 54.7899 46.8897 53.665 47.2676C53.1029 47.4564 52.6502 47.6079 52.3389 47.7119C52.3168 47.7193 52.2951 47.7265 52.2744 47.7334H42.376C42.1804 46.1059 42.0598 44.4647 42.0186 42.8145H53.792L54.5762 42.0762L54.5811 42.0713C54.5862 42.0665 54.5955 42.058 54.6074 42.0469C54.6319 42.0241 54.6709 41.9879 54.7227 41.9404C54.8268 41.8449 54.9851 41.7011 55.1924 41.5166C55.6082 41.1464 56.2227 40.6114 56.999 39.9678C58.555 38.6777 60.7508 36.9613 63.3086 35.252C68.5628 31.7408 74.8162 28.6246 80.082 28.6523ZM42.376 47.7334C42.5959 49.5638 42.911 51.3763 43.3164 53.1641H40.5918V47.7334H42.376ZM79 37.79C82.7795 37.79 85.8435 40.8534 85.8438 44.6328C85.8435 48.4122 82.7795 51.4766 79 51.4766C75.2206 51.4765 72.1565 48.4122 72.1562 44.6328C72.1565 40.8534 75.2206 37.7901 79 37.79ZM109.859 45.5469L112.023 47.1865L113.293 45.5117L111.989 43.8633L109.859 45.5469ZM42 41.5283C42 41.9576 42.0079 42.3863 42.0186 42.8145H40.5918V37.3848H42V41.5283Z" fill="url(#paint1_linear_240_5036)"/>
</g>
<path d="M155.65 48.5604C155.65 47.9808 155.761 47.4357 155.982 46.9251C156.202 46.4006 156.506 45.9521 156.892 45.5795C157.279 45.1931 157.727 44.8895 158.238 44.6687C158.762 44.434 159.314 44.3167 159.894 44.3167H175.999C176.579 44.3167 177.124 44.434 177.635 44.6687C178.159 44.8895 178.615 45.1931 179.001 45.5795C179.388 45.9521 179.691 46.4006 179.912 46.9251C180.133 47.4357 180.243 47.9808 180.243 48.5604V52.3901H175.999V48.5604H159.894V69.7583H175.999V65.9493H180.243V69.7583C180.243 70.3379 180.133 70.8899 179.912 71.4143C179.691 71.925 179.388 72.3735 179.001 72.7599C178.615 73.1463 178.159 73.4499 177.635 73.6707C177.124 73.8915 176.579 74.002 175.999 74.002H159.894C159.314 74.002 158.762 73.8915 158.238 73.6707C157.727 73.4499 157.279 73.1463 156.892 72.7599C156.506 72.3735 156.202 71.925 155.982 71.4143C155.761 70.8899 155.65 70.3379 155.65 69.7583V48.5604ZM189 44.3167L197.632 58.1864L206.285 44.3167H211.212L199.764 62.2231V74.002H195.52V62.2231L184.073 44.3167H189ZM235.225 58.5176C235.846 58.7108 236.412 58.9868 236.922 59.3457C237.433 59.7045 237.868 60.1668 238.227 60.7326C238.585 61.2846 238.861 61.9402 239.055 62.6992C239.248 63.4583 239.344 64.3277 239.344 65.3075V66.798C239.344 71.6006 236.943 74.002 232.141 74.002H215.89V44.3167H231.292C236.094 44.3167 238.496 46.725 238.496 51.5414V52.0796C238.496 53.7495 238.227 55.1158 237.688 56.1784C237.164 57.2273 236.343 58.007 235.225 58.5176ZM220.051 61.0638V69.8411H232.016C233.134 69.8411 233.942 69.5788 234.438 69.0544C234.935 68.53 235.184 67.7089 235.184 66.591V64.2932C235.184 63.1615 234.935 62.3404 234.438 61.8298C233.942 61.3191 233.134 61.0638 232.016 61.0638H220.051ZM220.051 48.4776V56.9236H231.457C232.479 56.8822 233.21 56.6062 233.652 56.0956C234.107 55.5712 234.335 54.7707 234.335 53.6943V51.7484C234.335 50.6167 234.086 49.7887 233.59 49.2643C233.093 48.7398 232.285 48.4776 231.168 48.4776H220.051ZM245.7 44.3167H267.332V48.5604H249.943V57.0478H264.786V61.2915H249.943V69.7583H267.332V74.002H245.7V44.3167ZM297.142 54.9156C297.142 59.0558 295.375 61.4158 291.842 61.9954L297.431 74.002H292.732L287.226 62.1403H277.931V74.002H273.687V44.3167H289.938C294.74 44.3167 297.142 46.725 297.142 51.5414V54.9156ZM277.931 57.8966H289.71C290.842 57.8966 291.656 57.6482 292.153 57.1513C292.65 56.6545 292.898 55.8403 292.898 54.7086V51.7484C292.898 50.6167 292.65 49.8025 292.153 49.3057C291.656 48.8089 290.842 48.5604 289.71 48.5604H277.931V57.8966ZM321.196 61.2915C320.617 61.2915 320.065 61.1811 319.54 60.9603C319.029 60.7257 318.581 60.4221 318.195 60.0495C317.808 59.6631 317.505 59.2145 317.284 58.7039C317.063 58.1795 316.952 57.6275 316.952 57.0478V48.5604C316.952 47.9808 317.063 47.4357 317.284 46.9251C317.505 46.4006 317.808 45.9521 318.195 45.5795C318.581 45.1931 319.029 44.8895 319.54 44.6687C320.065 44.434 320.617 44.3167 321.196 44.3167H335.604C336.184 44.3167 336.729 44.434 337.239 44.6687C337.764 44.8895 338.219 45.1931 338.606 45.5795C338.992 45.9521 339.296 46.4006 339.517 46.9251C339.737 47.4357 339.848 47.9808 339.848 48.5604V52.3901H335.604V48.5604H321.196V57.0478H335.604C336.184 57.0478 336.729 57.1582 337.239 57.3791C337.764 57.5999 338.219 57.9035 338.606 58.2899C338.992 58.6763 339.296 59.1317 339.517 59.6562C339.737 60.1668 339.848 60.7119 339.848 61.2915V69.7583C339.848 70.3379 339.737 70.8899 339.517 71.4143C339.296 71.925 338.992 72.3735 338.606 72.7599C338.219 73.1463 337.764 73.4499 337.239 73.6707C336.729 73.8915 336.184 74.002 335.604 74.002H320.782C320.203 74.002 319.651 73.8915 319.126 73.6707C318.615 73.4499 318.167 73.1463 317.781 72.7599C317.394 72.3735 317.09 71.925 316.87 71.4143C316.649 70.8899 316.538 70.3379 316.538 69.7583V65.9493H320.782V69.7583H335.604V61.2915H321.196ZM347.507 44.3167H369.14V48.5604H351.751V57.0478H366.593V61.2915H351.751V69.7583H369.14V74.002H347.507V44.3167ZM379.739 74.002H375.495V44.3167H379.739L397.583 67.3362V44.3167H401.827V74.002H397.583L379.739 50.9825V74.002ZM406.898 44.3167H430.642V48.5604H420.892V74.002H416.648V48.5604H406.898V44.3167ZM439.978 44.3167V74.002H435.735V44.3167H439.978ZM451.861 74.002H447.617V44.3167H451.861L469.705 67.3362V44.3167H473.949V74.002H469.705L451.861 50.9825V74.002ZM481.567 44.3167H503.199V48.5604H485.81V57.0478H500.653V61.2915H485.81V69.7583H503.199V74.002H481.567V44.3167ZM513.798 44.3167V69.7583H529.055V74.002H509.554V44.3167H513.798Z" fill="#EDC702"/>
<path d="M155.982 46.9251L157.063 47.3925L157.067 47.3821L155.982 46.9251ZM156.892 45.5795L157.71 46.4272L157.718 46.4198L157.725 46.4122L156.892 45.5795ZM158.238 44.6687L158.705 45.7496L158.712 45.7466L158.719 45.7436L158.238 44.6687ZM177.635 44.6687L177.143 45.7388L177.16 45.7467L177.178 45.754L177.635 44.6687ZM179.001 45.5795L178.168 46.4122L178.176 46.4198L178.184 46.4272L179.001 45.5795ZM179.912 46.9251L178.827 47.3821L178.831 47.3925L179.912 46.9251ZM180.243 52.3901V53.5678H181.421V52.3901H180.243ZM175.999 52.3901H174.822V53.5678H175.999V52.3901ZM175.999 48.5604H177.177V47.3828H175.999V48.5604ZM159.894 48.5604V47.3828H158.716V48.5604H159.894ZM159.894 69.7583H158.716V70.9359H159.894V69.7583ZM175.999 69.7583V70.9359H177.177V69.7583H175.999ZM175.999 65.9493V64.7716H174.822V65.9493H175.999ZM180.243 65.9493H181.421V64.7716H180.243V65.9493ZM179.912 71.4143L180.993 71.8818L180.997 71.8713L179.912 71.4143ZM177.635 73.6707L177.178 72.5853L177.167 72.5898L177.635 73.6707ZM158.238 73.6707L157.771 74.7517L157.781 74.7561L158.238 73.6707ZM155.982 71.4143L154.896 71.8713L154.901 71.8818L155.982 71.4143ZM155.65 48.5604H156.828C156.828 48.1347 156.908 47.7494 157.063 47.3925L155.982 46.9251L154.901 46.4576C154.613 47.122 154.473 47.8269 154.473 48.5604H155.65ZM155.982 46.9251L157.067 47.3821C157.23 46.9957 157.445 46.6825 157.71 46.4272L156.892 45.5795L156.075 44.7318C155.567 45.2217 155.175 45.8056 154.896 46.4681L155.982 46.9251ZM156.892 45.5795L157.725 46.4122C158.005 46.1328 158.329 45.9125 158.705 45.7496L158.238 44.6687L157.771 43.5877C157.126 43.8664 156.553 44.2534 156.06 44.7468L156.892 45.5795ZM158.238 44.6687L158.719 45.7436C159.091 45.5773 159.479 45.4944 159.894 45.4944V44.3167V43.1391C159.15 43.1391 158.434 43.2908 157.757 43.5937L158.238 44.6687ZM159.894 44.3167V45.4944H175.999V44.3167V43.1391H159.894V44.3167ZM175.999 44.3167V45.4944C176.415 45.4944 176.792 45.5773 177.143 45.7388L177.635 44.6687L178.127 43.5985C177.457 43.2908 176.743 43.1391 175.999 43.1391V44.3167ZM177.635 44.6687L177.178 45.754C177.568 45.9182 177.894 46.138 178.168 46.4122L179.001 45.5795L179.834 44.7468C179.335 44.2482 178.751 43.8607 178.092 43.5833L177.635 44.6687ZM179.001 45.5795L178.184 46.4272C178.448 46.6825 178.664 46.9957 178.827 47.3821L179.912 46.9251L180.997 46.4681C180.718 45.8056 180.327 45.2217 179.819 44.7318L179.001 45.5795ZM179.912 46.9251L178.831 47.3925C178.985 47.7494 179.066 48.1347 179.066 48.5604H180.243H181.421C181.421 47.8269 181.28 47.122 180.993 46.4576L179.912 46.9251ZM180.243 48.5604H179.066V52.3901H180.243H181.421V48.5604H180.243ZM180.243 52.3901V51.2125H175.999V52.3901V53.5678H180.243V52.3901ZM175.999 52.3901H177.177V48.5604H175.999H174.822V52.3901H175.999ZM175.999 48.5604V47.3828H159.894V48.5604V49.7381H175.999V48.5604ZM159.894 48.5604H158.716V69.7583H159.894H161.072V48.5604H159.894ZM159.894 69.7583V70.9359H175.999V69.7583V68.5806H159.894V69.7583ZM175.999 69.7583H177.177V65.9493H175.999H174.822V69.7583H175.999ZM175.999 65.9493V67.1269H180.243V65.9493V64.7716H175.999V65.9493ZM180.243 65.9493H179.066V69.7583H180.243H181.421V65.9493H180.243ZM180.243 69.7583H179.066C179.066 70.1839 178.985 70.5803 178.827 70.9573L179.912 71.4143L180.997 71.8713C181.28 71.1995 181.421 70.4918 181.421 69.7583H180.243ZM179.912 71.4143L178.831 70.9469C178.668 71.3237 178.448 71.6477 178.168 71.9272L179.001 72.7599L179.834 73.5926C180.327 73.0993 180.714 72.5262 180.993 71.8818L179.912 71.4143ZM179.001 72.7599L178.168 71.9272C177.894 72.2014 177.568 72.4212 177.178 72.5854L177.635 73.6707L178.092 74.7561C178.751 74.4787 179.335 74.0912 179.834 73.5926L179.001 72.7599ZM177.635 73.6707L177.167 72.5898C176.811 72.7441 176.425 72.8243 175.999 72.8243V74.002V75.1796C176.733 75.1796 177.438 75.039 178.102 74.7517L177.635 73.6707ZM175.999 74.002V72.8243H159.894V74.002V75.1796H175.999V74.002ZM159.894 74.002V72.8243C159.468 72.8243 159.072 72.7441 158.695 72.5854L158.238 73.6707L157.781 74.7561C158.453 75.039 159.161 75.1796 159.894 75.1796V74.002ZM158.238 73.6707L158.705 72.5898C158.329 72.4269 158.005 72.2066 157.725 71.9272L156.892 72.7599L156.06 73.5926C156.553 74.086 157.126 74.473 157.771 74.7517L158.238 73.6707ZM156.892 72.7599L157.725 71.9272C157.446 71.6477 157.225 71.3237 157.063 70.9469L155.982 71.4143L154.901 71.8818C155.179 72.5262 155.566 73.0993 156.06 73.5926L156.892 72.7599ZM155.982 71.4143L157.067 70.9573C156.908 70.5803 156.828 70.1839 156.828 69.7583H155.65H154.473C154.473 70.4918 154.613 71.1995 154.896 71.8713L155.982 71.4143ZM155.65 69.7583H156.828V48.5604H155.65H154.473V69.7583H155.65ZM189 44.3167L190 43.6945L189.654 43.1391H189V44.3167ZM197.632 58.1864L196.632 58.8087L197.631 60.4132L198.631 58.8098L197.632 58.1864ZM206.285 44.3167V43.1391H205.632L205.286 43.6934L206.285 44.3167ZM211.212 44.3167L212.204 44.9511L213.362 43.1391H211.212V44.3167ZM199.764 62.2231L198.772 61.5888L198.587 61.8788V62.2231H199.764ZM199.764 74.002V75.1796H200.942V74.002H199.764ZM195.52 74.002H194.343V75.1796H195.52V74.002ZM195.52 62.2231H196.698V61.8788L196.513 61.5888L195.52 62.2231ZM184.073 44.3167V43.1391H181.922L183.081 44.9511L184.073 44.3167ZM189 44.3167L188 44.939L196.632 58.8087L197.632 58.1864L198.632 57.5641L190 43.6945L189 44.3167ZM197.632 58.1864L198.631 58.8098L207.284 44.9401L206.285 44.3167L205.286 43.6934L196.633 57.563L197.632 58.1864ZM206.285 44.3167V45.4944H211.212V44.3167V43.1391H206.285V44.3167ZM211.212 44.3167L210.22 43.6824L198.772 61.5888L199.764 62.2231L200.756 62.8574L212.204 44.9511L211.212 44.3167ZM199.764 62.2231H198.587V74.002H199.764H200.942V62.2231H199.764ZM199.764 74.002V72.8243H195.52V74.002V75.1796H199.764V74.002ZM195.52 74.002H196.698V62.2231H195.52H194.343V74.002H195.52ZM195.52 62.2231L196.513 61.5888L185.065 43.6824L184.073 44.3167L183.081 44.9511L194.528 62.8574L195.52 62.2231ZM184.073 44.3167V45.4944H189V44.3167V43.1391H184.073V44.3167ZM235.225 58.5176L234.736 57.4464L231.933 58.7267L234.875 59.6421L235.225 58.5176ZM238.227 60.7326L237.232 61.3633L237.239 61.3744L238.227 60.7326ZM215.89 74.002H214.713V75.1796H215.89V74.002ZM215.89 44.3167V43.1391H214.713V44.3167H215.89ZM237.688 56.1784L236.638 55.6463L236.635 55.6517L237.688 56.1784ZM220.051 61.0638V59.8862H218.874V61.0638H220.051ZM220.051 69.8411H218.874V71.0187H220.051V69.8411ZM220.051 48.4776V47.3H218.874V48.4776H220.051ZM220.051 56.9236H218.874V58.1013H220.051V56.9236ZM231.457 56.9236V58.1013H231.481L231.505 58.1003L231.457 56.9236ZM233.652 56.0956L232.763 55.3234L232.761 55.3252L233.652 56.0956ZM235.225 58.5176L234.875 59.6421C235.384 59.8005 235.839 60.0236 236.245 60.3092L236.922 59.3457L237.6 58.3821C236.985 57.95 236.308 57.6211 235.575 57.3931L235.225 58.5176ZM236.922 59.3457L236.245 60.3092C236.62 60.5726 236.95 60.9185 237.232 61.3633L238.227 60.7326L239.221 60.1019C238.786 59.4151 238.246 58.8363 237.6 58.3821L236.922 59.3457ZM238.227 60.7326L237.239 61.3744C237.516 61.8003 237.746 62.3324 237.913 62.9897L239.055 62.6992L240.196 62.4087C239.977 61.5479 239.655 60.769 239.214 60.0908L238.227 60.7326ZM239.055 62.6992L237.913 62.9897C238.077 63.6336 238.167 64.4023 238.167 65.3075H239.344H240.522C240.522 64.2531 240.418 63.2829 240.196 62.4087L239.055 62.6992ZM239.344 65.3075H238.167V66.798H239.344H240.522V65.3075H239.344ZM239.344 66.798H238.167C238.167 69.0178 237.613 70.4663 236.711 71.3682C235.809 72.2701 234.36 72.8243 232.141 72.8243V74.002V75.1796C234.723 75.1796 236.877 74.5331 238.376 73.0337C239.876 71.5343 240.522 69.3809 240.522 66.798H239.344ZM232.141 74.002V72.8243H215.89V74.002V75.1796H232.141V74.002ZM215.89 74.002H217.068V44.3167H215.89H214.713V74.002H215.89ZM215.89 44.3167V45.4944H231.292V44.3167V43.1391H215.89V44.3167ZM231.292 44.3167V45.4944C233.511 45.4944 234.959 46.0498 235.861 46.9544C236.763 47.8597 237.318 49.3138 237.318 51.5414H238.496H239.673C239.673 48.9525 239.027 46.7943 237.529 45.2914C236.029 43.7878 233.876 43.1391 231.292 43.1391V44.3167ZM238.496 51.5414H237.318V52.0796H238.496H239.673V51.5414H238.496ZM238.496 52.0796H237.318C237.318 53.6344 237.066 54.8013 236.638 55.6463L237.688 56.1784L238.739 56.7105C239.387 55.4302 239.673 53.8645 239.673 52.0796H238.496ZM237.688 56.1784L236.635 55.6517C236.237 56.4478 235.622 57.0418 234.736 57.4464L235.225 58.5176L235.714 59.5888C237.064 58.9722 238.091 58.0067 238.742 56.7051L237.688 56.1784ZM220.051 61.0638H218.874V69.8411H220.051H221.229V61.0638H220.051ZM220.051 69.8411V71.0187H232.016V69.8411V68.6634H220.051V69.8411ZM232.016 69.8411V71.0187C233.283 71.0187 234.477 70.7255 235.293 69.8643L234.438 69.0544L233.583 68.2445C233.406 68.4322 232.985 68.6634 232.016 68.6634V69.8411ZM234.438 69.0544L235.293 69.8643C236.086 69.0277 236.361 67.8505 236.361 66.591H235.184H234.006C234.006 67.5672 233.784 68.0323 233.583 68.2445L234.438 69.0544ZM235.184 66.591H236.361V64.2932H235.184H234.006V66.591H235.184ZM235.184 64.2932H236.361C236.361 63.0283 236.089 61.838 235.282 61.0085L234.438 61.8298L233.594 62.651C233.781 62.8428 234.006 63.2948 234.006 64.2932H235.184ZM234.438 61.8298L235.282 61.0085C234.465 60.1688 233.276 59.8862 232.016 59.8862V61.0638V62.2415C232.993 62.2415 233.418 62.4695 233.594 62.651L234.438 61.8298ZM232.016 61.0638V59.8862H220.051V61.0638V62.2415H232.016V61.0638ZM220.051 48.4776H218.874V56.9236H220.051H221.229V48.4776H220.051ZM220.051 56.9236V58.1013H231.457V56.9236V55.746H220.051V56.9236ZM231.457 56.9236L231.505 58.1003C232.685 58.0525 233.799 57.7251 234.542 56.866L233.652 56.0956L232.761 55.3252C232.621 55.4873 232.272 55.712 231.41 55.7469L231.457 56.9236ZM233.652 56.0956L234.541 56.8678C235.261 56.0384 235.513 54.9054 235.513 53.6943H234.335H233.157C233.157 54.6361 232.953 55.1039 232.763 55.3234L233.652 56.0956ZM234.335 53.6943H235.513V51.7484H234.335H233.157V53.6943H234.335ZM234.335 51.7484H235.513C235.513 50.4798 235.239 49.2932 234.445 48.4543L233.59 49.2643L232.735 50.0742C232.934 50.2842 233.157 50.7536 233.157 51.7484H234.335ZM233.59 49.2643L234.445 48.4543C233.629 47.5932 232.435 47.3 231.168 47.3V48.4776V49.6553C232.136 49.6553 232.557 49.8865 232.735 50.0742L233.59 49.2643ZM231.168 48.4776V47.3H220.051V48.4776V49.6553H231.168V48.4776ZM245.7 44.3167V43.1391H244.522V44.3167H245.7ZM267.332 44.3167H268.51V43.1391H267.332V44.3167ZM267.332 48.5604V49.7381H268.51V48.5604H267.332ZM249.943 48.5604V47.3828H248.766V48.5604H249.943ZM249.943 57.0478H248.766V58.2255H249.943V57.0478ZM264.786 57.0478H265.964V55.8702H264.786V57.0478ZM264.786 61.2915V62.4692H265.964V61.2915H264.786ZM249.943 61.2915V60.1139H248.766V61.2915H249.943ZM249.943 69.7583H248.766V70.9359H249.943V69.7583ZM267.332 69.7583H268.51V68.5806H267.332V69.7583ZM267.332 74.002V75.1796H268.51V74.002H267.332ZM245.7 74.002H244.522V75.1796H245.7V74.002ZM245.7 44.3167V45.4944H267.332V44.3167V43.1391H245.7V44.3167ZM267.332 44.3167H266.155V48.5604H267.332H268.51V44.3167H267.332ZM267.332 48.5604V47.3828H249.943V48.5604V49.7381H267.332V48.5604ZM249.943 48.5604H248.766V57.0478H249.943H251.121V48.5604H249.943ZM249.943 57.0478V58.2255H264.786V57.0478V55.8702H249.943V57.0478ZM264.786 57.0478H263.608V61.2915H264.786H265.964V57.0478H264.786ZM264.786 61.2915V60.1139H249.943V61.2915V62.4692H264.786V61.2915ZM249.943 61.2915H248.766V69.7583H249.943H251.121V61.2915H249.943ZM249.943 69.7583V70.9359H267.332V69.7583V68.5806H249.943V69.7583ZM267.332 69.7583H266.155V74.002H267.332H268.51V69.7583H267.332ZM267.332 74.002V72.8243H245.7V74.002V75.1796H267.332V74.002ZM245.7 74.002H246.877V44.3167H245.7H244.522V74.002H245.7ZM291.842 61.9954L291.652 60.8333L290.119 61.0847L290.775 62.4924L291.842 61.9954ZM297.431 74.002V75.1796H299.279L298.499 73.5049L297.431 74.002ZM292.732 74.002L291.664 74.4978L291.981 75.1796H292.732V74.002ZM287.226 62.1403L288.294 61.6444L287.978 60.9626H287.226V62.1403ZM277.931 62.1403V60.9626H276.753V62.1403H277.931ZM277.931 74.002V75.1796H279.109V74.002H277.931ZM273.687 74.002H272.51V75.1796H273.687V74.002ZM273.687 44.3167V43.1391H272.51V44.3167H273.687ZM277.931 57.8966H276.753V59.0742H277.931V57.8966ZM277.931 48.5604V47.3828H276.753V48.5604H277.931ZM297.142 54.9156H295.964C295.964 56.8316 295.554 58.1766 294.874 59.085C294.211 59.9711 293.186 60.5815 291.652 60.8333L291.842 61.9954L292.033 63.1575C294.031 62.8296 295.656 61.9702 296.76 60.4964C297.846 59.045 298.319 57.1399 298.319 54.9156H297.142ZM291.842 61.9954L290.775 62.4924L296.364 74.499L297.431 74.002L298.499 73.5049L292.91 61.4984L291.842 61.9954ZM297.431 74.002V72.8243H292.732V74.002V75.1796H297.431V74.002ZM292.732 74.002L293.801 73.5061L288.294 61.6444L287.226 62.1403L286.158 62.6362L291.664 74.4978L292.732 74.002ZM287.226 62.1403V60.9626H277.931V62.1403V63.3179H287.226V62.1403ZM277.931 62.1403H276.753V74.002H277.931H279.109V62.1403H277.931ZM277.931 74.002V72.8243H273.687V74.002V75.1796H277.931V74.002ZM273.687 74.002H274.865V44.3167H273.687H272.51V74.002H273.687ZM273.687 44.3167V45.4944H289.938V44.3167V43.1391H273.687V44.3167ZM289.938 44.3167V45.4944C292.157 45.4944 293.605 46.0498 294.507 46.9544C295.409 47.8597 295.964 49.3138 295.964 51.5414H297.142H298.319C298.319 48.9525 297.673 46.7943 296.175 45.2914C294.675 43.7878 292.521 43.1391 289.938 43.1391V44.3167ZM297.142 51.5414H295.964V54.9156H297.142H298.319V51.5414H297.142ZM277.931 57.8966V59.0742H289.71V57.8966V56.7189H277.931V57.8966ZM289.71 57.8966V59.0742C290.971 59.0742 292.165 58.8041 292.985 57.9841L292.153 57.1513L291.32 56.3186C291.146 56.4922 290.712 56.7189 289.71 56.7189V57.8966ZM292.153 57.1513L292.985 57.9841C293.805 57.164 294.076 55.9696 294.076 54.7086H292.898H291.72C291.72 55.711 291.494 56.145 291.32 56.3186L292.153 57.1513ZM292.898 54.7086H294.076V51.7484H292.898H291.72V54.7086H292.898ZM292.898 51.7484H294.076C294.076 50.4874 293.805 49.293 292.985 48.4729L292.153 49.3057L291.32 50.1384C291.494 50.312 291.72 50.7461 291.72 51.7484H292.898ZM292.153 49.3057L292.985 48.4729C292.165 47.6529 290.971 47.3828 289.71 47.3828V48.5604V49.7381C290.712 49.7381 291.146 49.9648 291.32 50.1384L292.153 49.3057ZM289.71 48.5604V47.3828H277.931V48.5604V49.7381H289.71V48.5604ZM277.931 48.5604H276.753V57.8966H277.931H279.109V48.5604H277.931ZM319.54 60.9603L319.048 62.0304L319.066 62.0383L319.083 62.0457L319.54 60.9603ZM318.195 60.0495L317.362 60.8822L317.369 60.8898L317.377 60.8972L318.195 60.0495ZM317.284 58.7039L316.198 59.1609L316.203 59.1713L317.284 58.7039ZM317.284 46.9251L318.365 47.3925L318.369 47.3821L317.284 46.9251ZM318.195 45.5795L319.012 46.4272L319.02 46.4198L319.027 46.4122L318.195 45.5795ZM319.54 44.6687L320.008 45.7496L320.014 45.7466L320.021 45.7436L319.54 44.6687ZM337.239 44.6687L336.748 45.7388L336.765 45.7467L336.782 45.754L337.239 44.6687ZM338.606 45.5795L337.773 46.4122L337.781 46.4198L337.788 46.4272L338.606 45.5795ZM339.517 46.9251L338.431 47.3821L338.436 47.3925L339.517 46.9251ZM339.848 52.3901V53.5678H341.025V52.3901H339.848ZM335.604 52.3901H334.426V53.5678H335.604V52.3901ZM335.604 48.5604H336.782V47.3828H335.604V48.5604ZM321.196 48.5604V47.3828H320.019V48.5604H321.196ZM321.196 57.0478H320.019V58.2255H321.196V57.0478ZM337.239 57.3791L336.772 58.46L336.782 58.4644L337.239 57.3791ZM339.517 59.6562L338.431 60.1132L338.436 60.1236L339.517 59.6562ZM339.517 71.4143L340.598 71.8818L340.602 71.8713L339.517 71.4143ZM337.239 73.6707L336.782 72.5853L336.772 72.5898L337.239 73.6707ZM319.126 73.6707L318.659 74.7517L318.669 74.7561L319.126 73.6707ZM316.87 71.4143L315.784 71.8713L315.789 71.8818L316.87 71.4143ZM316.538 65.9493V64.7716H315.361V65.9493H316.538ZM320.782 65.9493H321.96V64.7716H320.782V65.9493ZM320.782 69.7583H319.605V70.9359H320.782V69.7583ZM335.604 69.7583V70.9359H336.782V69.7583H335.604ZM335.604 61.2915H336.782V60.1139H335.604V61.2915ZM321.196 61.2915V60.1139C320.771 60.1139 320.374 60.0337 319.997 59.875L319.54 60.9603L319.083 62.0457C319.755 62.3286 320.463 62.4692 321.196 62.4692V61.2915ZM319.54 60.9603L320.032 59.8902C319.636 59.7083 319.299 59.4782 319.012 59.2018L318.195 60.0495L317.377 60.8972C317.863 61.366 318.423 61.7432 319.048 62.0304L319.54 60.9603ZM318.195 60.0495L319.027 59.2168C318.748 58.9373 318.528 58.6133 318.365 58.2365L317.284 58.7039L316.203 59.1713C316.481 59.8158 316.868 60.3889 317.362 60.8822L318.195 60.0495ZM317.284 58.7039L318.369 58.2469C318.21 57.8699 318.13 57.4735 318.13 57.0478H316.952H315.775C315.775 57.7814 315.915 58.4891 316.198 59.1609L317.284 58.7039ZM316.952 57.0478H318.13V48.5604H316.952H315.775V57.0478H316.952ZM316.952 48.5604H318.13C318.13 48.1347 318.21 47.7494 318.365 47.3925L317.284 46.9251L316.203 46.4576C315.915 47.122 315.775 47.8269 315.775 48.5604H316.952ZM317.284 46.9251L318.369 47.3821C318.532 46.9957 318.747 46.6825 319.012 46.4272L318.195 45.5795L317.377 44.7318C316.869 45.2217 316.477 45.8056 316.198 46.4681L317.284 46.9251ZM318.195 45.5795L319.027 46.4122C319.307 46.1328 319.631 45.9125 320.008 45.7496L319.54 44.6687L319.073 43.5877C318.428 43.8664 317.855 44.2534 317.362 44.7468L318.195 45.5795ZM319.54 44.6687L320.021 45.7436C320.393 45.5773 320.781 45.4944 321.196 45.4944V44.3167V43.1391C320.452 43.1391 319.736 43.2908 319.059 43.5937L319.54 44.6687ZM321.196 44.3167V45.4944H335.604V44.3167V43.1391H321.196V44.3167ZM335.604 44.3167V45.4944C336.019 45.4944 336.396 45.5773 336.748 45.7388L337.239 44.6687L337.731 43.5985C337.061 43.2908 336.348 43.1391 335.604 43.1391V44.3167ZM337.239 44.6687L336.782 45.754C337.172 45.9182 337.499 46.138 337.773 46.4122L338.606 45.5795L339.438 44.7468C338.94 44.2482 338.355 43.8607 337.696 43.5833L337.239 44.6687ZM338.606 45.5795L337.788 46.4272C338.053 46.6825 338.269 46.9957 338.431 47.3821L339.517 46.9251L340.602 46.4681C340.323 45.8056 339.931 45.2217 339.423 44.7318L338.606 45.5795ZM339.517 46.9251L338.436 47.3925C338.59 47.7494 338.67 48.1347 338.67 48.5604H339.848H341.025C341.025 47.8269 340.885 47.122 340.597 46.4576L339.517 46.9251ZM339.848 48.5604H338.67V52.3901H339.848H341.025V48.5604H339.848ZM339.848 52.3901V51.2125H335.604V52.3901V53.5678H339.848V52.3901ZM335.604 52.3901H336.782V48.5604H335.604H334.426V52.3901H335.604ZM335.604 48.5604V47.3828H321.196V48.5604V49.7381H335.604V48.5604ZM321.196 48.5604H320.019V57.0478H321.196H322.374V48.5604H321.196ZM321.196 57.0478V58.2255H335.604V57.0478V55.8702H321.196V57.0478ZM335.604 57.0478V58.2255C336.03 58.2255 336.415 58.3057 336.772 58.46L337.239 57.3791L337.707 56.2981C337.043 56.0108 336.338 55.8702 335.604 55.8702V57.0478ZM337.239 57.3791L336.782 58.4644C337.172 58.6286 337.499 58.8484 337.773 59.1226L338.606 58.2899L339.438 57.4572C338.94 56.9586 338.355 56.5711 337.696 56.2937L337.239 57.3791ZM338.606 58.2899L337.773 59.1226C338.047 59.3969 338.267 59.7233 338.431 60.1132L339.517 59.6562L340.602 59.1992C340.324 58.5402 339.937 57.9557 339.438 57.4572L338.606 58.2899ZM339.517 59.6562L338.436 60.1236C338.59 60.4805 338.67 60.8658 338.67 61.2915H339.848H341.025C341.025 60.558 340.885 59.8531 340.597 59.1887L339.517 59.6562ZM339.848 61.2915H338.67V69.7583H339.848H341.025V61.2915H339.848ZM339.848 69.7583H338.67C338.67 70.1839 338.59 70.5803 338.431 70.9573L339.517 71.4143L340.602 71.8713C340.885 71.1995 341.025 70.4918 341.025 69.7583H339.848ZM339.517 71.4143L338.436 70.9469C338.273 71.3237 338.052 71.6477 337.773 71.9272L338.606 72.7599L339.438 73.5926C339.932 73.0993 340.319 72.5262 340.597 71.8818L339.517 71.4143ZM338.606 72.7599L337.773 71.9272C337.499 72.2014 337.172 72.4212 336.782 72.5854L337.239 73.6707L337.696 74.7561C338.355 74.4787 338.94 74.0912 339.438 73.5926L338.606 72.7599ZM337.239 73.6707L336.772 72.5898C336.415 72.7441 336.03 72.8243 335.604 72.8243V74.002V75.1796C336.338 75.1796 337.043 75.039 337.707 74.7517L337.239 73.6707ZM335.604 74.002V72.8243H320.782V74.002V75.1796H335.604V74.002ZM320.782 74.002V72.8243C320.357 72.8243 319.96 72.7441 319.583 72.5854L319.126 73.6707L318.669 74.7561C319.341 75.039 320.049 75.1796 320.782 75.1796V74.002ZM319.126 73.6707L319.594 72.5898C319.217 72.4269 318.893 72.2066 318.613 71.9272L317.781 72.7599L316.948 73.5926C317.441 74.086 318.014 74.473 318.659 74.7517L319.126 73.6707ZM317.781 72.7599L318.613 71.9272C318.334 71.6477 318.114 71.3237 317.951 70.9469L316.87 71.4143L315.789 71.8818C316.067 72.5262 316.454 73.0993 316.948 73.5926L317.781 72.7599ZM316.87 71.4143L317.955 70.9573C317.796 70.5803 317.716 70.1839 317.716 69.7583H316.538H315.361C315.361 70.4918 315.501 71.1995 315.784 71.8713L316.87 71.4143ZM316.538 69.7583H317.716V65.9493H316.538H315.361V69.7583H316.538ZM316.538 65.9493V67.1269H320.782V65.9493V64.7716H316.538V65.9493ZM320.782 65.9493H319.605V69.7583H320.782H321.96V65.9493H320.782ZM320.782 69.7583V70.9359H335.604V69.7583V68.5806H320.782V69.7583ZM335.604 69.7583H336.782V61.2915H335.604H334.426V69.7583H335.604ZM335.604 61.2915V60.1139H321.196V61.2915V62.4692H335.604V61.2915ZM347.507 44.3167V43.1391H346.329V44.3167H347.507ZM369.14 44.3167H370.317V43.1391H369.14V44.3167ZM369.14 48.5604V49.7381H370.317V48.5604H369.14ZM351.751 48.5604V47.3828H350.573V48.5604H351.751ZM351.751 57.0478H350.573V58.2255H351.751V57.0478ZM366.593 57.0478H367.771V55.8702H366.593V57.0478ZM366.593 61.2915V62.4692H367.771V61.2915H366.593ZM351.751 61.2915V60.1139H350.573V61.2915H351.751ZM351.751 69.7583H350.573V70.9359H351.751V69.7583ZM369.14 69.7583H370.317V68.5806H369.14V69.7583ZM369.14 74.002V75.1796H370.317V74.002H369.14ZM347.507 74.002H346.329V75.1796H347.507V74.002ZM347.507 44.3167V45.4944H369.14V44.3167V43.1391H347.507V44.3167ZM369.14 44.3167H367.962V48.5604H369.14H370.317V44.3167H369.14ZM369.14 48.5604V47.3828H351.751V48.5604V49.7381H369.14V48.5604ZM351.751 48.5604H350.573V57.0478H351.751H352.929V48.5604H351.751ZM351.751 57.0478V58.2255H366.593V57.0478V55.8702H351.751V57.0478ZM366.593 57.0478H365.416V61.2915H366.593H367.771V57.0478H366.593ZM366.593 61.2915V60.1139H351.751V61.2915V62.4692H366.593V61.2915ZM351.751 61.2915H350.573V69.7583H351.751H352.929V61.2915H351.751ZM351.751 69.7583V70.9359H369.14V69.7583V68.5806H351.751V69.7583ZM369.14 69.7583H367.962V74.002H369.14H370.317V69.7583H369.14ZM369.14 74.002V72.8243H347.507V74.002V75.1796H369.14V74.002ZM347.507 74.002H348.685V44.3167H347.507H346.329V74.002H347.507ZM379.739 74.002V75.1796H380.916V74.002H379.739ZM375.495 74.002H374.317V75.1796H375.495V74.002ZM375.495 44.3167V43.1391H374.317V44.3167H375.495ZM379.739 44.3167L380.669 43.5952L380.316 43.1391H379.739V44.3167ZM397.583 67.3362L396.652 68.0577L398.76 70.7776V67.3362H397.583ZM397.583 44.3167V43.1391H396.405V44.3167H397.583ZM401.827 44.3167H403.004V43.1391H401.827V44.3167ZM401.827 74.002V75.1796H403.004V74.002H401.827ZM397.583 74.002L396.652 74.7235L397.006 75.1796H397.583V74.002ZM379.739 50.9825L380.669 50.261L378.561 47.5411V50.9825H379.739ZM379.739 74.002V72.8243H375.495V74.002V75.1796H379.739V74.002ZM375.495 74.002H376.673V44.3167H375.495H374.317V74.002H375.495ZM375.495 44.3167V45.4944H379.739V44.3167V43.1391H375.495V44.3167ZM379.739 44.3167L378.808 45.0382L396.652 68.0577L397.583 67.3362L398.514 66.6147L380.669 43.5952L379.739 44.3167ZM397.583 67.3362H398.76V44.3167H397.583H396.405V67.3362H397.583ZM397.583 44.3167V45.4944H401.827V44.3167V43.1391H397.583V44.3167ZM401.827 44.3167H400.649V74.002H401.827H403.004V44.3167H401.827ZM401.827 74.002V72.8243H397.583V74.002V75.1796H401.827V74.002ZM397.583 74.002L398.514 73.2804L380.669 50.261L379.739 50.9825L378.808 51.704L396.652 74.7235L397.583 74.002ZM379.739 50.9825H378.561V74.002H379.739H380.916V50.9825H379.739ZM406.898 44.3167V43.1391H405.721V44.3167H406.898ZM430.642 44.3167H431.82V43.1391H430.642V44.3167ZM430.642 48.5604V49.7381H431.82V48.5604H430.642ZM420.892 48.5604V47.3828H419.714V48.5604H420.892ZM420.892 74.002V75.1796H422.07V74.002H420.892ZM416.648 74.002H415.471V75.1796H416.648V74.002ZM416.648 48.5604H417.826V47.3828H416.648V48.5604ZM406.898 48.5604H405.721V49.7381H406.898V48.5604ZM406.898 44.3167V45.4944H430.642V44.3167V43.1391H406.898V44.3167ZM430.642 44.3167H429.465V48.5604H430.642H431.82V44.3167H430.642ZM430.642 48.5604V47.3828H420.892V48.5604V49.7381H430.642V48.5604ZM420.892 48.5604H419.714V74.002H420.892H422.07V48.5604H420.892ZM420.892 74.002V72.8243H416.648V74.002V75.1796H420.892V74.002ZM416.648 74.002H417.826V48.5604H416.648H415.471V74.002H416.648ZM416.648 48.5604V47.3828H406.898V48.5604V49.7381H416.648V48.5604ZM406.898 48.5604H408.076V44.3167H406.898H405.721V48.5604H406.898ZM439.978 44.3167H441.156V43.1391H439.978V44.3167ZM439.978 74.002V75.1796H441.156V74.002H439.978ZM435.735 74.002H434.557V75.1796H435.735V74.002ZM435.735 44.3167V43.1391H434.557V44.3167H435.735ZM439.978 44.3167H438.801V74.002H439.978H441.156V44.3167H439.978ZM439.978 74.002V72.8243H435.735V74.002V75.1796H439.978V74.002ZM435.735 74.002H436.912V44.3167H435.735H434.557V74.002H435.735ZM435.735 44.3167V45.4944H439.978V44.3167V43.1391H435.735V44.3167ZM451.861 74.002V75.1796H453.039V74.002H451.861ZM447.617 74.002H446.439V75.1796H447.617V74.002ZM447.617 44.3167V43.1391H446.439V44.3167H447.617ZM451.861 44.3167L452.792 43.5952L452.438 43.1391H451.861V44.3167ZM469.705 67.3362L468.774 68.0577L470.883 70.7776V67.3362H469.705ZM469.705 44.3167V43.1391H468.527V44.3167H469.705ZM473.949 44.3167H475.126V43.1391H473.949V44.3167ZM473.949 74.002V75.1796H475.126V74.002H473.949ZM469.705 74.002L468.774 74.7235L469.128 75.1796H469.705V74.002ZM451.861 50.9825L452.792 50.261L450.683 47.5411V50.9825H451.861ZM451.861 74.002V72.8243H447.617V74.002V75.1796H451.861V74.002ZM447.617 74.002H448.795V44.3167H447.617H446.439V74.002H447.617ZM447.617 44.3167V45.4944H451.861V44.3167V43.1391H447.617V44.3167ZM451.861 44.3167L450.93 45.0382L468.774 68.0577L469.705 67.3362L470.636 66.6147L452.792 43.5952L451.861 44.3167ZM469.705 67.3362H470.883V44.3167H469.705H468.527V67.3362H469.705ZM469.705 44.3167V45.4944H473.949V44.3167V43.1391H469.705V44.3167ZM473.949 44.3167H472.771V74.002H473.949H475.126V44.3167H473.949ZM473.949 74.002V72.8243H469.705V74.002V75.1796H473.949V74.002ZM469.705 74.002L470.636 73.2804L452.792 50.261L451.861 50.9825L450.93 51.704L468.774 74.7235L469.705 74.002ZM451.861 50.9825H450.683V74.002H451.861H453.039V50.9825H451.861ZM481.567 44.3167V43.1391H480.389V44.3167H481.567ZM503.199 44.3167H504.377V43.1391H503.199V44.3167ZM503.199 48.5604V49.7381H504.377V48.5604H503.199ZM485.81 48.5604V47.3828H484.633V48.5604H485.81ZM485.81 57.0478H484.633V58.2255H485.81V57.0478ZM500.653 57.0478H501.831V55.8702H500.653V57.0478ZM500.653 61.2915V62.4692H501.831V61.2915H500.653ZM485.81 61.2915V60.1139H484.633V61.2915H485.81ZM485.81 69.7583H484.633V70.9359H485.81V69.7583ZM503.199 69.7583H504.377V68.5806H503.199V69.7583ZM503.199 74.002V75.1796H504.377V74.002H503.199ZM481.567 74.002H480.389V75.1796H481.567V74.002ZM481.567 44.3167V45.4944H503.199V44.3167V43.1391H481.567V44.3167ZM503.199 44.3167H502.022V48.5604H503.199H504.377V44.3167H503.199ZM503.199 48.5604V47.3828H485.81V48.5604V49.7381H503.199V48.5604ZM485.81 48.5604H484.633V57.0478H485.81H486.988V48.5604H485.81ZM485.81 57.0478V58.2255H500.653V57.0478V55.8702H485.81V57.0478ZM500.653 57.0478H499.475V61.2915H500.653H501.831V57.0478H500.653ZM500.653 61.2915V60.1139H485.81V61.2915V62.4692H500.653V61.2915ZM485.81 61.2915H484.633V69.7583H485.81H486.988V61.2915H485.81ZM485.81 69.7583V70.9359H503.199V69.7583V68.5806H485.81V69.7583ZM503.199 69.7583H502.022V74.002H503.199H504.377V69.7583H503.199ZM503.199 74.002V72.8243H481.567V74.002V75.1796H503.199V74.002ZM481.567 74.002H482.744V44.3167H481.567H480.389V74.002H481.567ZM513.798 44.3167H514.976V43.1391H513.798V44.3167ZM513.798 69.7583H512.621V70.9359H513.798V69.7583ZM529.055 69.7583H530.232V68.5806H529.055V69.7583ZM529.055 74.002V75.1796H530.232V74.002H529.055ZM509.554 74.002H508.377V75.1796H509.554V74.002ZM509.554 44.3167V43.1391H508.377V44.3167H509.554ZM513.798 44.3167H512.621V69.7583H513.798H514.976V44.3167H513.798ZM513.798 69.7583V70.9359H529.055V69.7583V68.5806H513.798V69.7583ZM529.055 69.7583H527.877V74.002H529.055H530.232V69.7583H529.055ZM529.055 74.002V72.8243H509.554V74.002V75.1796H529.055V74.002ZM509.554 74.002H510.732V44.3167H509.554H508.377V74.002H509.554ZM509.554 44.3167V45.4944H513.798V44.3167V43.1391H509.554V44.3167Z" fill="#EDC702"/>
<path d="M1712.07 21.5605H1653.27H1594.48" stroke="#475671" stroke-width="2"/>
<path d="M775.136 38.5532L792.867 21.5605H822.265H851.663" stroke="#475671" stroke-width="2"/>
<defs>
<linearGradient id="paint0_linear_240_5036" x1="-361.345" y1="59.6421" x2="651.724" y2="59.6421" gradientUnits="userSpaceOnUse">
<stop stop-color="#52729F"/>
<stop offset="1" stop-color="#1D2939"/>
</linearGradient>
<linearGradient id="paint1_linear_240_5036" x1="80.0908" y1="-1.36719" x2="80.0908" y2="93.0029" gradientUnits="userSpaceOnUse">
<stop stop-color="white"/>
<stop offset="1" stop-color="#819DBF"/>
</linearGradient>
</defs>
</svg>
