<svg width="14" height="18" viewBox="0 0 14 18" fill="none" xmlns="http://www.w3.org/2000/svg">
<path d="M6.25867 0.291098C6.44512 0.104708 6.69796 0 6.96159 0C7.22523 0 7.47807 0.104708 7.66452 0.291098L13.6299 6.25651C13.6556 6.28233 13.6798 6.30955 13.7025 6.33803L13.7085 6.34599L13.7244 6.36786L13.7661 6.42652L13.7751 6.44143L13.782 6.45138L13.796 6.47822L13.8198 6.52197L13.8268 6.53887L13.8367 6.55875L13.8487 6.59057L13.8636 6.62437L13.8705 6.64923L13.8785 6.66912L13.8835 6.69496L13.8954 6.73175L13.8994 6.75959L13.9053 6.78445L13.9083 6.8103L13.9143 6.84311L13.9163 6.87293L13.9192 6.90077V6.92662L13.9212 6.95943L13.9192 6.99224V7.01809L13.9163 7.04394L13.9143 7.07576L13.9093 7.10459L13.9053 7.13442L13.8994 7.15828L13.8954 7.1881L13.8835 7.2229L13.8785 7.24975L13.8705 7.26864L13.8636 7.29449L13.8487 7.3273L13.8367 7.3611L13.8268 7.379L13.8198 7.39689L13.796 7.43965L13.782 7.46748L13.7751 7.47643L13.7661 7.49234L13.7244 7.55001L13.7124 7.5689L13.7085 7.57188L13.7025 7.58182C13.6569 7.63834 13.6052 7.68968 13.5484 7.73493L13.5394 7.7409L13.5176 7.75681L13.4599 7.79857L13.444 7.80751L13.4351 7.81447L13.4072 7.82839L13.3645 7.85225L13.3466 7.85921L13.3287 7.86916L13.2949 7.88109L13.2621 7.896L13.2382 7.90197L13.2173 7.91091L13.1905 7.91588L13.1547 7.92782L13.1258 7.93179L13.102 7.93776L13.0741 7.94074L13.0433 7.94671L13.0115 7.94869L12.9857 7.95168H12.9598L12.927 7.95367H0.996183C0.111314 7.95367 -0.333108 6.88288 0.29326 6.25651L6.25867 0.291098ZM12.927 9.94214L12.9598 9.94412H12.9857L13.0115 9.94711L13.0433 9.94909L13.0741 9.95506L13.102 9.95804L13.1258 9.96401L13.1557 9.96799L13.1905 9.97992L13.2173 9.98489L13.2362 9.99284L13.2621 9.9998L13.2949 10.0147L13.3287 10.0266L13.3466 10.0366L13.3645 10.0435L13.4072 10.0674L13.4351 10.0813L13.444 10.0883L13.4599 10.0972L13.5106 10.134L13.5365 10.1509L13.5394 10.1549L13.5494 10.1609C13.6059 10.2065 13.6572 10.2582 13.7025 10.315L13.7085 10.3239L13.7234 10.3438L13.7661 10.4035L13.7751 10.4194L13.782 10.4283L13.796 10.4562L13.8198 10.4989L13.8248 10.5118L13.8367 10.5347L13.8487 10.5685L13.8636 10.6013L13.8705 10.6272L13.8785 10.647L13.8835 10.6729L13.8954 10.7087L13.8994 10.7375L13.9053 10.7614L13.9083 10.7892L13.9143 10.82L13.9163 10.8519L13.9192 10.8777V10.9036L13.9212 10.9364L13.9192 10.9692V10.995L13.9163 11.0209L13.9143 11.0527L13.9083 11.0835L13.9053 11.1114L13.8994 11.1352L13.8954 11.165L13.8835 11.1998L13.8785 11.2267L13.8705 11.2456L13.8636 11.2714L13.8487 11.3042L13.8367 11.338L13.8268 11.3559L13.8198 11.3738L13.796 11.4166L13.782 11.4444L13.7751 11.4534L13.7661 11.4693L13.7244 11.5269L13.7124 11.5458L13.7085 11.5488L13.7025 11.5588L13.6299 11.6393L7.66452 17.6047C7.47807 17.7911 7.22523 17.8958 6.96159 17.8958C6.69796 17.8958 6.44512 17.7911 6.25867 17.6047L0.29326 11.6393C-0.333108 11.0129 0.11032 9.94214 0.996183 9.94214H12.927Z" fill="#EDC702"/>
</svg>
