<svg width="163" height="198" viewBox="0 0 163 198" fill="none" xmlns="http://www.w3.org/2000/svg">
<mask id="mask0_932_623" style="mask-type:alpha" maskUnits="userSpaceOnUse" x="0" y="0" width="163" height="198">
<path d="M81.0733 0L0 35.857V89.6424C0 139.394 34.5913 185.918 81.0733 197.213C127.555 185.918 162.147 139.394 162.147 89.6424V35.857L81.0733 0Z" fill="black"/>
</mask>
<g mask="url(#mask0_932_623)">
<path d="M162.147 35.8574V89.6426C162.147 139.394 127.556 185.918 81.0736 197.213C42.2927 187.789 11.7896 153.843 2.74646 113.959H20.0726C21.0026 114.852 22.284 116.058 23.8627 117.476C27.2904 120.554 32.1506 124.667 37.8734 128.794C49.0225 136.834 64.5968 145.787 79.597 145.831C88.4409 145.857 97.064 142.803 104.792 138.597C112.552 134.374 119.744 128.806 125.828 123.358C131.929 117.896 137.033 112.449 140.608 108.375C142.398 106.334 143.814 104.627 144.789 103.422C145.277 102.819 145.655 102.341 145.915 102.009C146.045 101.843 146.146 101.712 146.216 101.621C146.251 101.576 146.279 101.539 146.298 101.514C146.308 101.501 146.316 101.49 146.322 101.482C146.324 101.479 146.327 101.475 146.329 101.473C146.33 101.472 146.331 101.47 146.331 101.47L141.812 98.04C146.076 94.6696 146.255 94.5267 146.261 94.5195C146.261 94.519 146.259 94.5169 146.258 94.5156C146.256 94.5133 146.253 94.5102 146.25 94.5068C146.244 94.4994 146.237 94.4887 146.227 94.4766C146.207 94.4518 146.179 94.4167 146.144 94.373C146.073 94.285 145.971 94.1587 145.84 93.998C145.578 93.6763 145.197 93.213 144.705 92.6299C143.723 91.4637 142.296 89.8115 140.495 87.8359C136.897 83.8919 131.767 78.6175 125.651 73.3213C113.745 63.0118 96.8218 51.4797 79.6439 51.3887C64.98 51.3111 49.4374 59.5981 38.224 67.0918C32.4732 70.9349 27.5684 74.7724 24.1019 77.6465C22.4715 78.9983 21.1524 80.1436 20.2054 80.9834H0.000366211V35.8574L81.0736 0L162.147 35.8574ZM79.5834 62.7354C92.3354 62.8029 106.512 71.7596 118.222 81.8994C123.913 86.8277 128.722 91.769 132.11 95.4834C132.995 96.454 133.781 97.3389 134.458 98.1143C133.775 98.9294 132.979 99.8645 132.078 100.892C128.711 104.728 123.93 109.827 118.259 114.904C112.571 119.997 106.102 124.965 99.3676 128.63C92.6012 132.312 85.8946 134.502 79.6302 134.483C68.47 134.451 55.4327 127.466 44.5111 119.59C40.1241 116.426 36.2643 113.254 33.2426 110.62C34.5268 110.185 35.9042 109.719 37.3431 109.228C42.9729 107.306 49.5901 105.015 55.3588 102.938C58.2607 112.31 66.9972 119.118 77.3226 119.118C90.0181 119.118 100.31 108.825 100.31 96.1299C100.31 83.4345 90.018 73.1428 77.3226 73.1426C66.38 73.1426 57.2229 80.7885 54.9027 91.0293C48.5992 93.3471 40.4686 96.1698 33.6771 98.4883C29.9985 99.7441 26.728 100.848 24.3773 101.638C23.2022 102.032 22.2564 102.348 21.6058 102.565C21.5587 102.581 21.5131 102.597 21.4691 102.611H0.781616C0.372848 99.2101 0.121728 95.7798 0.0355225 92.3311H24.6439L26.2806 90.7891L26.2816 90.7881C26.2832 90.7866 26.2872 90.7832 26.2924 90.7783C26.3031 90.7683 26.3216 90.7503 26.347 90.7266C26.3982 90.679 26.4788 90.6044 26.5873 90.5049C26.8049 90.3052 27.1356 90.0046 27.5697 89.6182C28.4387 88.8445 29.7215 87.7272 31.3441 86.3818C34.5959 83.6857 39.1839 80.0988 44.5297 76.5264C55.51 69.1885 68.5787 62.6773 79.5834 62.7354ZM0.781616 102.611C1.24125 106.436 1.89947 110.223 2.74646 113.959H-2.94299V102.611H0.781616ZM77.3226 81.8291C85.2208 81.8293 91.6232 88.2317 91.6234 96.1299C91.6233 104.028 85.2209 110.431 77.3226 110.432C69.4242 110.432 63.021 104.028 63.0209 96.1299C63.0211 88.2316 69.4242 81.8291 77.3226 81.8291ZM141.812 98.04L146.333 101.467L148.986 97.9668L146.263 94.5215L141.812 98.04ZM0.000366211 89.6426C0.00036788 90.5399 0.0131509 91.4361 0.0355225 92.3311H-2.94299V80.9834H0.000366211V89.6426Z" fill="url(#paint0_linear_932_623)"/>
</g>
<defs>
<linearGradient id="paint0_linear_932_623" x1="79.6019" y1="0" x2="79.6019" y2="197.213" gradientUnits="userSpaceOnUse">
<stop stop-color="white"/>
<stop offset="1" stop-color="#819DBF"/>
</linearGradient>
</defs>
</svg>
